SplineFontDB: 3.2
FontName: SeriousShannsBoldItalic
FullName: Serious Shanns Bold Italic
FamilyName: Serious Shanns Bold Italic
Weight: Bold
Copyright: https://github.com/kaBeech/serious-shanns/blob/main/LICENSE
Version: 6.0.0
ItalicAngle: -12.5
UnderlinePosition: 0
UnderlineWidth: 0
Ascent: 800
Descent: 200
InvalidEm: 0
sfntRevision: 0x00003333
LayerCount: 2
Layer: 0 0 "Back" 1
Layer: 1 0 "Fore" 0
XUID: [1021 45 630387186 10904090]
StyleMap: 0x0040
FSType: 4
OS2Version: 3
OS2_WeightWidthSlopeOnly: 0
OS2_UseTypoMetrics: 0
CreationTime: 1532631502
ModificationTime: 315532800
PfmFamily: 81
TTFWeight: 700
TTFWidth: 5
LineGap: 0
VLineGap: 0
Panose: 0 0 0 0 0 0 0 0 0 0
OS2TypoAscent: 613
OS2TypoAOffset: 0
OS2TypoDescent: -188
OS2TypoDOffset: 0
OS2TypoLinegap: 98
OS2WinAscent: 778
OS2WinAOffset: 0
OS2WinDescent: 308
OS2WinDOffset: 0
HheadAscent: 796
HheadAOffset: 0
HheadDescent: -317
HheadDOffset: 0
OS2SubXSize: 317
OS2SubYSize: 293
OS2SubXOff: 0
OS2SubYOff: 37
OS2SupXSize: 317
OS2SupYSize: 293
OS2SupXOff: 0
OS2SupYOff: 171
OS2StrikeYSize: 0
OS2StrikeYPos: 132
OS2CapHeight: 576
OS2XHeight: 485
OS2Vendor: 'NONE'
OS2CodePages: 00000001.00000000
OS2UnicodeRanges: 00000001.00000000.00000000.00000000
MarkAttachClasses: 1
DEI: 91125
LangName: 1033 "" "" "Normal" "" "" "Version 0.2.0"
Encoding: UnicodeBmp
Compacted: 1
UnicodeInterp: none
NameList: AGL For New Fonts
DisplaySize: -48
AntiAlias: 1
FitToEm: 0
WinInfo: 0 17 8
BeginPrivate: 9
BlueValues 32 [-40 -6 499 523 706 718 765 769]
OtherBlues 11 [-297 -287]
BlueScale 9 0.0291667
BlueShift 1 0
StdHW 5 [111]
StdVW 5 [118]
StemSnapH 33 [100 106 110 111 114 116 119 179]
StemSnapV 5 [118]
ForceBold 4 true
EndPrivate
BeginChars: 65537 121

StartChar: .notdef
Encoding: 65536 -1 0
Width: 620
GlyphClass: 1
Flags: W
HStem: -280 78<123.818 399.818> 683 78<327.818 603.818>
LayerCount: 2
Fore
SplineSet
32.818359375 -280 m 1
 273.818359375 761 l 1
 693.818359375 761 l 1
 453.818359375 -280 l 1
 32.818359375 -280 l 1
327.818359375 683 m 1
 123.818359375 -202 l 1
 399.818359375 -202 l 1
 603.818359375 683 l 1
 327.818359375 683 l 1
EndSplineSet
EndChar

StartChar: exclam
Encoding: 33 33 8
Width: 620
GlyphClass: 2
Flags: HMW
HStem: -36.998 179<363.26 439.593 374.26 439.593>
VStem: 315.26 309.998
LayerCount: 2
Fore
SplineSet
545.12890625 738 m 0
 543.795898438 732 534.130859375 694.668945312 516.130859375 626.001953125 c 0
 498.130859375 557.334960938 484.463867188 502.334960938 475.130859375 461.001953125 c 0
 470.463867188 441.668945312 465.963867188 421.501953125 461.630859375 400.501953125 c 0
 457.297851562 379.501953125 453.297851562 361.501953125 449.630859375 346.501953125 c 0
 445.963867188 331.501953125 443.130859375 321.168945312 441.130859375 315.501953125 c 0
 439.130859375 309.834960938 437.297851562 302.66796875 435.630859375 294.000976562 c 0
 433.963867188 285.333984375 432.130859375 277.333984375 430.130859375 270.000976562 c 0
 424.130859375 251.333984375 414.130859375 237.000976562 400.130859375 227.000976562 c 0
 386.797851562 217.66796875 372.797851562 212.66796875 358.130859375 212.000976562 c 2
 355.130859375 212.000976562 l 2
 339.797851562 212.000976562 328.46484375 217.66796875 321.131835938 229.000976562 c 0
 316.686523438 235.66796875 314.46484375 243.96484375 314.46484375 253.891601562 c 0
 314.46484375 258.854492188 315.01953125 264.223632812 316.130859375 270.000976562 c 0
 318.130859375 278.000976562 321.630859375 288.500976562 326.630859375 301.500976562 c 0
 331.630859375 314.500976562 335.130859375 324.000976562 337.130859375 330.000976562 c 0
 339.130859375 336.000976562 341.963867188 346.16796875 345.630859375 360.500976562 c 0
 349.297851562 374.833984375 352.630859375 388.666992188 355.630859375 402 c 0
 358.630859375 415.333007812 362.797851562 435.666015625 368.130859375 462.999023438 c 0
 374.130859375 494.999023438 380.463867188 525.666015625 387.130859375 554.999023438 c 0
 393.797851562 584.33203125 399.297851562 607.33203125 403.630859375 623.999023438 c 0
 407.963867188 640.666015625 413.296875 661.333007812 419.629882812 686 c 0
 425.962890625 710.666992188 430.129882812 727 432.129882812 735 c 0
 437.462890625 756.333007812 446.962890625 772.833007812 460.629882812 784.5 c 0
 474.296875 796.166992188 488.796875 802 504.129882812 802 c 2
 508.129882812 802 l 2
 522.796875 802 533.796875 796.666992188 541.129882812 786 c 0
 545.611328125 779.481445312 547.8515625 770.971679688 547.8515625 760.470703125 c 0
 547.8515625 753.787109375 546.944335938 746.296875 545.12890625 738 c 0
294.130859375 -36.998046875 m 2
 272.130859375 -36.998046875 255.797851562 -28.998046875 245.130859375 -12.998046875 c 0
 236.53515625 -0.3310546875 232.23828125 14.0234375 232.23828125 30.06640625 c 0
 232.23828125 37.666015625 233.202148438 45.64453125 235.130859375 54.001953125 c 0
 240.463867188 78.001953125 254.130859375 98.3349609375 276.130859375 115.001953125 c 0
 300.130859375 133.001953125 323.963867188 142.001953125 347.630859375 142.001953125 c 0
 371.297851562 142.001953125 388.797851562 134.001953125 400.130859375 118.001953125 c 0
 408.130859375 106.890625 412.130859375 93.927734375 412.130859375 79.11328125 c 0
 412.130859375 71.7060546875 411.130859375 63.8349609375 409.130859375 55.501953125 c 0
 403.130859375 30.501953125 390.630859375 9.6689453125 371.630859375 -6.998046875 c 0
 352.630859375 -23.6650390625 330.130859375 -33.6650390625 304.130859375 -36.998046875 c 2
 294.130859375 -36.998046875 l 2
EndSplineSet
EndChar

StartChar: quotedbl
Encoding: 34 34 9
Width: 620
GlyphClass: 2
Flags: W
LayerCount: 2
Fore
SplineSet
460.477539062 739 m 0
 459.14453125 730.333007812 456.141601562 716.333984375 451.474609375 697.000976562 c 0
 446.807617188 677.66796875 437.807617188 641.66796875 424.474609375 589.000976562 c 0
 410.474609375 533.66796875 399.474609375 495.000976562 391.474609375 473.000976562 c 0
 385.474609375 456.333984375 375.807617188 443.666992188 362.474609375 435 c 0
 350.474609375 427 338.807617188 423 327.474609375 423 c 0
 312.141601562 423 298.80859375 428 287.475585938 438 c 0
 280.942382812 444.533203125 277.67578125 452.700195312 277.67578125 462.5 c 0
 277.67578125 466.700195312 278.275390625 471.200195312 279.475585938 476 c 2
 281.475585938 482 l 2
 288.80859375 508 296.80859375 540 305.475585938 578 c 0
 308.142578125 588.666992188 310.475585938 600 312.475585938 612 c 0
 327.142578125 679.333007812 336.809570312 724.666015625 341.4765625 747.999023438 c 0
 343.4765625 756.666015625 347.143554688 764.333007812 352.4765625 771 c 0
 359.143554688 779 366.810546875 785 375.477539062 789 c 0
 385.9765625 793.083007812 396.221679688 795.125 406.209960938 795.125 c 0
 407.637695312 795.125 409.060546875 795.083007812 410.477539062 795 c 0
 419.810546875 795 427.310546875 794.166992188 432.977539062 792.5 c 0
 438.64453125 790.833007812 444.14453125 788 449.477539062 784 c 0
 454.810546875 780 458.477539062 774 460.477539062 766 c 0
 462.477539062 758 462.477539062 749 460.477539062 739 c 0
609.474609375 738.000976562 m 0
 608.141601562 731.333984375 606.807617188 725.001953125 605.474609375 719.001953125 c 0
 597.474609375 685.001953125 586.807617188 641.668945312 573.474609375 589.001953125 c 0
 559.474609375 533.668945312 548.807617188 495.001953125 541.474609375 473.001953125 c 0
 535.474609375 456.334960938 525.474609375 443.66796875 511.474609375 435.000976562 c 0
 499.474609375 427.000976562 487.474609375 423.000976562 475.474609375 423.000976562 c 0
 460.141601562 423.000976562 447.474609375 428.000976562 437.474609375 438.000976562 c 0
 430.59765625 444.877929688 427.159179688 453.565429688 427.159179688 464.0625 c 0
 427.159179688 467.811523438 427.59765625 471.791015625 428.474609375 476.000976562 c 2
 430.474609375 482.000976562 l 2
 437.141601562 504.66796875 444.141601562 532.000976562 451.474609375 564.000976562 c 0
 466.807617188 631.333984375 479.474609375 691.000976562 489.474609375 743.000976562 c 1
 489.474609375 746.000976562 l 2
 491.474609375 755.333984375 495.641601562 763.833984375 501.974609375 771.500976562 c 0
 508.307617188 779.16796875 515.807617188 785.000976562 524.474609375 789.000976562 c 0
 534.973632812 793.083984375 545.21875 795.125976562 555.20703125 795.125976562 c 0
 556.634765625 795.125976562 558.057617188 795.083984375 559.474609375 795.000976562 c 0
 568.807617188 795.000976562 576.307617188 794.16796875 581.974609375 792.500976562 c 0
 587.641601562 790.833984375 593.141601562 788.333984375 598.474609375 785.000976562 c 0
 604.474609375 781.000976562 608.307617188 774.833984375 609.974609375 766.500976562 c 0
 611.641601562 758.16796875 611.474609375 748.66796875 609.474609375 738.000976562 c 0
EndSplineSet
EndChar

StartChar: numbersign
Encoding: 35 35 10
Width: 620
GlyphClass: 2
Flags: HMW
HStem: -14 21G<142.256 149.59> 178.501 108.501<323.59 323.59> 433.002 109.002<430.586 469.586 385.586 511.586>
LayerCount: 2
Fore
SplineSet
268.58984375 431 m 1
 251.256835938 430.333007812 241.5859375 430.334960938 239.5859375 431.001953125 c 0
 222.918945312 431.001953125 210.918945312 435.334960938 203.5859375 444.001953125 c 0
 197.938476562 451.060546875 195.115234375 459.448242188 195.115234375 469.165039062 c 0
 195.115234375 473.212890625 195.60546875 477.4921875 196.5859375 482.001953125 c 2
 196.5859375 485.001953125 l 2
 199.918945312 499.001953125 207.751953125 511.334960938 220.084960938 522.001953125 c 0
 232.41796875 532.668945312 247.91796875 538.3359375 266.584960938 539.002929688 c 0
 277.251953125 539.669921875 292.584960938 540.002929688 312.584960938 540.002929688 c 1
 371.584960938 686.002929688 l 2
 382.251953125 706.669921875 394.918945312 721.002929688 409.5859375 729.002929688 c 0
 419.5859375 734.3359375 429.5859375 737.002929688 439.5859375 737.002929688 c 0
 443.5859375 737.002929688 447.918945312 736.3359375 452.5859375 735.002929688 c 0
 467.918945312 731.669921875 478.251953125 723.336914062 483.584960938 710.00390625 c 0
 485.985351562 704.404296875 487.185546875 698.204101562 487.185546875 691.404296875 c 0
 487.185546875 686.87109375 486.651367188 682.0703125 485.584960938 677.00390625 c 0
 484.251953125 671.00390625 481.918945312 665.00390625 478.5859375 659.00390625 c 2
 430.5859375 542.00390625 l 1
 511.5859375 542.00390625 l 1
 566.5859375 678.00390625 l 2
 577.252929688 699.336914062 589.919921875 714.00390625 604.586914062 722.00390625 c 0
 614.586914062 727.336914062 624.586914062 729.669921875 634.586914062 729.002929688 c 0
 639.25390625 729.002929688 643.920898438 728.669921875 648.587890625 728.002929688 c 0
 663.920898438 724.669921875 674.587890625 716.336914062 680.587890625 703.00390625 c 0
 682.98828125 697.803710938 684.188476562 692.00390625 684.188476562 685.603515625 c 0
 684.188476562 681.336914062 683.654296875 676.803710938 682.587890625 672.00390625 c 0
 681.254882812 665.336914062 678.587890625 658.336914062 674.587890625 651.00390625 c 0
 662.587890625 626.336914062 647.254882812 590.336914062 628.587890625 543.00390625 c 1
 645.254882812 542.336914062 657.921875 537.00390625 666.588867188 527.00390625 c 0
 674.921875 517.559570312 679.088867188 507.189453125 679.088867188 495.892578125 c 0
 679.088867188 493.633789062 678.921875 491.336914062 678.588867188 489.00390625 c 0
 675.255859375 473.670898438 667.422851562 460.670898438 655.08984375 450.00390625 c 0
 642.756835938 439.336914062 627.58984375 433.669921875 609.58984375 433.002929688 c 2
 608.58984375 433.002929688 l 1
 584.58984375 433.002929688 l 1
 527.58984375 286.002929688 l 1
 552.58984375 286.002929688 l 2
 570.58984375 286.002929688 582.256835938 281.3359375 587.58984375 272.002929688 c 0
 591.14453125 265.78125 592.922851562 258.522460938 592.922851562 250.2265625 c 0
 592.922851562 246.078125 592.477539062 241.669921875 591.588867188 237.002929688 c 2
 591.588867188 236.002929688 l 2
 588.255859375 220.002929688 581.922851562 207.669921875 572.58984375 199.002929688 c 0
 560.58984375 186.3359375 545.58984375 180.002929688 527.58984375 180.002929688 c 2
 485.58984375 180.002929688 l 1
 457.58984375 109.3359375 437.922851562 60.6689453125 426.58984375 34.001953125 c 0
 415.922851562 16.6689453125 401.922851562 3.3359375 384.58984375 -5.9970703125 c 0
 374.390625 -11.396484375 365.000976562 -14.0966796875 356.421875 -14.0966796875 c 0
 355.467773438 -14.0966796875 354.524414062 -14.0634765625 353.590820312 -13.9970703125 c 0
 348.2578125 -13.9970703125 343.2578125 -13.330078125 338.590820312 -11.9970703125 c 0
 324.590820312 -8.6640625 315.590820312 1.6689453125 311.590820312 19.001953125 c 0
 309.590820312 28.3349609375 309.923828125 37.66796875 312.590820312 47.0009765625 c 0
 314.590820312 55.0009765625 317.590820312 63.333984375 321.590820312 72.0009765625 c 0
 332.923828125 96.0009765625 348.256835938 131.66796875 367.58984375 179.000976562 c 1
 356.256835938 179.000976562 341.58984375 178.833984375 323.58984375 178.500976562 c 0
 305.58984375 178.16796875 290.922851562 178.000976562 279.58984375 178.000976562 c 1
 241.58984375 88.0009765625 221.922851562 41.333984375 220.58984375 38.0009765625 c 0
 211.256835938 21.333984375 197.256835938 7.6669921875 178.58984375 -3 c 0
 165.922851562 -10.3330078125 154.58984375 -14 144.58984375 -14 c 0
 139.922851562 -14 134.922851562 -13.3330078125 129.58984375 -12 c 0
 115.58984375 -8.6669921875 107.256835938 2.3330078125 104.58984375 21 c 0
 103.256835938 30.3330078125 103.58984375 39.5 105.58984375 48.5 c 0
 107.58984375 57.5 110.922851562 66.6669921875 115.58984375 76 c 0
 123.58984375 92 138.922851562 125.666992188 161.58984375 177 c 1
 147.58984375 177 l 2
 129.58984375 177 116.58984375 181 108.58984375 189 c 0
 102.330078125 195.259765625 99.2001953125 203.2578125 99.2001953125 212.995117188 c 0
 99.2001953125 216.739257812 99.6630859375 220.741210938 100.588867188 225 c 2
 100.588867188 229 l 2
 103.921875 243 111.421875 255 123.088867188 265 c 0
 134.755859375 275 149.922851562 280.666992188 168.58984375 282 c 0
 173.922851562 282 180.58984375 282.166992188 188.58984375 282.5 c 0
 196.58984375 282.833007812 202.58984375 283 206.58984375 283 c 2
 268.58984375 431 l 1
469.5859375 433.001953125 m 1
 385.5859375 433.001953125 l 1
 324.5859375 287.001953125 l 1
 410.5859375 287.001953125 l 1
 430.5859375 334.334960938 450.252929688 383.001953125 469.5859375 433.001953125 c 1
EndSplineSet
EndChar

StartChar: dollar
Encoding: 36 36 11
Width: 620
GlyphClass: 2
Flags: HMW
HStem: 623.002 101
VStem: 501.361 117.492
LayerCount: 2
Fore
SplineSet
311.850585938 -130 m 0
 297.517578125 -140 282.026367188 -144.999023438 265.359375 -144.999023438 c 2
 264.359375 -144.999023438 l 2
 247.692382812 -144.999023438 236.359375 -138.999023438 230.359375 -126.999023438 c 0
 227.63671875 -121.943359375 226.275390625 -115.866210938 226.275390625 -108.767578125 c 0
 226.275390625 -103.698242188 226.969726562 -98.1083984375 228.358398438 -91.998046875 c 0
 229.025390625 -88.6650390625 230.525390625 -82.83203125 232.858398438 -74.4990234375 c 0
 235.19140625 -66.166015625 239.024414062 -51.9990234375 244.357421875 -31.9990234375 c 1
 222.357421875 -31.33203125 201.357421875 -27.9990234375 181.357421875 -21.9990234375 c 0
 162.690429688 -16.666015625 146.690429688 -8.666015625 133.357421875 2.0009765625 c 0
 108.024414062 22.0009765625 92.0244140625 46.0009765625 85.357421875 74.0009765625 c 0
 83.8330078125 82.3818359375 83.0712890625 90.3271484375 83.0712890625 97.8369140625 c 0
 83.0712890625 103.469726562 83.5 108.857421875 84.357421875 114.000976562 c 0
 85.0244140625 118.000976562 86.357421875 121.66796875 88.357421875 125.000976562 c 0
 95.0244140625 139.66796875 106.024414062 150.66796875 121.357421875 158.000976562 c 0
 130.024414062 162.000976562 136.857421875 164.500976562 141.857421875 165.500976562 c 0
 146.857421875 166.500976562 150.857421875 167.000976562 153.857421875 167.000976562 c 2
 162.357421875 167.000976562 l 2
 169.690429688 166.333984375 175.857421875 163.000976562 180.857421875 157.000976562 c 0
 185.857421875 151.000976562 190.357421875 143.333984375 194.357421875 134.000976562 c 0
 202.357421875 115.333984375 213.024414062 100.666992188 226.357421875 90 c 0
 237.690429688 81.3330078125 252.690429688 76.3330078125 271.357421875 75 c 1
 295.357421875 174.333007812 316.690429688 263.666015625 335.357421875 342.999023438 c 1
 333.357421875 342.999023438 329.690429688 343.666015625 324.357421875 344.999023438 c 0
 321.024414062 345.666015625 316.357421875 345.999023438 310.357421875 345.999023438 c 0
 285.024414062 348.666015625 263.357421875 355.333007812 245.357421875 366 c 0
 228.690429688 376.666992188 215.857421875 389.333984375 206.857421875 404.000976562 c 0
 197.857421875 418.66796875 192.024414062 434.500976562 189.357421875 451.500976562 c 0
 188.291015625 458.30078125 187.756835938 465.07421875 187.756835938 471.8203125 c 0
 187.756835938 481.940429688 188.95703125 492.000976562 191.357421875 502.000976562 c 0
 197.357421875 526.66796875 206.524414062 550.334960938 218.857421875 573.001953125 c 0
 231.190429688 595.668945312 247.0234375 616.8359375 266.356445312 636.502929688 c 0
 285.689453125 656.169921875 309.356445312 673.002929688 337.356445312 687.002929688 c 0
 364.0234375 699.669921875 392.356445312 709.002929688 422.356445312 715.002929688 c 1
 425.689453125 728.3359375 429.689453125 744.002929688 434.356445312 762.002929688 c 0
 442.356445312 794.002929688 457.356445312 814.3359375 479.356445312 823.002929688 c 0
 486.689453125 825.669921875 495.356445312 827.002929688 505.356445312 827.002929688 c 0
 526.0234375 827.002929688 539.356445312 820.002929688 545.356445312 806.002929688 c 0
 547.869140625 800.259765625 549.125976562 793.645507812 549.125976562 786.163085938 c 0
 549.125976562 779.748046875 548.203125 772.694335938 546.356445312 765.001953125 c 0
 541.689453125 745.001953125 538.356445312 731.334960938 536.356445312 724.001953125 c 1
 550.356445312 722.668945312 568.689453125 719.001953125 591.356445312 713.001953125 c 0
 613.356445312 707.668945312 630.356445312 702.668945312 642.356445312 698.001953125 c 0
 655.689453125 692.668945312 664.022460938 683.668945312 667.35546875 671.001953125 c 0
 670.022460938 661.668945312 670.35546875 652.001953125 668.35546875 642.001953125 c 0
 667.688476562 638.668945312 666.688476562 635.001953125 665.35546875 631.001953125 c 0
 662.022460938 621.001953125 656.522460938 613.001953125 648.85546875 607.001953125 c 0
 641.188476562 601.001953125 633.021484375 597.334960938 624.354492188 596.001953125 c 0
 620.354492188 595.334960938 616.6875 595.001953125 613.354492188 595.001953125 c 0
 610.021484375 595.001953125 606.354492188 595.168945312 602.354492188 595.501953125 c 0
 598.354492188 595.834960938 593.6875 597.001953125 588.354492188 599.001953125 c 0
 581.6875 600.334960938 574.020507812 603.001953125 565.353515625 607.001953125 c 0
 549.353515625 615.668945312 531.686523438 621.001953125 512.353515625 623.001953125 c 1
 496.353515625 558.334960938 481.020507812 497.001953125 466.353515625 439.001953125 c 1
 493.020507812 434.334960938 517.353515625 427.334960938 539.353515625 418.001953125 c 0
 559.353515625 408.001953125 575.020507812 396.001953125 586.353515625 382.001953125 c 0
 597.686523438 368.001953125 606.01953125 352.168945312 611.352539062 334.501953125 c 0
 616.372070312 317.873046875 618.881835938 301.245117188 618.881835938 284.616210938 c 0
 618.881835938 270.657226562 617.295898438 250.924804688 611.352539062 228.000976562 c 0
 604.01953125 196.66796875 592.01953125 167.000976562 575.352539062 139.000976562 c 0
 558.685546875 111.000976562 539.018554688 86.66796875 516.3515625 66.0009765625 c 0
 493.684570312 45.333984375 468.3515625 27.6669921875 440.3515625 13 c 0
 413.684570312 -0.3330078125 386.017578125 -11 357.350585938 -19 c 1
 349.350585938 -53 344.68359375 -76 343.350585938 -88 c 0
 336.68359375 -106 326.18359375 -120 311.850585938 -130 c 0
343.359375 585.000976562 m 0
 324.692382812 569.66796875 312.692382812 551.666992188 307.359375 531 c 0
 306.359375 526.666992188 305.859375 522.4375 305.859375 518.3125 c 0
 305.859375 505.9375 310.359375 494.5 319.359375 484 c 0
 329.359375 472 343.359375 463 361.359375 457 c 1
 371.359375 498.333007812 384.026367188 551.333007812 399.359375 616 c 1
 378.026367188 608.666992188 359.359375 598.333984375 343.359375 585.000976562 c 0
452.359375 137 m 0
 476.359375 157.666992188 491.360351562 181.33203125 497.360351562 207.999023438 c 0
 500.02734375 219.999023438 501.360351562 230.33203125 501.360351562 238.999023438 c 0
 501.360351562 248.999023438 499.02734375 259.33203125 494.360351562 269.999023438 c 0
 487.02734375 288.666015625 468.02734375 304.333007812 437.360351562 317 c 1
 419.360351562 240.333007812 407.52734375 190.5 401.860351562 167.5 c 0
 396.193359375 144.5 390.026367188 119.666992188 383.359375 93 c 1
 409.359375 105 432.359375 119.666992188 452.359375 137 c 0
EndSplineSet
EndChar

StartChar: percent
Encoding: 37 37 12
Width: 620
GlyphClass: 2
Flags: HMW
HStem: -40.0059 100.999<409.881 456.881 422.881 456.881> 158.993 98<484.881 485.878> 420 98.9951<250.207 295.88> 607.994 97.0068<305.88 361.542>
VStem: 327.881 97.998<102.993 103.993 103.993 103.993> 344.881 101.995 506.879 96.002
LayerCount: 2
Fore
SplineSet
170.374023438 491.5 m 0xf6
 168.431640625 500.612304688 167.4609375 509.959960938 167.4609375 519.541015625 c 0
 167.4609375 531.338867188 168.932617188 543.4921875 171.875976562 556 c 0
 171.875976562 556.666992188 172.208984375 557.333984375 172.875976562 558.000976562 c 0
 182.875976562 600.000976562 202.708984375 635.000976562 232.375976562 663.000976562 c 0
 262.04296875 691.000976562 298.875976562 705.000976562 342.875976562 705.000976562 c 0
 380.208984375 705.000976562 408.875976562 693.000976562 428.875976562 669.000976562 c 0
 439.54296875 656.333984375 445.54296875 640.000976562 446.875976562 620.000976562 c 0
 447.171875 616.446289062 447.3203125 612.79296875 447.3203125 609.041015625 c 0
 447.3203125 595.904296875 445.504882812 581.557617188 441.875 566.000976562 c 0
 429.875 515.333984375 407.875 477.666992188 375.875 453 c 0
 347.208007812 431 309.541015625 420 262.874023438 420 c 0
 237.541015625 420 216.874023438 426.833007812 200.874023438 440.5 c 0
 184.874023438 454.166992188 174.70703125 471.166992188 170.374023438 491.5 c 0xf6
78.8759765625 -45 m 0
 71.54296875 -41 65.8798828125 -36.0048828125 61.8798828125 -30.0048828125 c 0
 57.212890625 -22.0048828125 56.212890625 -12.5048828125 58.8798828125 -1.5048828125 c 0
 61.546875 9.4951171875 67.546875 21.328125 76.8798828125 33.9951171875 c 0
 96.212890625 61.9951171875 140.545898438 120.328125 209.87890625 208.995117188 c 0
 356.545898438 387.662109375 429.87890625 477.329101562 429.87890625 477.99609375 c 0
 503.211914062 567.99609375 553.544921875 632.663085938 580.877929688 671.99609375 c 0
 594.2109375 685.99609375 609.2109375 694.99609375 625.877929688 698.99609375 c 2
 639.877929688 700.99609375 l 2
 649.877929688 700.99609375 658.544921875 698.329101562 665.877929688 692.99609375 c 0
 677.911132812 686.030273438 683.927734375 676.356445312 683.927734375 663.975585938 c 0
 683.927734375 659.627929688 683.447265625 656.840820312 682.877929688 653.997070312 c 0
 680.2109375 642.6640625 673.543945312 630.331054688 662.876953125 616.998046875 c 0
 630.876953125 577.665039062 549.876953125 477.33203125 419.876953125 315.999023438 c 0
 289.209960938 154.666015625 202.54296875 45.666015625 159.875976562 -11.0009765625 c 0
 139.701171875 -37.6826171875 120.162109375 -51.0234375 101.258789062 -51.0234375 c 0
 100.797851562 -51.0234375 100.336914062 -51.015625 99.8759765625 -51 c 0
 92.54296875 -51 85.54296875 -49 78.8759765625 -45 c 0
342.379882812 597.495117188 m 0
 336.712890625 604.495117188 326.546875 607.994140625 311.879882812 607.994140625 c 0
 299.879882812 607.994140625 290.546875 604.327148438 283.879882812 596.994140625 c 0
 275.212890625 588.327148438 268.212890625 576.327148438 262.879882812 560.994140625 c 0
 262.879882812 559.661132812 262.546875 558.328125 261.879882812 556.995117188 c 0
 259.212890625 544.995117188 259.712890625 535.995117188 263.379882812 529.995117188 c 0
 267.046875 523.995117188 277.546875 520.328125 294.879882812 518.995117188 c 2
 295.879882812 518.995117188 l 2
 307.879882812 518.995117188 317.546875 522.328125 324.879882812 528.995117188 c 0
 333.546875 536.995117188 340.213867188 547.662109375 344.880859375 560.995117188 c 0
 344.880859375 561.662109375 345.213867188 562.662109375 345.880859375 563.995117188 c 0
 347.115234375 569.673828125 347.732421875 574.780273438 347.732421875 579.31640625 c 0
 347.732421875 587.02734375 345.948242188 593.087890625 342.379882812 597.495117188 c 0
326.380859375 33.994140625 m 0
 324.108398438 43.69140625 322.971679688 53.6630859375 322.971679688 63.9111328125 c 0
 322.971679688 76.2080078125 324.608398438 88.90234375 327.880859375 101.993164062 c 1
 327.880859375 103.993164062 l 1xfa
 337.880859375 147.993164062 358.880859375 184.493164062 390.880859375 213.493164062 c 0
 422.880859375 242.493164062 461.880859375 256.993164062 507.880859375 256.993164062 c 0
 543.213867188 256.993164062 569.880859375 244.66015625 587.880859375 219.993164062 c 0
 597.213867188 206.66015625 602.213867188 189.327148438 602.880859375 167.994140625 c 0
 602.963867188 165.993164062 603.005859375 163.966796875 603.005859375 161.9140625 c 0
 603.005859375 147.549804688 600.963867188 131.909179688 596.880859375 114.994140625 c 0
 595.547851562 108.327148438 593.880859375 101.66015625 591.880859375 94.9931640625 c 0
 579.880859375 51.66015625 560.380859375 18.3271484375 533.380859375 -5.005859375 c 0
 506.380859375 -28.3388671875 471.213867188 -40.005859375 427.880859375 -40.005859375 c 2
 422.880859375 -40.005859375 l 2
 396.880859375 -40.005859375 375.547851562 -33.005859375 358.880859375 -19.005859375 c 0
 342.213867188 -5.005859375 331.380859375 12.6611328125 326.380859375 33.994140625 c 0
456.880859375 60.9931640625 m 2
 459.877929688 60.9921875 l 2
 471.2109375 60.9921875 480.2109375 64.3251953125 486.877929688 70.9921875 c 0
 495.544921875 79.6591796875 502.211914062 91.326171875 506.87890625 105.993164062 c 1
 506.87890625 108.993164062 l 2
 508.73046875 117.880859375 509.65625 125.53515625 509.65625 131.954101562 c 0
 509.65625 137.090820312 509.063476562 141.4375 507.877929688 144.993164062 c 0
 503.877929688 154.326171875 493.877929688 158.993164062 477.877929688 158.993164062 c 0
 465.877929688 158.993164062 455.877929688 154.66015625 447.877929688 145.993164062 c 0
 438.544921875 135.993164062 431.211914062 122.66015625 425.87890625 105.993164062 c 1
 425.87890625 102.993164062 l 2
 422.545898438 89.66015625 422.712890625 79.4931640625 426.379882812 72.4931640625 c 0
 430.046875 65.4931640625 440.213867188 61.66015625 456.880859375 60.9931640625 c 2
EndSplineSet
EndChar

StartChar: ampersand
Encoding: 38 38 13
Width: 620
GlyphClass: 2
Flags: HMW
HStem: -53.9971 117.999<223.213 276.88> 633.001 103.001<431.212 475.547>
LayerCount: 2
Fore
SplineSet
548.879882812 11 m 0
 548.212890625 7.6669921875 547.212890625 4.0009765625 545.879882812 0.0009765625 c 0
 538.546875 -23.33203125 527.546875 -38.6650390625 512.879882812 -45.998046875 c 0
 500.212890625 -50.6650390625 492.212890625 -52.998046875 488.879882812 -52.998046875 c 2
 487.879882812 -52.998046875 l 2
 479.879882812 -52.998046875 471.879882812 -50.3310546875 463.879882812 -44.998046875 c 0
 449.879882812 -36.3310546875 439.879882812 -21.3310546875 433.879882812 0.001953125 c 0
 433.212890625 3.3349609375 432.045898438 10.8349609375 430.37890625 22.501953125 c 2
 426.87890625 47.001953125 l 1
 418.87890625 38.3349609375 412.711914062 31.8349609375 408.37890625 27.501953125 c 0
 404.045898438 23.1689453125 397.212890625 16.8359375 387.879882812 8.5029296875 c 0
 378.546875 0.169921875 370.713867188 -6.330078125 364.380859375 -10.9970703125 c 0
 358.047851562 -15.6640625 349.547851562 -21.1640625 338.880859375 -27.4970703125 c 0
 328.213867188 -33.830078125 318.213867188 -38.4970703125 308.880859375 -41.4970703125 c 0
 299.547851562 -44.4970703125 289.047851562 -47.330078125 277.380859375 -49.9970703125 c 0
 265.713867188 -52.6640625 253.880859375 -53.9970703125 241.880859375 -53.9970703125 c 0
 204.547851562 -53.9970703125 173.047851562 -43.830078125 147.380859375 -23.4970703125 c 0
 121.713867188 -3.1640625 104.213867188 23.6689453125 94.880859375 57.001953125 c 0
 90.0419921875 74.28515625 87.6220703125 92.28515625 87.6220703125 111.002929688 c 0
 87.6220703125 128.383789062 89.708984375 146.383789062 93.8818359375 165.001953125 c 0
 107.21484375 223.001953125 128.881835938 272.668945312 158.881835938 314.001953125 c 0
 193.548828125 362.668945312 238.881835938 400.668945312 294.881835938 428.001953125 c 1
 284.881835938 455.501953125 l 2
 280.881835938 466.501953125 277.881835938 475.001953125 275.881835938 481.001953125 c 0
 273.881835938 487.001953125 271.71484375 494.834960938 269.381835938 504.501953125 c 0
 267.048828125 514.168945312 265.881835938 522.668945312 265.881835938 530.001953125 c 0
 265.881835938 550.001953125 268.21484375 569.668945312 272.881835938 589.001953125 c 0
 275.548828125 601.668945312 280.048828125 614.501953125 286.381835938 627.501953125 c 0
 292.71484375 640.501953125 301.381835938 653.668945312 312.381835938 667.001953125 c 0
 323.381835938 680.334960938 336.048828125 692.001953125 350.381835938 702.001953125 c 0
 364.71484375 712.001953125 381.881835938 720.168945312 401.881835938 726.501953125 c 0
 421.881835938 732.834960938 443.21484375 736.001953125 465.881835938 736.001953125 c 0
 485.21484375 736.001953125 503.381835938 732.668945312 520.381835938 726.001953125 c 0
 537.381835938 719.334960938 552.21484375 709.834960938 564.881835938 697.501953125 c 0
 577.548828125 685.168945312 586.048828125 668.668945312 590.381835938 648.001953125 c 0
 592.19921875 639.334960938 593.107421875 630.2578125 593.107421875 620.770507812 c 0
 593.107421875 607.633789062 591.365234375 593.7109375 587.881835938 579.001953125 c 0
 582.548828125 556.334960938 575.048828125 535.16796875 565.381835938 515.500976562 c 0
 555.71484375 495.833984375 545.21484375 479.333984375 533.881835938 466.000976562 c 0
 522.548828125 452.66796875 509.215820312 440.16796875 493.8828125 428.500976562 c 0
 478.549804688 416.833984375 465.716796875 408.000976562 455.383789062 402.000976562 c 0
 445.05078125 396.000976562 434.883789062 390.66796875 424.883789062 386.000976562 c 1
 431.55078125 366.000976562 441.55078125 340.833984375 454.883789062 310.500976562 c 0
 468.216796875 280.16796875 477.549804688 257.66796875 482.8828125 243.000976562 c 1
 485.549804688 247.000976562 489.549804688 253.16796875 494.8828125 261.500976562 c 0
 500.215820312 269.833984375 505.548828125 278.000976562 510.881835938 286.000976562 c 0
 516.21484375 294.000976562 520.547851562 300.000976562 523.880859375 304.000976562 c 0
 540.547851562 324.000976562 555.880859375 336.333984375 569.880859375 341.000976562 c 0
 575.213867188 343.000976562 580.546875 344.000976562 585.879882812 344.000976562 c 0
 594.546875 344.000976562 602.879882812 341.66796875 610.879882812 337.000976562 c 0
 622.340820312 330.366210938 628.071289062 319.091796875 628.071289062 303.178710938 c 0
 628.071289062 301.50390625 628.0078125 299.778320312 627.880859375 298.000976562 c 0
 627.880859375 294.000976562 627.213867188 290.000976562 625.880859375 286.000976562 c 0
 622.547851562 272.000976562 615.547851562 257.333984375 604.880859375 242.000976562 c 0
 600.213867188 235.333984375 588.213867188 222.166992188 568.880859375 202.5 c 0
 549.547851562 182.833007812 533.547851562 165.333007812 520.880859375 150 c 1
 524.880859375 138 530.047851562 121.166992188 536.380859375 99.5 c 0
 542.713867188 77.8330078125 546.546875 65 547.879882812 61 c 0
 550.392578125 52.384765625 551.649414062 43.576171875 551.649414062 34.57421875 c 0
 551.649414062 26.8583984375 550.7265625 19 548.879882812 11 c 0
379.879882812 572.000976562 m 0
 378.213867188 564.66796875 377.379882812 557.000976562 377.379882812 549.000976562 c 0
 377.379882812 541.001953125 378.213867188 532.668945312 379.879882812 524.001953125 c 0
 383.212890625 506.668945312 387.879882812 491.668945312 393.879882812 479.001953125 c 1
 405.212890625 482.334960938 415.212890625 486.16796875 423.879882812 490.500976562 c 0
 432.546875 494.833984375 441.379882812 500.333984375 450.379882812 507.000976562 c 0
 459.379882812 513.66796875 466.712890625 522.000976562 472.379882812 532.000976562 c 0
 478.046875 542.000976562 482.546875 554.333984375 485.879882812 569.000976562 c 0
 487.473632812 576.057617188 488.270507812 582.551757812 488.270507812 588.481445312 c 0
 488.270507812 599.916992188 485.306640625 609.256835938 479.379882812 616.500976562 c 0
 470.379882812 627.500976562 457.212890625 633.000976562 439.879882812 633.000976562 c 0
 422.546875 633.000976562 408.879882812 627.333984375 398.879882812 616.000976562 c 0
 390.879882812 606.000976562 384.546875 591.333984375 379.879882812 572.000976562 c 0
211.879882812 174.001953125 m 0
 208.947265625 161.203125 207.48046875 149.310546875 207.48046875 138.32421875 c 0
 207.48046875 121.842773438 210.780273438 107.40234375 217.380859375 95.001953125 c 0
 228.380859375 74.3349609375 245.880859375 64.001953125 269.880859375 64.001953125 c 0
 283.880859375 64.001953125 298.880859375 66.6689453125 314.880859375 72.001953125 c 0
 320.213867188 73.3349609375 326.380859375 76.3349609375 333.380859375 81.001953125 c 2
 349.880859375 92.001953125 l 2
 353.880859375 94.6689453125 358.880859375 99.001953125 364.880859375 105.001953125 c 0
 370.880859375 111.001953125 375.213867188 115.168945312 377.880859375 117.501953125 c 0
 380.547851562 119.834960938 383.880859375 123.501953125 387.880859375 128.501953125 c 0
 391.880859375 133.501953125 394.547851562 136.668945312 395.880859375 138.001953125 c 0
 391.880859375 158.001953125 387.880859375 176.001953125 383.880859375 192.001953125 c 0
 379.880859375 207.334960938 371.380859375 230.834960938 358.380859375 262.501953125 c 0
 345.380859375 294.168945312 335.880859375 318.001953125 329.880859375 334.001953125 c 1
 314.547851562 326.668945312 300.547851562 318.001953125 287.880859375 308.001953125 c 0
 273.213867188 296.001953125 261.046875 283.001953125 251.379882812 269.001953125 c 0
 241.712890625 255.001953125 233.712890625 240.334960938 227.379882812 225.001953125 c 0
 221.046875 209.668945312 215.879882812 192.668945312 211.879882812 174.001953125 c 0
EndSplineSet
EndChar

StartChar: quotesingle
Encoding: 39 39 14
Width: 620
GlyphClass: 2
Flags: W
LayerCount: 2
Fore
SplineSet
532.790039062 728 m 0
 530.790039062 719.333007812 527.790039062 705.833007812 523.790039062 687.5 c 0
 519.790039062 669.166992188 513.123046875 641.333984375 503.790039062 604.000976562 c 0
 489.123046875 546.000976562 477.790039062 506.000976562 469.790039062 484.000976562 c 0
 463.790039062 466.66796875 453.790039062 453.66796875 439.790039062 445.000976562 c 0
 427.790039062 437.66796875 416.123046875 434.000976562 404.790039062 434.000976562 c 0
 388.790039062 434.000976562 375.45703125 439.000976562 364.790039062 449.000976562 c 0
 358.256835938 455.534179688 354.990234375 463.701171875 354.990234375 473.500976562 c 0
 354.990234375 477.701171875 355.58984375 482.201171875 356.790039062 487.000976562 c 0
 356.790039062 489.000976562 357.45703125 491.000976562 358.790039062 493.000976562 c 0
 366.790039062 519.66796875 374.123046875 549.66796875 380.790039062 583.000976562 c 0
 391.45703125 630.333984375 402.124023438 680.000976562 412.791015625 732.000976562 c 1
 412.791015625 735.000976562 l 2
 414.791015625 744.333984375 418.791015625 752.666992188 424.791015625 760 c 0
 431.458007812 768.666992188 439.125 774.666992188 447.791992188 778 c 0
 459.791992188 782.666992188 471.791992188 785 483.791992188 785 c 0
 493.125 785 500.458007812 784 505.791015625 782 c 0
 511.124023438 780 516.45703125 777.333007812 521.790039062 774 c 0
 527.790039062 770 531.623046875 763.833007812 533.290039062 755.5 c 0
 534.95703125 747.166992188 534.790039062 738 532.790039062 728 c 0
EndSplineSet
EndChar

StartChar: parenleft
Encoding: 40 40 15
Width: 620
GlyphClass: 2
Flags: HMW
HStem: -144 109<350.999 405.662> 721 105<564.666 605.665>
LayerCount: 2
Fore
SplineSet
432.994140625 -93 m 0
 429.661132812 -107.666992188 421.666015625 -119.833007812 408.999023438 -129.5 c 0
 396.33203125 -139.166992188 384.33203125 -144 372.999023438 -144 c 0
 328.999023438 -144 292.999023438 -127 264.999023438 -93 c 0
 236.999023438 -59 218.83203125 -13 210.499023438 45 c 0
 206.844726562 70.4375 205.016601562 97.5419921875 205.016601562 126.314453125 c 0
 205.016601562 163.14453125 208.01171875 202.706054688 214 245 c 0
 216.666992188 265.666992188 221.666992188 291.5 229 322.5 c 0
 236.333007812 354.166992188 247 392.666992188 261 438 c 0
 285.666992188 517.333007812 313 582.333007812 343 633 c 0
 356.333007812 656.333007812 372.666015625 679 391.999023438 701 c 0
 411.33203125 723 431.999023438 743.5 453.999023438 762.5 c 0
 475.999023438 781.5 499.83203125 796.833007812 525.499023438 808.5 c 0
 551.166015625 820.166992188 574.999023438 826 596.999023438 826 c 0
 614.33203125 826 625.999023438 820.333007812 631.999023438 809 c 0
 634.721679688 803.944335938 636.083007812 797.75390625 636.083007812 790.428710938 c 0
 636.083007812 785.197265625 635.388671875 779.387695312 634 773 c 0
 630 755 621.666992188 741.666992188 609 733 c 0
 597.666992188 725 585.166992188 721 571.5 721 c 0
 557.833007812 721 543.666015625 716.5 528.999023438 707.5 c 0
 514.33203125 698.5 500.33203125 685.666992188 486.999023438 669 c 0
 459.666015625 637 435.666015625 597.333007812 414.999023438 550 c 0
 398.999023438 514.666992188 382.666015625 468 365.999023438 410 c 0
 357.33203125 379.333007812 350.165039062 351.833007812 344.498046875 327.5 c 0
 338.831054688 303.166992188 334.6640625 281.666992188 331.997070312 263 c 0
 326.854492188 228.713867188 324.283203125 195.286132812 324.283203125 162.71484375 c 0
 324.283203125 157.286132812 324.354492188 151.880859375 324.497070312 146.5 c 0
 325.497070312 108.833007812 329.6640625 76.8330078125 336.997070312 50.5 c 0
 344.330078125 24.1669921875 353.663085938 3 364.99609375 -13 c 0
 375.663085938 -27 386.663085938 -34.3330078125 397.99609375 -35 c 0
 413.329101562 -35 424.162109375 -39.3330078125 430.495117188 -48 c 0
 434.141601562 -52.990234375 435.963867188 -60.0791015625 435.963867188 -69.2666015625 c 0
 435.963867188 -76.0380859375 434.974609375 -83.94921875 432.994140625 -93 c 0
EndSplineSet
EndChar

StartChar: parenright
Encoding: 41 41 16
Width: 620
GlyphClass: 2
Flags: HMW
HStem: -144 108.998<192.233 196.9> 721 105<368.567 409.233>
VStem: 453.9 108.999
LayerCount: 2
Fore
SplineSet
174.900390625 -144 m 0
 163.567382812 -144 153.568359375 -139.169921875 144.901367188 -129.502929688 c 0
 138.641601562 -122.520507812 135.51171875 -114.234375 135.51171875 -104.64453125 c 0
 135.51171875 -100.95703125 135.974609375 -97.076171875 136.900390625 -93.001953125 c 0
 141.567382812 -71.6689453125 149.400390625 -56.6689453125 160.400390625 -48.001953125 c 0
 171.400390625 -39.3349609375 184.567382812 -35.001953125 199.900390625 -35.001953125 c 0
 211.233398438 -35.001953125 225.56640625 -27.6689453125 242.899414062 -13.001953125 c 0
 261.56640625 2.998046875 280.56640625 24.1650390625 299.899414062 50.498046875 c 0
 319.232421875 76.8310546875 338.232421875 108.998046875 356.899414062 146.998046875 c 0
 375.56640625 184.998046875 391.233398438 223.665039062 403.900390625 262.998046875 c 0
 409.900390625 282.998046875 415.567382812 304.831054688 420.900390625 328.498046875 c 0
 426.233398438 352.165039062 431.900390625 379.33203125 437.900390625 409.999023438 c 0
 448.567382812 468.666015625 453.900390625 515.333007812 453.900390625 550 c 0
 453.93359375 552.333984375 453.950195312 554.65234375 453.950195312 556.953125 c 0
 453.950195312 600.65234375 447.93359375 638.333984375 435.900390625 670 c 0
 429.900390625 686 421.733398438 698.5 411.400390625 707.5 c 0
 401.067382812 716.5 389.067382812 721 375.400390625 721 c 0
 361.733398438 721 350.900390625 725 342.900390625 733 c 0
 336.970703125 738.9296875 334.005859375 747.043945312 334.005859375 757.342773438 c 0
 334.005859375 762.096679688 334.63671875 767.315429688 335.900390625 773 c 0
 337.900390625 783 341.567382812 792 346.900390625 800 c 0
 352.233398438 808 358.56640625 814 365.899414062 818 c 0
 375.899414062 823.333007812 386.56640625 826 397.899414062 826 c 0
 420.56640625 826 441.899414062 820.166992188 461.899414062 808.5 c 0
 481.899414062 796.833007812 498.56640625 781.5 511.899414062 762.5 c 0
 525.232421875 743.5 536.399414062 723 545.399414062 701 c 0
 554.399414062 679 560.232421875 656.333007812 562.899414062 633 c 0
 564.9765625 615.231445312 566.014648438 595.825195312 566.014648438 574.78125 c 0
 566.014648438 535.030273438 562.309570312 489.436523438 554.899414062 438 c 0
 548.232421875 392 541.232421875 353.5 533.899414062 322.5 c 0
 526.56640625 291.5 519.56640625 265.666992188 512.899414062 245 c 0
 488.899414062 169.666992188 459.232421875 103 423.899414062 45 c 0
 388.56640625 -13 349.233398438 -59 305.900390625 -93 c 0
 262.567382812 -127 218.900390625 -144 174.900390625 -144 c 0
EndSplineSet
EndChar

StartChar: asterisk
Encoding: 42 42 17
Width: 620
GlyphClass: 2
Flags: HMW
HStem: 281.001 127.999<177.601 213.602> 289 119.001<571.934 601.6> 294 101.001
LayerCount: 2
Fore
SplineSet
249.6015625 102 m 2x20
 240.600585938 102.000976562 l 2
 236.600585938 102.000976562 231.43359375 102.66796875 225.100585938 104.000976562 c 0
 218.767578125 105.333984375 212.934570312 108.166992188 207.6015625 112.5 c 0
 202.268554688 116.833007812 197.935546875 122.833007812 194.602539062 130.5 c 0
 191.26953125 138.166992188 190.26953125 147.333984375 191.602539062 158.000976562 c 0
 191.602539062 160.000976562 191.935546875 162.66796875 192.602539062 166.000976562 c 0
 194.602539062 176.66796875 199.602539062 186.66796875 207.602539062 196.000976562 c 2
 278.602539062 285.000976562 l 1
 237.935546875 282.333984375 207.268554688 281.000976562 186.6015625 281.000976562 c 0
 168.6015625 281.000976562 155.6015625 287.66796875 147.6015625 301.000976562 c 0
 142.83984375 309.572265625 140.458984375 319.1640625 140.458984375 329.775390625 c 0
 140.458984375 334.020507812 140.83984375 338.4296875 141.6015625 343.000976562 c 2
 141.6015625 346.000976562 l 2
 144.268554688 359.333984375 150.935546875 372.666992188 161.602539062 386 c 0
 167.602539062 394 175.602539062 400 185.602539062 404 c 0
 192.935546875 407.333007812 200.935546875 409 209.602539062 409 c 2
 213.602539062 409 l 1
 214.602539062 409 l 2x80
 239.26953125 407 273.26953125 404.333007812 316.602539062 401 c 1
 303.935546875 439.666992188 292.935546875 470 283.602539062 492 c 0
 280.3203125 501.026367188 278.6796875 510.177734375 278.6796875 519.456054688 c 0
 278.6796875 525.254882812 279.3203125 531.102539062 280.602539062 537 c 0
 281.26953125 539.666992188 282.26953125 542.333984375 283.602539062 545.000976562 c 0
 290.26953125 563.66796875 300.602539062 576.66796875 314.602539062 584.000976562 c 0
 323.935546875 589.333984375 333.768554688 592.000976562 344.1015625 592.000976562 c 0
 354.434570312 592.000976562 363.934570312 589.000976562 372.6015625 583.000976562 c 0
 381.934570312 576.333984375 387.934570312 566.333984375 390.6015625 553.000976562 c 0
 393.268554688 539.000976562 400.935546875 507.333984375 413.602539062 458.000976562 c 1
 440.26953125 492.66796875 462.602539062 524.000976562 480.602539062 552.000976562 c 0
 489.26953125 564.66796875 499.26953125 574.16796875 510.602539062 580.500976562 c 0
 521.935546875 586.833984375 532.268554688 590.000976562 541.6015625 590.000976562 c 0
 551.6015625 590.000976562 559.934570312 587.333984375 566.6015625 582.000976562 c 0
 573.268554688 578.000976562 578.1015625 571.333984375 581.1015625 562.000976562 c 0
 582.689453125 557.059570312 583.484375 551.745117188 583.484375 546.055664062 c 0
 583.484375 541 582.856445312 535.647460938 581.6015625 530.000976562 c 0
 578.934570312 516.66796875 572.267578125 504.334960938 561.600585938 493.001953125 c 0
 538.267578125 466.334960938 512.600585938 433.66796875 484.600585938 395.000976562 c 1x20
 527.93359375 395.66796875 559.266601562 399.000976562 578.599609375 405.000976562 c 0
 587.266601562 407.000976562 592.93359375 408.000976562 595.600585938 408.000976562 c 0x40
 607.600585938 408.000976562 616.93359375 403.66796875 623.600585938 395.000976562 c 0x20
 631.100585938 385.500976562 634.850585938 375.4375 634.850585938 364.8125 c 0
 634.850585938 361.270507812 634.43359375 357.666992188 633.600585938 354 c 0
 630.267578125 339.333007812 623.600585938 325.333007812 613.600585938 312 c 0
 607.600585938 304 600.267578125 297.666992188 591.600585938 293 c 0
 585.600585938 290.333007812 579.600585938 289 573.600585938 289 c 0x40
 570.267578125 289 566.934570312 289.333007812 563.6015625 290 c 0
 548.934570312 292.666992188 521.934570312 294 482.6015625 294 c 2
 461.6015625 294 l 1
 492.6015625 196 l 2
 494.453125 187.852539062 495.37890625 180.116210938 495.37890625 172.791992188 c 0
 495.37890625 166.931640625 494.786132812 161.333984375 493.600585938 156 c 0
 492.93359375 153.333007812 491.93359375 150.666015625 490.600585938 147.999023438 c 0
 485.267578125 132.666015625 476.267578125 121.333007812 463.600585938 114 c 0
 452.93359375 108 441.266601562 105 428.599609375 105 c 0
 418.599609375 105 409.266601562 107.333007812 400.599609375 112 c 0
 389.266601562 118 383.266601562 128 382.599609375 142 c 0
 381.266601562 164 375.599609375 194.666992188 365.599609375 234 c 1
 331.599609375 184.666992188 309.599609375 151.666992188 299.599609375 135 c 0
 294.266601562 124.333007812 286.93359375 116.333007812 277.600585938 111 c 0
 268.267578125 105.666992188 258.934570312 102.666992188 249.6015625 102 c 2x20
EndSplineSet
EndChar

StartChar: plus
Encoding: 43 43 18
Width: 620
GlyphClass: 2
Flags: HMW
HStem: 346 106<523.682 529.682 523.682 523.682>
LayerCount: 2
Fore
SplineSet
433.682617188 348 m 1
 411.685546875 250 l 2
 407.018554688 230.666992188 399.518554688 217 389.185546875 209 c 0
 378.852539062 201 367.01953125 196.333007812 353.686523438 195 c 2
 352.686523438 195 l 2
 338.01953125 195 327.01953125 199 319.686523438 207 c 0
 313.747070312 212.939453125 310.77734375 220.903320312 310.77734375 230.892578125 c 0
 310.77734375 236.599609375 311.747070312 242.96875 313.686523438 249.999023438 c 2
 335.686523438 344.999023438 l 1
 252.686523438 343.999023438 l 2
 234.01953125 343.999023438 221.186523438 349.33203125 214.186523438 359.999023438 c 0
 209.444335938 367.224609375 207.07421875 375.369140625 207.07421875 384.430664062 c 0
 207.07421875 388.745117188 207.611328125 393.268554688 208.686523438 398 c 0
 208.686523438 398.666992188 209.01953125 400 209.686523438 402 c 0
 213.01953125 416 220.352539062 428.333007812 231.685546875 439 c 0
 243.018554688 449.666992188 257.3515625 455 274.684570312 455 c 0
 276.017578125 455 285.850585938 454.833007812 304.18359375 454.5 c 0
 322.516601562 454.166992188 341.349609375 453.666992188 360.682617188 453 c 1
 369.349609375 492.333007812 376.016601562 525.666015625 380.68359375 552.999023438 c 0
 384.68359375 571.666015625 393.68359375 585.333007812 407.68359375 594 c 0
 417.68359375 600.666992188 429.68359375 604 443.68359375 604 c 2
 447.68359375 604 l 2
 461.016601562 604 471.349609375 600.666992188 478.682617188 594 c 0
 484.31640625 588.799804688 487.1328125 581.487304688 487.1328125 572.0625 c 0
 487.1328125 566.987304688 486.31640625 561.299804688 484.682617188 555 c 0
 484.682617188 553 484.349609375 551 483.682617188 549 c 0
 473.682617188 515 465.349609375 482.666992188 458.682617188 452 c 1
 549.682617188 452 l 2
 567.682617188 452 579.349609375 447.333007812 584.682617188 438 c 0
 588.237304688 431.778320312 590.015625 424.51953125 590.015625 416.223632812 c 0
 590.015625 412.075195312 589.5703125 407.666992188 588.681640625 403 c 2
 588.681640625 402 l 2
 587.348632812 394.666992188 585.348632812 388.166992188 582.681640625 382.5 c 0
 580.014648438 376.833007812 576.34765625 371 571.680664062 365 c 0
 566.34765625 357.666992188 559.014648438 352.666992188 549.681640625 350 c 0
 543.681640625 348 537.014648438 346.666992188 529.681640625 346 c 2
 523.681640625 346 l 2
 514.348632812 346.666992188 501.015625 347.166992188 483.682617188 347.5 c 0
 466.349609375 347.833007812 449.682617188 348 433.682617188 348 c 1
EndSplineSet
EndChar

StartChar: comma
Encoding: 44 44 19
Width: 620
GlyphClass: 2
Flags: HMW
VStem: 161.631 279.998
LayerCount: 2
Fore
SplineSet
232.626953125 -223 m 0
 221.293945312 -227 211.963867188 -228.999023438 204.630859375 -228.999023438 c 0
 197.297851562 -228.999023438 191.297851562 -227.999023438 186.630859375 -225.999023438 c 0
 179.297851562 -223.33203125 173.130859375 -218.165039062 168.130859375 -210.498046875 c 0
 163.130859375 -202.831054688 160.963867188 -193.331054688 161.630859375 -181.998046875 c 0
 161.630859375 -179.998046875 161.963867188 -177.998046875 162.630859375 -175.998046875 c 0
 164.630859375 -165.998046875 170.297851562 -155.998046875 179.630859375 -145.998046875 c 0
 196.297851562 -127.331054688 223.630859375 -84.3310546875 261.630859375 -16.998046875 c 0
 299.630859375 49.6689453125 323.963867188 96.6689453125 334.630859375 124.001953125 c 0
 339.963867188 136.001953125 347.963867188 145.501953125 358.630859375 152.501953125 c 0
 369.297851562 159.501953125 379.630859375 163.001953125 389.630859375 163.001953125 c 0
 390.297851562 163.001953125 391.297851562 163.334960938 392.630859375 164.001953125 c 0
 399.963867188 164.001953125 407.296875 163.001953125 414.629882812 161.001953125 c 0
 425.962890625 157.001953125 434.295898438 149.334960938 439.62890625 138.001953125 c 0
 442.029296875 132.40234375 443.229492188 126.202148438 443.229492188 119.40234375 c 0
 443.229492188 114.869140625 442.6953125 110.068359375 441.62890625 105.001953125 c 0
 440.961914062 100.334960938 439.62890625 96.66796875 437.62890625 94.0009765625 c 0
 423.62890625 61.333984375 398.62890625 10.333984375 362.62890625 -58.9990234375 c 0
 325.961914062 -128.33203125 299.794921875 -171.33203125 284.127929688 -187.999023438 c 0
 268.4609375 -204.666015625 251.293945312 -216.333007812 232.626953125 -223 c 0
EndSplineSet
EndChar

StartChar: hyphen
Encoding: 45 45 20
Width: 620
GlyphClass: 2
Flags: HMW
HStem: 230.001 111.999<249.695 298.695> 234.501 109
VStem: 218.028 313.001<285 296.001>
LayerCount: 2
Fore
SplineSet
281.028320312 342 m 0xa0
 316.361328125 342 358.529296875 342.500976562 407.529296875 343.500976562 c 0
 456.529296875 344.500976562 484.362304688 345.000976562 491.029296875 345.000976562 c 0
 509.029296875 345.000976562 520.862304688 340.333984375 526.529296875 331.000976562 c 0
 530.3828125 324.654296875 532.309570312 317.229492188 532.309570312 308.724609375 c 0
 532.309570312 304.72265625 531.8828125 300.481445312 531.029296875 296.000976562 c 1
 530.029296875 295.000976562 l 1
 526.696289062 279.000976562 520.696289062 266.66796875 512.029296875 258.000976562 c 0
 500.029296875 245.333984375 485.029296875 239.000976562 467.029296875 239.000976562 c 0
 459.029296875 239.000976562 427.529296875 237.500976562 372.529296875 234.500976562 c 0x60
 317.529296875 231.500976562 279.029296875 230.000976562 257.029296875 230.000976562 c 0
 242.362304688 230.000976562 231.6953125 234.000976562 225.028320312 242.000976562 c 0
 219.098632812 248.38671875 216.133789062 257.11328125 216.133789062 268.1796875 c 0
 216.133789062 273.288085938 216.764648438 278.89453125 218.028320312 285 c 0
 218.028320312 286.333007812 218.361328125 288 219.028320312 290 c 0
 223.028320312 308.666992188 231.6953125 322.666992188 245.028320312 332 c 0
 255.028320312 338.666992188 267.028320312 342 281.028320312 342 c 0xa0
EndSplineSet
EndChar

StartChar: period
Encoding: 46 46 21
Width: 620
GlyphClass: 2
Flags: HMW
HStem: -26 178.002<285.56 361.893 296.56 361.893>
VStem: 236.56 175.5
LayerCount: 2
Fore
SplineSet
296.559570312 -26 m 2
 274.559570312 -26 257.892578125 -18 246.559570312 -2 c 0
 237.963867188 10.6669921875 233.666992188 24.71484375 233.666992188 40.14453125 c 0
 233.666992188 47.453125 234.630859375 55.072265625 236.559570312 63.0009765625 c 0
 242.559570312 87.66796875 256.559570312 108.334960938 278.559570312 125.001953125 c 0
 302.559570312 143.001953125 326.392578125 152.001953125 350.059570312 152.001953125 c 0
 373.7265625 152.001953125 391.2265625 144.001953125 402.559570312 128.001953125 c 0
 410.7109375 116.680664062 414.786132812 103.514648438 414.786132812 88.5029296875 c 0
 414.786132812 81.4130859375 413.876953125 73.9130859375 412.059570312 66.0009765625 c 0
 406.392578125 41.333984375 393.892578125 20.6669921875 374.559570312 4 c 0
 355.2265625 -12.6669921875 332.559570312 -22.6669921875 306.559570312 -26 c 2
 296.559570312 -26 l 2
EndSplineSet
EndChar

StartChar: slash
Encoding: 47 47 22
Width: 620
GlyphClass: 2
Flags: HMW
HStem: 746 20G<663.093 673.093>
LayerCount: 2
Fore
SplineSet
121.091796875 -67 m 0
 111.091796875 -71 101.760742188 -73.16796875 93.09375 -73.5009765625 c 0
 84.4267578125 -73.833984375 77.09375 -71.333984375 71.09375 -66.0009765625 c 0
 62.560546875 -59.6015625 58.2939453125 -48.5078125 58.2939453125 -32.7216796875 c 0
 58.2939453125 -28.775390625 58.560546875 -24.53515625 59.09375 -20.0009765625 c 0
 59.09375 -16.66796875 59.7607421875 -13.0009765625 61.09375 -9.0009765625 c 0
 65.09375 8.33203125 73.09375 24.9990234375 85.09375 40.9990234375 c 0
 212.426757812 200.999023438 322.759765625 342.999023438 416.092773438 466.999023438 c 0
 474.092773438 542.999023438 536.759765625 629.666015625 604.092773438 726.999023438 c 0
 612.759765625 739.666015625 623.092773438 749.333007812 635.092773438 756 c 0
 647.092773438 762.666992188 658.092773438 766 668.092773438 766 c 0
 678.092773438 766 687.42578125 763.666992188 696.092773438 759 c 0
 708.759765625 751 715.426757812 739 716.09375 723 c 0
 716.09375 718.333007812 715.426757812 713.333007812 714.09375 708 c 0
 711.426757812 696.666992188 705.759765625 684.333984375 697.092773438 671.000976562 c 0
 673.092773438 636.333984375 608.42578125 552.500976562 503.092773438 419.500976562 c 0
 397.759765625 286.500976562 333.092773438 204.000976562 309.092773438 172.000976562 c 0
 294.42578125 151.333984375 270.258789062 116.333984375 236.591796875 67.0009765625 c 0
 202.924804688 17.66796875 182.091796875 -12.33203125 174.091796875 -22.9990234375 c 0
 158.091796875 -43.666015625 140.424804688 -58.3330078125 121.091796875 -67 c 0
EndSplineSet
EndChar

StartChar: zero
Encoding: 48 48 23
Width: 620
GlyphClass: 2
Flags: HMW
HStem: -24 107.996<262.542 313.21> 611.997 106.003<434.877 507.544>
LayerCount: 2
Fore
SplineSet
657.2109375 491 m 0
 656.543945312 488.333007812 656.54296875 487.999023438 657.209960938 489.999023438 c 1
 651.209960938 450.666015625 643.54296875 410.666015625 634.209960938 369.999023438 c 0
 624.876953125 329.33203125 614.376953125 289.33203125 602.709960938 249.999023438 c 0
 591.04296875 210.666015625 579.875976562 179.666015625 569.208984375 156.999023438 c 0
 548.541992188 114.33203125 526.541992188 79.6650390625 503.208984375 52.998046875 c 0
 491.875976562 39.6650390625 479.54296875 28.33203125 466.209960938 18.9990234375 c 0
 452.876953125 9.666015625 439.876953125 2.3330078125 427.209960938 -3 c 0
 413.876953125 -8.3330078125 398.876953125 -13 382.209960938 -17 c 0
 365.54296875 -20.3330078125 349.375976562 -22.3330078125 333.708984375 -23 c 0
 318.041992188 -23.6669921875 299.875 -24 279.208007812 -24 c 0
 245.875 -24 216.208007812 -18.3330078125 190.208007812 -7 c 0
 166.208007812 4.3330078125 147.208007812 20.5 133.208007812 41.5 c 0
 119.208007812 62.5 110.708007812 87.6669921875 107.708007812 117 c 0
 106.889648438 125 106.48046875 133.173828125 106.48046875 141.520507812 c 0
 106.48046875 163.779296875 109.389648438 187.272460938 115.208007812 212 c 0
 115.208007812 214 115.541015625 216 116.208007812 218 c 0
 123.541015625 250 130.541015625 280.666992188 137.208007812 310 c 0
 141.875 330.666992188 148.041992188 356 155.708984375 386 c 0
 163.375976562 416 170.54296875 440.833007812 177.209960938 460.5 c 0
 183.876953125 480.166992188 192.209960938 501.333984375 202.209960938 524.000976562 c 0
 212.209960938 547.333984375 222.209960938 567.666992188 232.209960938 585 c 0
 258.209960938 628.333007812 292.876953125 661.333007812 336.209960938 684 c 0
 382.876953125 706.666992188 435.209960938 718 493.209960938 718 c 0
 521.876953125 718 547.876953125 713.333007812 571.209960938 704 c 0
 593.876953125 694.666992188 612.543945312 680.666992188 627.2109375 662 c 0
 641.877929688 643.333007812 651.877929688 619.5 657.2109375 590.5 c 0
 659.876953125 576 661.2109375 560.458007812 661.2109375 543.875 c 0
 661.2109375 527.291015625 659.876953125 509.666015625 657.2109375 491 c 0
502.209960938 599.999023438 m 0
 489.2109375 608.046875 473.912109375 612.068359375 456.315429688 612.068359375 c 0
 454.959960938 612.068359375 453.591796875 612.044921875 452.209960938 611.997070312 c 0
 417.54296875 611.997070312 388.709960938 602.830078125 365.709960938 584.497070312 c 0
 342.709960938 566.1640625 320.876953125 534.997070312 300.209960938 490.997070312 c 0
 292.209960938 473.6640625 284.876953125 455.331054688 278.209960938 435.998046875 c 0
 272.209960938 416.665039062 266.54296875 393.998046875 261.209960938 367.998046875 c 0
 251.876953125 327.998046875 241.876953125 281.665039062 231.209960938 228.998046875 c 1
 337.876953125 339.665039062 437.876953125 453.33203125 531.209960938 569.999023438 c 1
 523.876953125 582.666015625 514.209960938 592.666015625 502.209960938 599.999023438 c 0
542.209960938 457.997070312 m 1
 444.876953125 330.6640625 341.876953125 221.99609375 233.209960938 131.99609375 c 1
 242.54296875 100.663085938 266.209960938 84.6630859375 304.209960938 83.99609375 c 0
 322.209960938 83.99609375 338.04296875 85.49609375 351.709960938 88.49609375 c 0
 365.376953125 91.49609375 378.876953125 96.3291015625 392.209960938 102.99609375 c 0
 418.876953125 116.99609375 442.876953125 143.99609375 464.209960938 183.99609375 c 0
 468.209960938 191.99609375 475.876953125 213.329101562 487.209960938 247.99609375 c 0
 498.54296875 282.663085938 510.209960938 323.330078125 522.209960938 369.997070312 c 0
 530.209960938 400.6640625 536.876953125 429.997070312 542.209960938 457.997070312 c 1
EndSplineSet
EndChar

StartChar: one
Encoding: 49 49 24
Width: 620
GlyphClass: 2
Flags: HMW
HStem: -9 111 -5 114<101.364 151.363>
LayerCount: 2
Fore
SplineSet
70.033203125 33 m 0x40
 70.033203125 38 71.033203125 43 72.033203125 49 c 0
 72.033203125 50 72.033203125 52 73.033203125 53 c 0
 76.033203125 68 83.033203125 80 92.033203125 91 c 0
 104.033203125 103 119.033203125 109 138.033203125 109 c 0x40
 165.033203125 109 211.033203125 108 276.033203125 107 c 1
 281.033203125 126 284.033203125 143 286.033203125 157 c 0
 287.033203125 163 290.033203125 180 297.033203125 208 c 0
 303.033203125 233 308.033203125 254 313.033203125 271 c 2
 341.033203125 379 l 2
 368.033203125 480 384.033203125 539 389.033203125 556 c 1
 342.033203125 526 308.033203125 507 285.033203125 499 c 0
 277.033203125 497 272.033203125 496 269.033203125 496 c 0
 258.033203125 496 247.033203125 501 238.033203125 511 c 0
 229.033203125 521 224.033203125 532 224.033203125 542 c 0
 224.033203125 545 225.033203125 548 226.033203125 552 c 0
 229.033203125 565 234.033203125 577 242.033203125 587 c 0
 250.033203125 597 261.033203125 607 275.033203125 616 c 0
 296.033203125 630 323.033203125 649 358.033203125 672 c 1
 370.033203125 674 384.033203125 683 399.033203125 699 c 0
 411.033203125 707 424.033203125 714 437.033203125 721 c 0
 449.033203125 727 459.033203125 730 468.033203125 730 c 2
 471.033203125 730 l 2
 488.033203125 730 504.033203125 723 519.033203125 710 c 0
 527.033203125 703 532.033203125 696 535.033203125 690 c 0
 536.033203125 688 537.033203125 686 537.033203125 683 c 0
 537.033203125 672 529.033203125 643 494.033203125 514 c 0
 470.033203125 424 456.033203125 371 452.033203125 356 c 0
 437.033203125 294 426.033203125 242 417.033203125 200 c 2
 417.033203125 200 416.033203125 198 416.033203125 195 c 0
 411.033203125 173 405.033203125 142 397.033203125 103 c 1
 430.033203125 102 451.033203125 102 460.033203125 102 c 2
 495.033203125 102 l 2
 510.033203125 102 519.033203125 101 523.033203125 101 c 0
 544.033203125 101 557.033203125 97 564.033203125 87 c 0
 569.033203125 80 571.033203125 71 571.033203125 62 c 0
 571.033203125 58 571.033203125 54 570.033203125 50 c 0
 570.033203125 49 570.033203125 48 569.033203125 47 c 0
 566.033203125 32 558.033203125 19 547.033203125 8 c 0
 535.033203125 -3 518.033203125 -9 497.033203125 -9 c 0x80
 262.033203125 -7 133.033203125 -6 110.033203125 -5 c 0
 93.033203125 -5 81.033203125 0 75.033203125 11 c 0
 72.033203125 18 70.033203125 25 70.033203125 33 c 0x40
EndSplineSet
EndChar

StartChar: two
Encoding: 50 50 25
Width: 620
GlyphClass: 2
Flags: HMW
HStem: -20.0059 113.005 -12.0059 113.006<503.61 503.61 503.61 509.604> 506.997 21G<255.269 258.602> 612.996 109.001<462.272 471.604>
LayerCount: 2
Fore
SplineSet
503.610351562 101 m 1x70
 504.603515625 100.993164062 l 1
 513.270507812 109.66015625 519.603515625 109.993164062 523.603515625 101.993164062 c 0
 525.603515625 101.993164062 529.270507812 101.826171875 534.603515625 101.493164062 c 0
 539.936523438 101.16015625 543.936523438 100.16015625 546.603515625 98.4931640625 c 0
 549.270507812 96.826171875 551.9375 94.9931640625 554.604492188 92.9931640625 c 0
 558.604492188 90.326171875 561.271484375 86.326171875 562.604492188 80.9931640625 c 0
 563.9375 72.9931640625 563.604492188 63.66015625 561.604492188 52.9931640625 c 0
 556.9375 33.66015625 548.604492188 17.3271484375 536.604492188 3.994140625 c 0
 526.604492188 -6.6728515625 515.604492188 -12.005859375 503.604492188 -12.005859375 c 0x70
 460.271484375 -12.005859375 389.271484375 -14.005859375 290.604492188 -18.005859375 c 0
 257.271484375 -19.3388671875 223.271484375 -20.005859375 188.604492188 -20.005859375 c 0
 156.604492188 -20.005859375 131.604492188 -18.6728515625 113.604492188 -16.005859375 c 0
 103.604492188 -14.6728515625 95.9375 -10.33984375 90.6044921875 -3.0068359375 c 0
 86.6044921875 2.326171875 83.9375 9.326171875 82.6044921875 17.9931640625 c 0
 82.16015625 21.8447265625 81.9375 26.0263671875 81.9375 30.5361328125 c 0
 81.9375 46.322265625 84.66015625 66.140625 90.1044921875 89.9931640625 c 0
 97.1044921875 120.66015625 110.271484375 151.493164062 129.604492188 182.493164062 c 0
 148.9375 213.493164062 173.604492188 243.66015625 203.604492188 272.993164062 c 0
 233.604492188 302.326171875 267.271484375 325.993164062 304.604492188 343.993164062 c 0
 385.9375 382.66015625 438.604492188 409.327148438 462.604492188 423.994140625 c 0
 492.604492188 442.661132812 513.271484375 462.328125 524.604492188 482.995117188 c 0
 531.271484375 495.662109375 536.604492188 511.329101562 540.604492188 529.99609375 c 0
 542.754882812 539.458007812 543.830078125 548.053710938 543.830078125 555.78125 c 0
 543.830078125 572.010742188 539.087890625 584.415039062 529.604492188 592.99609375 c 0
 514.9375 606.329101562 489.604492188 612.99609375 453.604492188 612.99609375 c 0
 429.604492188 612.99609375 404.771484375 605.663085938 379.104492188 590.99609375 c 0
 353.4375 576.329101562 332.270507812 559.99609375 315.603515625 541.99609375 c 0
 306.936523438 532.663085938 298.76953125 524.830078125 291.102539062 518.497070312 c 0
 283.435546875 512.1640625 275.602539062 508.6640625 267.602539062 507.997070312 c 0
 265.602539062 507.997070312 262.602539062 507.6640625 258.602539062 506.997070312 c 0
 251.935546875 506.997070312 242.935546875 510.330078125 231.602539062 516.997070312 c 0
 219.602539062 524.997070312 213.26953125 536.330078125 212.602539062 550.997070312 c 0
 212.602539062 554.330078125 212.935546875 557.997070312 213.602539062 561.997070312 c 0
 216.26953125 573.997070312 222.936523438 587.6640625 233.603515625 602.997070312 c 0
 243.603515625 616.997070312 256.603515625 630.830078125 272.603515625 644.497070312 c 0
 288.603515625 658.1640625 306.603515625 670.997070312 326.603515625 682.997070312 c 0
 347.270507812 694.997070312 370.9375 704.497070312 397.604492188 711.497070312 c 0
 424.271484375 718.497070312 449.938476562 721.997070312 474.60546875 721.997070312 c 0
 551.272460938 721.997070312 604.60546875 704.997070312 634.60546875 670.997070312 c 0
 653.5859375 648.997070312 663.076171875 619.87890625 663.076171875 583.643554688 c 0
 663.076171875 563.87890625 660.252929688 541.997070312 654.60546875 517.997070312 c 0
 641.272460938 462.6640625 616.939453125 417.331054688 581.606445312 381.998046875 c 0
 555.606445312 357.331054688 512.2734375 330.331054688 451.606445312 300.998046875 c 0
 436.2734375 293.665039062 409.940429688 281.665039062 372.607421875 264.998046875 c 0
 341.274414062 250.998046875 313.94140625 233.831054688 290.608398438 213.498046875 c 0
 267.275390625 193.165039062 248.942382812 172.33203125 235.609375 150.999023438 c 0
 224.276367188 132.999023438 215.276367188 113.666015625 208.609375 92.9990234375 c 1xb0
 244.609375 91.666015625 278.942382812 90.8330078125 311.609375 90.5 c 0
 318.138671875 90.43359375 324.388671875 90.400390625 330.359375 90.400390625 c 0
 354.2578125 90.400390625 373.674804688 90.93359375 388.610351562 92 c 0
 406.610351562 93.3330078125 444.943359375 96.3330078125 503.610351562 101 c 1x70
EndSplineSet
EndChar

StartChar: three
Encoding: 51 51 26
Width: 620
GlyphClass: 2
Flags: HMW
HStem: -23.998 107.998<277.704 338.04> 306 125<325.373 331.039> 521.001 21G<260.707 267.374> 613 109.001<424.375 492.374>
VStem: 528.374 115<522.002 538.333>
LayerCount: 2
Fore
SplineSet
597.373046875 279.5 m 0
 597.833984375 274.501953125 598.065429688 269.318359375 598.065429688 263.948242188 c 0
 598.065429688 246.037109375 595.499023438 226.055664062 590.370117188 204.000976562 c 0
 574.370117188 134.000976562 540.703125 78.333984375 489.370117188 37.0009765625 c 0
 438.196289062 -3.67578125 373.140625 -24.013671875 294.202148438 -24.013671875 c 0
 292.928710938 -24.013671875 291.651367188 -24.0087890625 290.370117188 -23.998046875 c 0
 265.037109375 -23.998046875 240.704101562 -20.3310546875 217.37109375 -12.998046875 c 0
 194.038085938 -5.6650390625 175.205078125 3.66796875 160.872070312 15.0009765625 c 0
 146.5390625 26.333984375 134.706054688 39.0009765625 125.373046875 53.0009765625 c 0
 115.373046875 67.0009765625 108.706054688 80.833984375 105.373046875 94.5009765625 c 0
 103.521484375 102.092773438 102.595703125 109.427734375 102.595703125 116.504882812 c 0
 102.595703125 122.16796875 103.188476562 127.666992188 104.374023438 133.000976562 c 0
 105.041015625 137.000976562 106.374023438 141.000976562 108.374023438 145.000976562 c 0
 115.041015625 161.000976562 126.041015625 172.66796875 141.374023438 180.000976562 c 0
 152.70703125 185.333984375 162.70703125 188 171.374023438 188 c 0
 190.041015625 188 204.374023438 177.333984375 214.374023438 156.000976562 c 0
 223.70703125 137.333984375 237.540039062 120.666992188 255.873046875 106 c 0
 274.206054688 91.3330078125 295.373046875 84 319.373046875 84 c 0
 356.706054688 84 389.5390625 93.8330078125 417.872070312 113.5 c 0
 446.205078125 133.166992188 464.038085938 158 471.37109375 188 c 0
 474.09375 199.278320312 475.455078125 209.592773438 475.455078125 218.942382812 c 0
 475.455078125 225.620117188 474.760742188 231.805664062 473.372070312 237.5 c 0
 470.0390625 251.166992188 462.872070312 263.166992188 451.872070312 273.5 c 0
 440.872070312 283.833007812 423.872070312 291.833007812 400.872070312 297.5 c 0
 377.872070312 303.166992188 348.705078125 306 313.372070312 306 c 0
 296.0390625 306 282.706054688 312.666992188 273.373046875 326 c 0
 266.83984375 335.333007812 263.573242188 345.483398438 263.573242188 356.450195312 c 0
 263.573242188 361.150390625 264.172851562 366 265.373046875 371 c 0
 269.373046875 387.666992188 277.040039062 401.666992188 288.373046875 413 c 0
 301.040039062 425 316.373046875 431 334.373046875 431 c 0
 389.040039062 431 433.70703125 440.666992188 468.374023438 460 c 0
 500.374023438 478 520.374023438 504 528.374023438 538 c 0
 528.374023438 538.609375 528.651367188 539.495117188 529.208007812 540.66015625 c 0
 529.2578125 541.064453125 529.3125 541.510742188 529.374023438 541.999023438 c 0
 529.374023438 543.33203125 529.70703125 544.33203125 530.374023438 544.999023438 c 0
 531.75 550.848632812 532.438476562 556.297851562 532.438476562 561.348632812 c 0
 532.438476562 575.868164062 526.75 587.0859375 515.374023438 595 c 0
 498.908203125 607.033203125 472.514648438 613.049804688 436.1953125 613.049804688 c 0
 434.282226562 613.049804688 432.342773438 613.033203125 430.375 613 c 0
 418.375 613 405.375 611 391.375 607 c 0
 387.375 605.666992188 382.375 603.166992188 376.375 599.5 c 0
 370.375 595.833007812 365.708007812 592.833007812 362.375 590.5 c 0
 359.041992188 588.166992188 354.375 584.333984375 348.375 579.000976562 c 0
 342.375 573.66796875 338.375 569.66796875 336.375 567.000976562 c 0
 329.708007812 553.66796875 325.041015625 549.000976562 322.374023438 553.000976562 c 1
 306.374023438 536.333984375 291.374023438 526.000976562 277.374023438 522.000976562 c 0
 273.374023438 521.333984375 269.373046875 521.000976562 265.373046875 521.000976562 c 0
 256.040039062 521.000976562 246.708007812 523.66796875 237.375 529.000976562 c 0
 226.575195312 535.600585938 221.174804688 545.7109375 221.174804688 559.33203125 c 0
 221.174804688 559.499023438 221.229492188 569.130859375 222.375 576.000976562 c 0
 225.041992188 588.000976562 231.375 601.000976562 241.375 615.000976562 c 0
 261.375 643.000976562 287.041992188 667.333984375 318.375 688.000976562 c 0
 335.041992188 698.66796875 355.041992188 707.000976562 378.375 713.000976562 c 0
 401.708007812 719.000976562 426.041015625 722.000976562 451.374023438 722.000976562 c 0
 533.374023438 722.000976562 590.041015625 705.66796875 621.374023438 673.000976562 c 0
 641.828125 650.728515625 652.055664062 621.482421875 652.055664062 585.262695312 c 0
 652.055664062 568.360351562 649.828125 549.939453125 645.374023438 530 c 0
 645.374023438 528.666992188 645.041015625 527.333984375 644.374023438 526.000976562 c 0
 643.70703125 524.66796875 643.374023438 523.333984375 643.374023438 522.000976562 c 0
 639.374023438 503.333984375 632.874023438 486.001953125 623.874023438 470.001953125 c 0
 614.874023438 454.001953125 604.541015625 440.334960938 592.874023438 429.001953125 c 0
 581.20703125 417.668945312 568.20703125 407.668945312 553.874023438 399.001953125 c 0
 539.541015625 390.334960938 525.041015625 383.66796875 510.374023438 379.000976562 c 1
 519.70703125 375.66796875 528.040039062 372.334960938 535.373046875 369.001953125 c 0
 552.040039062 360.334960938 566.040039062 348.66796875 577.373046875 334.000976562 c 0
 588.706054688 319.333984375 595.373046875 301.166992188 597.373046875 279.5 c 0
EndSplineSet
EndChar

StartChar: four
Encoding: 52 52 27
Width: 620
GlyphClass: 2
Flags: HMW
HStem: -23.001 21G<421.192 435.859> 218.998 90.002<382.858 383.859 383.859 425.859>
LayerCount: 2
Fore
SplineSet
382.858398438 309 m 2
 445.857421875 309 l 1
 472.524414062 424.333007812 492.19140625 517.666015625 504.858398438 588.999023438 c 1
 389.525390625 469.666015625 306.858398438 375.333007812 256.858398438 306 c 1
 291.525390625 308 333.525390625 309 382.858398438 309 c 2
487.857421875 60 m 0
 487.857421875 52 486.859375 44.33203125 484.859375 36.9990234375 c 0
 482.192382812 23.666015625 477.192382812 11.9990234375 469.859375 1.9990234375 c 0
 457.859375 -14.66796875 443.859375 -23.0009765625 427.859375 -23.0009765625 c 0
 414.526367188 -23.0009765625 402.859375 -17.833984375 392.859375 -7.5009765625 c 0
 384.526367188 1.109375 380.359375 10.068359375 380.359375 19.373046875 c 0
 380.359375 21.234375 380.526367188 23.109375 380.859375 24.998046875 c 0
 382.192382812 32.998046875 384.859375 45.6650390625 388.859375 62.998046875 c 2
 406.859375 138.998046875 l 2
 413.526367188 166.331054688 419.859375 192.998046875 425.859375 218.998046875 c 1
 383.859375 218.998046875 l 2
 291.859375 218.998046875 225.859375 214.665039062 185.859375 205.998046875 c 0
 181.192382812 205.331054688 176.359375 204.998046875 171.359375 204.998046875 c 0
 166.359375 204.998046875 161.859375 205.998046875 157.859375 207.998046875 c 0
 149.859375 211.331054688 144.026367188 216.331054688 140.359375 222.998046875 c 0
 136.692382812 229.665039062 134.525390625 237.498046875 133.858398438 246.498046875 c 0
 133.19140625 255.498046875 133.858398438 264.665039062 135.858398438 273.998046875 c 0
 138.525390625 284.665039062 142.525390625 294.665039062 147.858398438 303.998046875 c 0
 158.525390625 323.331054688 182.358398438 353.831054688 219.358398438 395.498046875 c 0
 256.358398438 437.165039062 304.19140625 488.998046875 362.858398438 550.998046875 c 0
 414.858398438 605.665039062 456.858398438 650.665039062 488.858398438 685.998046875 c 0
 500.858398438 698.665039062 513.19140625 708.33203125 525.858398438 714.999023438 c 0
 538.525390625 721.666015625 549.858398438 724.999023438 559.858398438 724.999023438 c 0
 563.19140625 724.999023438 565.524414062 725.33203125 566.857421875 725.999023438 c 0
 578.190429688 725.999023438 587.857421875 723.33203125 595.857421875 717.999023438 c 0
 605.232421875 711.749023438 609.919921875 701.397460938 609.919921875 686.9453125 c 0
 609.919921875 682.481445312 608.947265625 654.850585938 594.357421875 576.5 c 0
 585.357421875 528.166992188 577.190429688 487.666992188 569.857421875 455 c 0
 559.190429688 405.666992188 548.857421875 356.666992188 538.857421875 308 c 1
 548.190429688 308 558.5234375 307.666992188 569.856445312 307 c 0
 585.856445312 307 596.189453125 303.166992188 600.856445312 295.5 c 0
 605.5234375 287.833007812 606.5234375 278 603.856445312 266 c 0
 600.5234375 252 595.190429688 240.666992188 587.857421875 232 c 0
 577.857421875 222 564.857421875 217 548.857421875 217 c 0
 538.190429688 217 528.190429688 217.333007812 518.857421875 218 c 1
 498.190429688 126 487.857421875 73.3330078125 487.857421875 60 c 0
EndSplineSet
EndChar

StartChar: five
Encoding: 53 53 28
Width: 620
GlyphClass: 2
Flags: HMW
HStem: -18.002 109.001<279.247 307.248> 407.998 112.999<420.248 496.247> 594.998 112.999<629.579 669.242> 605.998 103.999
LayerCount: 2
Fore
SplineSet
207.248046875 561 m 0xd0
 213.248046875 581.666992188 217.576171875 596.997070312 220.243164062 606.997070312 c 1
 218.243164062 612.997070312 217.243164062 619.497070312 217.243164062 626.497070312 c 0
 217.243164062 633.497070312 218.243164062 640.997070312 220.243164062 648.997070312 c 0
 224.91015625 670.330078125 234.91015625 686.997070312 250.243164062 698.997070312 c 0
 260.91015625 707.6640625 272.243164062 711.997070312 284.243164062 711.997070312 c 0
 307.576171875 711.997070312 364.909179688 711.330078125 456.2421875 709.997070312 c 0xd0
 549.575195312 708.6640625 618.575195312 707.997070312 663.2421875 707.997070312 c 0
 675.2421875 707.997070312 683.575195312 702.6640625 688.2421875 691.997070312 c 0
 691.6171875 684.497070312 693.3046875 676.047851562 693.3046875 666.649414062 c 0
 693.3046875 659.33984375 692.284179688 651.456054688 690.2421875 642.998046875 c 0
 685.575195312 623.665039062 677.2421875 610.665039062 665.2421875 603.998046875 c 0
 661.909179688 601.998046875 658.576171875 600.165039062 655.243164062 598.498046875 c 0
 651.91015625 596.831054688 647.577148438 595.831054688 642.244140625 595.498046875 c 0
 636.911132812 595.165039062 633.078125 594.998046875 630.745117188 594.998046875 c 0xe0
 628.412109375 594.998046875 625.079101562 595.165039062 620.74609375 595.498046875 c 0
 616.413085938 595.831054688 613.580078125 595.998046875 612.247070312 595.998046875 c 0
 603.580078125 595.998046875 587.580078125 597.331054688 564.247070312 599.998046875 c 0
 540.247070312 601.998046875 518.9140625 603.498046875 500.247070312 604.498046875 c 0
 481.580078125 605.498046875 456.247070312 605.998046875 424.247070312 605.998046875 c 0
 392.247070312 605.998046875 359.9140625 604.998046875 327.247070312 602.998046875 c 1
 313.247070312 552.998046875 304.9140625 522.998046875 302.247070312 512.998046875 c 0
 299.580078125 500.998046875 297.580078125 492.331054688 296.247070312 486.998046875 c 0
 294.9140625 481.665039062 293.247070312 474.665039062 291.247070312 465.998046875 c 1
 311.247070312 479.331054688 334.247070312 490.6640625 360.247070312 499.997070312 c 0
 397.580078125 513.997070312 437.580078125 520.997070312 480.247070312 520.997070312 c 0
 512.247070312 520.997070312 539.580078125 515.330078125 562.247070312 503.997070312 c 0
 582.9140625 491.997070312 598.747070312 475.997070312 609.747070312 455.997070312 c 0
 620.747070312 435.997070312 627.247070312 412.830078125 629.247070312 386.497070312 c 0
 629.67578125 380.854492188 629.889648438 375.112304688 629.889648438 369.271484375 c 0
 629.889648438 347.850585938 627.008789062 325.092773438 621.247070312 300.997070312 c 0
 609.9140625 251.6640625 593.581054688 206.831054688 572.248046875 166.498046875 c 0
 550.915039062 126.165039062 526.248046875 92.498046875 498.248046875 65.498046875 c 0
 470.248046875 38.498046875 438.248046875 17.6650390625 402.248046875 2.998046875 c 0
 365.581054688 -11.001953125 327.248046875 -18.001953125 287.248046875 -18.001953125 c 0
 256.581054688 -18.001953125 228.9140625 -14.6689453125 204.247070312 -8.001953125 c 0
 179.580078125 -1.3349609375 160.247070312 7.33203125 146.247070312 17.9990234375 c 0
 132.247070312 28.666015625 121.247070312 40.3330078125 113.247070312 53 c 0
 105.247070312 65.6669921875 99.2470703125 79 95.2470703125 93 c 0
 93.9140625 100.666015625 93.2470703125 107.916015625 93.2470703125 114.75 c 0
 93.2470703125 121.583007812 93.9140625 128 95.2470703125 134 c 0
 95.9140625 138 96.9140625 142 98.2470703125 146 c 0
 104.9140625 160.666992188 116.247070312 172 132.247070312 180 c 0
 140.9140625 183.333007812 147.747070312 185.666015625 152.747070312 186.999023438 c 0
 157.747070312 188.33203125 161.747070312 188.999023438 164.747070312 188.999023438 c 0
 167.747070312 188.999023438 170.580078125 188.666015625 173.247070312 187.999023438 c 0
 181.247070312 187.33203125 187.580078125 183.665039062 192.247070312 176.998046875 c 0
 196.247070312 171.665039062 200.580078125 164.33203125 205.247070312 154.999023438 c 0
 223.247070312 112.33203125 255.747070312 90.9990234375 302.747070312 90.9990234375 c 0
 349.747070312 90.9990234375 390.9140625 108.33203125 426.247070312 142.999023438 c 0
 462.9140625 178.999023438 488.581054688 227.666015625 503.248046875 288.999023438 c 0
 506.768554688 304.166015625 508.529296875 318.01171875 508.529296875 330.538085938 c 0
 508.529296875 348.844726562 504.768554688 364.33203125 497.248046875 376.998046875 c 0
 485.248046875 397.665039062 462.248046875 407.998046875 428.248046875 407.998046875 c 0
 412.248046875 407.998046875 394.915039062 405.998046875 376.248046875 401.998046875 c 0
 366.915039062 399.998046875 353.58203125 395.331054688 336.249023438 387.998046875 c 0
 332.249023438 386.665039062 326.749023438 383.498046875 319.749023438 378.498046875 c 0
 312.749023438 373.498046875 307.916015625 369.998046875 305.249023438 367.998046875 c 0
 292.58203125 358.665039062 282.249023438 350.665039062 274.249023438 343.998046875 c 0
 256.916015625 331.331054688 238.916015625 323.998046875 220.249023438 321.998046875 c 2
 213.249023438 321.998046875 l 2
 204.58203125 321.998046875 196.249023438 323.998046875 188.249023438 327.998046875 c 0
 176.249023438 333.998046875 169.58203125 346.665039062 168.249023438 365.998046875 c 0
 167.916015625 370.165039062 167.749023438 374.581054688 167.749023438 379.248046875 c 0
 167.749023438 393.248046875 169.249023438 409.498046875 172.249023438 427.999023438 c 0
 174.249023438 438.666015625 176.58203125 449.333007812 179.249023438 460 c 0
 184.58203125 483.333007812 193.915039062 517 207.248046875 561 c 0xd0
EndSplineSet
EndChar

StartChar: six
Encoding: 54 54 29
Width: 620
GlyphClass: 2
Flags: HMW
HStem: -22.0029 108<280.297 327.964> 379.997 114.001<393.963 479.297>
LayerCount: 2
Fore
SplineSet
622.963867188 361 m 0
 623.31640625 355.471679688 623.493164062 349.787109375 623.493164062 343.948242188 c 0
 623.493164062 316.689453125 619.649414062 286.038085938 611.962890625 251.998046875 c 0
 603.295898438 213.998046875 588.962890625 178.331054688 568.962890625 144.998046875 c 0
 528.962890625 76.3310546875 475.629882812 27.6640625 408.962890625 -1.0029296875 c 0
 373.629882812 -15.0029296875 337.962890625 -22.0029296875 301.962890625 -22.0029296875 c 0
 258.629882812 -22.0029296875 222.296875 -14.0029296875 192.963867188 1.9970703125 c 0
 164.963867188 17.9970703125 144.963867188 41.1640625 132.963867188 71.4970703125 c 0
 121.288085938 101.010742188 115.450195312 134.943359375 115.450195312 173.293945312 c 0
 115.450195312 204.677734375 118.879882812 248.9375 131.963867188 306.997070312 c 0
 145.963867188 366.997070312 163.630859375 420.497070312 184.963867188 467.497070312 c 0
 206.296875 514.497070312 229.963867188 553.830078125 255.963867188 585.497070312 c 0
 281.963867188 617.1640625 311.296875 643.997070312 343.963867188 665.997070312 c 0
 378.630859375 687.997070312 414.130859375 704.497070312 450.463867188 715.497070312 c 0
 486.796875 726.497070312 525.963867188 733.6640625 567.963867188 736.997070312 c 2
 577.963867188 736.997070312 l 2
 591.963867188 736.997070312 603.630859375 734.330078125 612.963867188 728.997070312 c 0
 624.424804688 722.362304688 630.155273438 712.1796875 630.155273438 698.44921875 c 0
 630.155273438 695.75390625 630.155273438 692.376953125 628.96484375 689.998046875 c 0
 626.96484375 679.998046875 619.96484375 669.665039062 607.96484375 658.998046875 c 0
 595.297851562 648.331054688 582.297851562 641.331054688 568.96484375 637.998046875 c 0
 560.96484375 635.998046875 548.797851562 633.331054688 532.46484375 629.998046875 c 0
 516.131835938 626.665039062 502.46484375 623.665039062 491.46484375 620.998046875 c 0
 480.46484375 618.331054688 467.297851562 614.331054688 451.96484375 608.998046875 c 0
 422.631835938 598.331054688 390.631835938 577.998046875 355.96484375 547.998046875 c 0
 338.631835938 531.998046875 320.298828125 510.331054688 300.965820312 482.998046875 c 0
 292.298828125 468.998046875 284.631835938 455.998046875 277.96484375 443.998046875 c 1
 297.297851562 456.665039062 318.630859375 466.665039062 341.963867188 473.998046875 c 0
 379.963867188 487.331054688 420.296875 493.998046875 462.963867188 493.998046875 c 0
 495.630859375 493.998046875 523.963867188 489.331054688 547.963867188 479.998046875 c 0
 569.963867188 470.665039062 587.463867188 456.33203125 600.463867188 436.999023438 c 0
 613.463867188 417.666015625 620.963867188 392.333007812 622.963867188 361 c 0
282.962890625 94.9970703125 m 0
 295.629882812 88.9970703125 309.963867188 85.9970703125 325.963867188 85.9970703125 c 2
 327.963867188 85.9970703125 l 1
 328.963867188 85.9970703125 l 2
 350.963867188 85.9970703125 373.963867188 93.6640625 397.963867188 108.997070312 c 0
 421.963867188 124.330078125 442.796875 143.997070312 460.463867188 167.997070312 c 0
 478.130859375 191.997070312 489.630859375 215.997070312 494.963867188 239.997070312 c 0
 500.889648438 265.181640625 503.852539062 286.6796875 503.852539062 304.490234375 c 0
 503.852539062 326.75390625 499.22265625 343.255859375 489.962890625 353.997070312 c 0
 481.962890625 363.997070312 471.795898438 370.830078125 459.462890625 374.497070312 c 0
 447.129882812 378.1640625 430.629882812 379.997070312 409.962890625 379.997070312 c 0
 377.962890625 379.997070312 346.629882812 372.330078125 315.962890625 356.997070312 c 0
 285.295898438 341.6640625 258.962890625 322.6640625 236.962890625 299.997070312 c 1
 230.962890625 274.6640625 226.629882812 253.6640625 223.962890625 236.997070312 c 0
 222.762695312 228.59765625 222.163085938 220.2578125 222.163085938 211.977539062 c 0
 222.163085938 192.657226562 225.4296875 173.6640625 231.962890625 154.997070312 c 0
 236.629882812 140.997070312 243.129882812 128.997070312 251.462890625 118.997070312 c 0
 259.795898438 108.997070312 270.295898438 100.997070312 282.962890625 94.9970703125 c 0
EndSplineSet
EndChar

StartChar: seven
Encoding: 55 55 30
Width: 620
GlyphClass: 2
Flags: HMW
HStem: -22.999 21G<135.931 143.264> 601 113.002<402.263 457.93 402.263 549.597>
LayerCount: 2
Fore
SplineSet
375.59765625 601 m 0
 314.264648438 599.666992188 274.265625 596.670898438 255.598632812 592.00390625 c 0
 251.598632812 591.336914062 247.265625 590.836914062 242.598632812 590.50390625 c 0
 237.931640625 590.170898438 233.264648438 591.00390625 228.59765625 593.00390625 c 0
 221.264648438 596.336914062 216.264648438 601.336914062 213.59765625 608.00390625 c 0
 209.71875 616.731445312 207.779296875 626.340820312 207.779296875 636.831054688 c 0
 207.779296875 640.764648438 208.051757812 644.822265625 208.59765625 649.00390625 c 1
 207.264648438 642.336914062 207.264648438 642.669921875 208.59765625 650.002929688 c 0
 211.930664062 664.002929688 218.263671875 675.669921875 227.596679688 685.002929688 c 0
 237.596679688 694.3359375 251.9296875 700.668945312 270.596679688 704.001953125 c 0
 305.9296875 710.668945312 362.9296875 714.001953125 441.596679688 714.001953125 c 0
 474.263671875 714.001953125 518.263671875 712.668945312 573.596679688 710.001953125 c 0
 626.263671875 708.001953125 653.596679688 707.001953125 655.596679688 707.001953125 c 0
 663.596679688 707.001953125 671.263671875 705.168945312 678.596679688 701.501953125 c 0
 685.9296875 697.834960938 691.9296875 692.001953125 696.596679688 684.001953125 c 0
 699.87890625 678.66796875 701.51953125 672.325195312 701.51953125 664.971679688 c 0
 701.51953125 660.375976562 700.87890625 655.38671875 699.596679688 650.001953125 c 0
 696.9296875 638.001953125 690.596679688 624.668945312 680.596679688 610.001953125 c 0
 666.596679688 590.001953125 643.763671875 560.501953125 612.096679688 521.501953125 c 0
 580.4296875 482.501953125 547.262695312 442.668945312 512.595703125 402.001953125 c 0
 476.595703125 361.334960938 431.595703125 307.16796875 377.595703125 239.500976562 c 0
 323.595703125 171.833984375 271.262695312 102.666992188 220.595703125 32 c 0
 207.262695312 12.6669921875 191.9296875 -1.666015625 174.596679688 -10.9990234375 c 0
 161.263671875 -18.9990234375 148.930664062 -22.9990234375 137.59765625 -22.9990234375 c 0
 134.264648438 -22.9990234375 130.931640625 -22.666015625 127.598632812 -21.9990234375 c 0
 111.598632812 -17.9990234375 101.931640625 -7.9990234375 98.5986328125 8.0009765625 c 0
 97.265625 15.333984375 97.5986328125 23.1669921875 99.5986328125 31.5 c 0
 101.598632812 39.8330078125 105.598632812 49 111.598632812 59 c 0
 158.931640625 125.666992188 209.264648438 192 262.59765625 258 c 0
 317.264648438 324 362.09765625 376.5 397.09765625 415.5 c 0
 432.09765625 454.5 463.09765625 490.166992188 490.09765625 522.5 c 0
 517.09765625 554.833007812 536.930664062 581 549.59765625 601 c 1
 523.263671875 601.666015625 495.59765625 602 466.59765625 602 c 0
 437.59765625 602 407.263671875 601.666015625 375.59765625 601 c 0
EndSplineSet
EndChar

StartChar: eight
Encoding: 56 56 31
Width: 620
GlyphClass: 2
Flags: HMW
HStem: -28.0039 110.002<307.625 307.958> 621.996 96.0029<427.625 477.29 441.959 477.29>
VStem: 495.96 111.998
LayerCount: 2
Fore
SplineSet
612.953125 246 m 0
 612.286132812 234 610.625 221.329101562 607.958007812 207.99609375 c 0
 603.291015625 185.99609375 595.458007812 164.329101562 584.458007812 142.99609375 c 0
 573.458007812 121.663085938 558.958007812 100.49609375 540.958007812 79.49609375 c 0
 522.958007812 58.49609375 502.958007812 40.3291015625 480.958007812 24.99609375 c 0
 458.291015625 9.6630859375 429.958007812 -3.00390625 395.958007812 -13.00390625 c 0
 361.958007812 -23.00390625 326.458007812 -28.00390625 289.458007812 -28.00390625 c 0
 252.458007812 -28.00390625 220.625 -23.3369140625 193.958007812 -14.00390625 c 0
 167.958007812 -4.6708984375 148.125 7.49609375 134.458007812 22.49609375 c 0
 120.791015625 37.49609375 110.624023438 55.1630859375 103.95703125 75.49609375 c 0
 97.607421875 94.861328125 94.4326171875 114.37890625 94.4326171875 134.047851562 c 0
 94.4326171875 151.06640625 96.45703125 174.37890625 102.955078125 201.997070312 c 0
 108.288085938 224.6640625 119.62109375 249.1640625 136.954101562 275.497070312 c 0
 154.287109375 301.830078125 175.954101562 326.330078125 201.954101562 348.997070312 c 0
 220.62109375 364.997070312 239.954101562 377.6640625 259.954101562 386.997070312 c 1
 238.62109375 401.6640625 222.954101562 419.997070312 212.954101562 441.997070312 c 0
 204.065429688 460.663085938 199.62109375 479.625976562 199.62109375 498.884765625 c 0
 199.62109375 508.514648438 200.732421875 518.21875 202.955078125 527.997070312 c 0
 204.955078125 536.6640625 207.788085938 545.6640625 211.455078125 554.997070312 c 0
 215.122070312 564.330078125 220.2890625 575.330078125 226.956054688 587.997070312 c 0
 233.623046875 600.6640625 241.290039062 612.831054688 249.95703125 624.498046875 c 0
 258.624023438 636.165039062 269.791015625 647.83203125 283.458007812 659.499023438 c 0
 297.125 671.166015625 311.958007812 680.999023438 327.958007812 688.999023438 c 0
 345.291015625 697.666015625 365.624023438 704.666015625 388.95703125 709.999023438 c 0
 412.290039062 715.33203125 437.290039062 717.999023438 463.95703125 717.999023438 c 0
 490.624023438 717.999023438 514.624023438 715.33203125 535.95703125 709.999023438 c 0
 557.290039062 704.666015625 574.623046875 697.666015625 587.956054688 688.999023438 c 0
 601.2890625 680.33203125 612.122070312 670.33203125 620.455078125 658.999023438 c 0
 628.788085938 647.666015625 634.62109375 636.166015625 637.954101562 624.499023438 c 0
 641.287109375 612.83203125 643.454101562 600.499023438 644.454101562 587.499023438 c 0
 644.954101562 580.999023438 645.204101562 574.916015625 645.204101562 569.249023438 c 0
 645.204101562 563.58203125 644.954101562 558.33203125 644.454101562 553.499023438 c 0
 643.454101562 543.83203125 641.787109375 534.33203125 639.454101562 524.999023438 c 0
 637.12109375 515.666015625 633.954101562 506.833007812 629.954101562 498.5 c 0
 625.954101562 490.166992188 621.62109375 482.666992188 616.954101562 476 c 0
 612.287109375 469.333007812 606.454101562 462.5 599.454101562 455.5 c 0
 592.454101562 448.5 586.12109375 442.666992188 580.454101562 438 c 0
 574.787109375 433.333007812 567.620117188 428 558.953125 422 c 0
 550.286132812 416 543.286132812 411.666992188 537.953125 409 c 0
 532.620117188 406.333007812 526.287109375 402.333007812 518.954101562 397 c 1
 534.287109375 389 547.287109375 380 557.954101562 370 c 0
 572.62109375 356 583.954101562 342.5 591.954101562 329.5 c 0
 599.954101562 316.5 605.62109375 302.333007812 608.954101562 287 c 0
 611.731445312 274.223632812 613.120117188 262.604492188 613.120117188 252.141601562 c 0
 613.120117188 250.047851562 613.064453125 248.000976562 612.953125 246 c 0
360.958984375 591.99609375 m 0
 335.625976562 571.99609375 320.293945312 549.99609375 314.9609375 525.99609375 c 0
 314.072265625 521.99609375 313.627929688 518.078125 313.627929688 514.243164062 c 0
 313.627929688 500.819335938 319.072265625 488.403320312 329.9609375 476.99609375 c 0
 345.293945312 461.663085938 372.9609375 445.663085938 412.9609375 428.99609375 c 1
 440.293945312 439.663085938 465.626953125 453.663085938 488.959960938 470.99609375 c 0
 512.29296875 488.329101562 525.625976562 503.329101562 528.958984375 515.99609375 c 0
 530.5078125 522.189453125 531.28125 528.408203125 531.28125 534.651367188 c 0
 531.28125 544.537109375 529.340820312 554.485351562 525.458984375 564.49609375 c 0
 519.125976562 580.829101562 508.625976562 594.49609375 493.958984375 605.49609375 c 0
 479.291992188 616.49609375 462.291992188 621.99609375 442.958984375 621.99609375 c 2
 441.958984375 621.99609375 l 2
 413.291992188 621.99609375 386.291992188 611.99609375 360.958984375 591.99609375 c 0
253.959960938 96.99609375 m 0
 273.29296875 86.99609375 295.291992188 81.998046875 319.958984375 81.998046875 c 0
 337.291992188 81.998046875 355.458984375 84.6650390625 374.458984375 89.998046875 c 0
 393.458984375 95.3310546875 411.291992188 102.998046875 427.958984375 112.998046875 c 0
 444.625976562 122.998046875 459.29296875 135.665039062 471.959960938 150.998046875 c 0
 483.959960938 166.331054688 491.959960938 182.998046875 495.959960938 200.998046875 c 0
 497.959960938 210.998046875 499.626953125 220.331054688 500.959960938 228.998046875 c 0
 500.959960938 237.665039062 499.459960938 247.665039062 496.459960938 258.998046875 c 0
 493.459960938 270.331054688 488.126953125 280.998046875 480.459960938 290.998046875 c 0
 472.79296875 300.998046875 461.29296875 311.331054688 445.959960938 321.998046875 c 0
 430.626953125 332.665039062 411.959960938 342.665039062 389.959960938 351.998046875 c 1
 342.626953125 339.331054688 301.626953125 318.6640625 266.959960938 289.997070312 c 0
 232.959960938 261.330078125 212.29296875 230.663085938 204.959960938 197.99609375 c 0
 203.020507812 189.99609375 202.05078125 182.260742188 202.05078125 174.790039062 c 0
 202.05078125 161.715820312 205.020507812 149.451171875 210.959960938 137.99609375 c 0
 220.959960938 119.99609375 235.29296875 106.329101562 253.959960938 96.99609375 c 0
EndSplineSet
EndChar

StartChar: nine
Encoding: 57 57 32
Width: 620
GlyphClass: 2
Flags: HMW
HStem: -22.9971 78.5 223.001 113.003<314.042 396.038> 630.004 108.995<438.706 519.71 450.039 519.71>
LayerCount: 2
Fore
SplineSet
186.044921875 -22 m 0
 182.711914062 -22 179.708007812 -22.330078125 177.041015625 -22.9970703125 c 0
 163.041015625 -22.9970703125 151.708007812 -19.9970703125 143.041015625 -13.9970703125 c 0
 132.1015625 -7.6640625 126.631835938 1.9013671875 126.631835938 14.69921875 c 0
 126.631835938 16.7197265625 126.768554688 18.8212890625 127.041015625 21.0029296875 c 2
 127.041015625 24.0029296875 l 2
 129.041015625 34.669921875 136.041015625 45.169921875 148.041015625 55.5029296875 c 0
 160.041015625 65.8359375 172.708007812 73.0029296875 186.041015625 77.0029296875 c 0
 194.041015625 79.0029296875 206.874023438 81.669921875 224.541015625 85.0029296875 c 0
 242.208007812 88.3359375 257.875 91.6689453125 271.541992188 95.001953125 c 0
 285.208984375 98.3349609375 300.375976562 102.66796875 317.04296875 108.000976562 c 0
 353.04296875 120.000976562 386.375976562 139.000976562 417.04296875 165.000976562 c 0
 437.04296875 183.000976562 456.375976562 203.66796875 475.04296875 227.000976562 c 0
 482.375976562 236.333984375 488.708984375 245.333984375 494.041992188 254.000976562 c 1
 478.708984375 246.000976562 462.375976562 239.66796875 445.04296875 235.000976562 c 0
 413.04296875 227.000976562 374.709960938 223.000976562 330.04296875 223.000976562 c 0
 298.04296875 223.000976562 269.375976562 230.333984375 244.04296875 245.000976562 c 0
 220.04296875 259.000976562 201.709960938 277.500976562 189.04296875 300.500976562 c 0
 176.375976562 323.500976562 168.04296875 350.16796875 164.04296875 380.500976562 c 0
 162.630859375 391.206054688 161.92578125 401.974609375 161.92578125 412.8046875 c 0
 161.92578125 432.66015625 164.297851562 452.725585938 169.04296875 473 c 0
 177.709960938 511 191.876953125 546.5 211.543945312 579.5 c 0
 231.2109375 612.5 254.2109375 640.666992188 280.543945312 664 c 0
 306.876953125 687.333007812 337.043945312 705.666015625 371.043945312 718.999023438 c 0
 405.7109375 732.33203125 440.7109375 738.999023438 476.043945312 738.999023438 c 0
 563.376953125 738.999023438 619.709960938 707.33203125 645.04296875 643.999023438 c 0
 656.23046875 615.231445312 661.823242188 580.717773438 661.823242188 540.45703125 c 0
 661.823242188 496.745117188 655.23046875 446.259765625 642.04296875 388.999023438 c 0
 628.709960938 331.666015625 610.876953125 280.833007812 588.543945312 236.5 c 0
 566.2109375 192.166992188 541.2109375 155 513.543945312 125 c 0
 485.876953125 95 454.043945312 69.3330078125 418.043945312 48 c 0
 381.376953125 26.6669921875 343.876953125 10.5 305.543945312 -0.5 c 0
 267.2109375 -11.5 227.377929688 -18.6669921875 186.044921875 -22 c 0
320.041015625 555.002929688 m 0
 302.708007812 532.3359375 291.372070312 509.004882812 286.0390625 485.004882812 c 0
 281.33984375 464.549804688 278.990234375 446.200195312 278.990234375 429.956054688 c 0
 278.990234375 367.850585938 313.33984375 336.532226562 382.0390625 336.00390625 c 0
 410.0390625 336.00390625 438.372070312 342.00390625 467.0390625 354.00390625 c 0
 495.706054688 366.00390625 519.706054688 381.336914062 539.0390625 400.00390625 c 0
 539.706054688 402.670898438 540.373046875 405.670898438 541.040039062 409.00390625 c 0
 545.040039062 426.336914062 549.70703125 450.00390625 555.040039062 480.00390625 c 0
 556.240234375 488.403320312 556.83984375 496.743164062 556.83984375 505.0234375 c 0
 556.83984375 524.34375 553.573242188 543.336914062 547.040039062 562.00390625 c 0
 542.373046875 576.00390625 535.873046875 588.00390625 527.540039062 598.00390625 c 0
 519.20703125 608.00390625 508.540039062 615.836914062 495.540039062 621.50390625 c 0
 482.540039062 627.170898438 468.040039062 630.00390625 452.040039062 630.00390625 c 2
 450.040039062 630.00390625 l 2
 427.373046875 630.00390625 404.373046875 623.170898438 381.040039062 609.50390625 c 0
 357.70703125 595.836914062 337.374023438 577.669921875 320.041015625 555.002929688 c 0
EndSplineSet
EndChar

StartChar: colon
Encoding: 58 58 33
Width: 620
GlyphClass: 2
Flags: HMW
HStem: 27 180.001<306.477 359.814> 295 179.001<376.149 417.482 376.149 417.482>
VStem: 258.145 216.002
LayerCount: 2
Fore
SplineSet
471.146484375 404 m 0
 466.479492188 384.666992188 459.147460938 364.66796875 449.147460938 344.000976562 c 0
 441.814453125 327.333984375 430.481445312 314.666992188 415.1484375 306 c 0
 401.815429688 298.666992188 389.815429688 295 379.1484375 295 c 2
 376.1484375 295 l 2
 358.1484375 295.666992188 344.1484375 299.666992188 334.1484375 307 c 0
 323.038085938 315.333007812 317.482421875 327.138671875 317.482421875 342.416015625 c 0
 317.482421875 345.471679688 317.705078125 348.666015625 318.149414062 352 c 0
 319.482421875 364 321.649414062 376.166992188 324.649414062 388.5 c 0
 327.649414062 400.833007812 330.649414062 412.333007812 333.649414062 423 c 0
 336.649414062 433.666992188 341.982421875 442.833984375 349.649414062 450.500976562 c 0
 357.31640625 458.16796875 365.649414062 463.66796875 374.649414062 467.000976562 c 0
 383.649414062 470.333984375 391.31640625 472.333984375 397.649414062 473.000976562 c 0
 403.982421875 473.66796875 408.815429688 474.000976562 412.1484375 474.000976562 c 0
 422.815429688 474.000976562 431.315429688 473.333984375 437.6484375 472.000976562 c 0
 443.981445312 470.66796875 450.314453125 468.000976562 456.647460938 464.000976562 c 0
 462.98046875 460.000976562 467.813476562 454.000976562 471.146484375 446.000976562 c 0
 474.479492188 438.000976562 475.479492188 428.66796875 474.146484375 418.000976562 c 0
 472.813476562 413.333984375 471.813476562 408.666992188 471.146484375 404 c 0
409.147460938 125.000976562 m 0
 405.814453125 109.000976562 399.809570312 92.333984375 391.142578125 75.0009765625 c 0
 383.142578125 58.333984375 370.809570312 46.0009765625 354.142578125 38.0009765625 c 0
 340.142578125 31.333984375 326.809570312 27.6669921875 314.142578125 27 c 0
 298.809570312 27 284.9765625 32 272.643554688 42 c 0
 262.502929688 50.2216796875 257.43359375 61.1484375 257.43359375 74.7783203125 c 0
 257.43359375 77.7255859375 257.669921875 80.7998046875 258.14453125 84 c 0
 261.477539062 102.666992188 263.477539062 113.333984375 264.14453125 116.000976562 c 0
 264.811523438 118.66796875 266.478515625 124.66796875 269.145507812 134.000976562 c 0
 271.8125 143.333984375 273.8125 150.666992188 275.145507812 156 c 0
 277.8125 166.666992188 282.979492188 175.833984375 290.646484375 183.500976562 c 0
 298.313476562 191.16796875 306.813476562 196.66796875 316.146484375 200.000976562 c 0
 330.146484375 204.66796875 342.813476562 207.000976562 354.146484375 207.000976562 c 0
 365.479492188 207.000976562 375.146484375 205.500976562 383.146484375 202.500976562 c 0
 391.146484375 199.500976562 398.479492188 193.66796875 405.146484375 185.000976562 c 0
 410.702148438 177.778320312 413.48046875 168.934570312 413.48046875 158.471679688 c 0
 413.48046875 156.379882812 413.369140625 154.22265625 413.147460938 152.000976562 c 0
 412.48046875 143.333984375 411.147460938 134.333984375 409.147460938 125.000976562 c 0
EndSplineSet
EndChar

StartChar: semicolon
Encoding: 59 59 34
Width: 620
GlyphClass: 2
Flags: HMW
HStem: 253.001 180.001<394.01 438.344>
VStem: 337.677 155.998
LayerCount: 2
Fore
SplineSet
490.674804688 363 m 0
 486.0078125 343.666992188 478.67578125 323.334960938 468.67578125 302.001953125 c 0
 461.342773438 285.334960938 450.009765625 272.66796875 434.676757812 264.000976562 c 0
 421.34375 256.66796875 409.34375 253.000976562 398.676757812 253.000976562 c 0
 389.34375 253.000976562 379.84375 255.000976562 370.176757812 259.000976562 c 0
 360.509765625 263.000976562 352.676757812 269.000976562 346.676757812 277.000976562 c 0
 340.471679688 284.8984375 337.369140625 293.989257812 337.369140625 304.274414062 c 0
 337.369140625 306.143554688 337.471679688 308.052734375 337.676757812 310.000976562 c 2
 337.676757812 311.000976562 l 2
 339.009765625 323.000976562 341.342773438 335.000976562 344.67578125 347.000976562 c 0
 348.008789062 359.000976562 351.008789062 370.333984375 353.67578125 381.000976562 c 0
 356.342773438 391.66796875 361.509765625 401.000976562 369.176757812 409.000976562 c 0
 376.84375 417.000976562 385.010742188 422.333984375 393.677734375 425.000976562 c 0
 408.344726562 429.66796875 421.677734375 432.334960938 433.677734375 433.001953125 c 0
 443.010742188 433.001953125 450.84375 432.168945312 457.176757812 430.501953125 c 0
 463.509765625 428.834960938 469.842773438 426.16796875 476.17578125 422.500976562 c 0
 482.508789062 418.833984375 487.341796875 413.000976562 490.674804688 405.000976562 c 0
 494.0078125 396.333984375 495.0078125 386.666992188 493.674804688 376 c 0
 492.341796875 372 491.341796875 367.666992188 490.674804688 363 c 0
406.67578125 79.0009765625 m 0
 406.67578125 77.0009765625 406.01171875 75 404.678710938 73 c 0
 398.01171875 51 357.678710938 -36.6669921875 283.678710938 -190 c 0
 275.678710938 -206.666992188 265.01171875 -219.333984375 251.678710938 -228.000976562 c 0
 240.678710938 -234.72265625 229.959960938 -238.083007812 219.520507812 -238.083007812 c 0
 218.5703125 -238.083007812 217.624023438 -238.055664062 216.678710938 -238 c 0
 200.678710938 -238 187.678710938 -233 177.678710938 -223 c 0
 170.801757812 -216.123046875 167.36328125 -207.435546875 167.36328125 -196.938476562 c 0
 167.36328125 -193.189453125 167.801757812 -189.209960938 168.678710938 -185 c 0
 171.345703125 -171.666992188 186.678710938 -132 214.678710938 -66 c 0
 242.678710938 0 264.01171875 49.3330078125 278.678710938 82 c 0
 284.01171875 93.3330078125 289.844726562 102.833007812 296.177734375 110.5 c 0
 302.510742188 118.166992188 309.34375 123.333984375 316.676757812 126.000976562 c 0
 326.009765625 129.333984375 334.676757812 131.333984375 342.676757812 132.000976562 c 0
 345.34375 132.000976562 348.34375 131.66796875 351.676757812 131.000976562 c 0
 365.009765625 131.000976562 377.676757812 127.66796875 389.676757812 121.000976562 c 0
 397.009765625 117.000976562 402.342773438 111.000976562 405.67578125 103.000976562 c 0
 408.342773438 95.66796875 408.67578125 87.66796875 406.67578125 79.0009765625 c 0
EndSplineSet
EndChar

StartChar: less
Encoding: 60 60 35
Width: 620
GlyphClass: 2
Flags: HMW
HStem: -24 21G<479.513 484.513 484.513 493.513>
LayerCount: 2
Fore
SplineSet
484.512695312 -24 m 2
 474.512695312 -24 463.846679688 -21.9990234375 452.513671875 -17.9990234375 c 0
 437.180664062 -12.666015625 419.84765625 -0.666015625 400.514648438 18.0009765625 c 0
 381.181640625 36.66796875 361.181640625 58.8349609375 340.514648438 84.501953125 c 0
 319.84765625 110.168945312 299.514648438 135.8359375 279.514648438 161.502929688 c 0
 259.514648438 187.169921875 238.34765625 213.669921875 216.014648438 241.002929688 c 0
 193.681640625 268.3359375 174.181640625 290.002929688 157.514648438 306.002929688 c 0
 149.514648438 314.002929688 145.514648438 325.002929688 145.514648438 339.002929688 c 0
 145.514648438 345.002929688 146.34765625 351.502929688 148.014648438 358.502929688 c 0
 149.681640625 365.502929688 152.181640625 372.669921875 155.514648438 380.002929688 c 0
 162.181640625 394.002929688 171.514648438 404.002929688 183.514648438 410.002929688 c 0
 224.84765625 438.002929688 274.014648438 473.169921875 331.014648438 515.502929688 c 0
 388.014648438 557.8359375 440.34765625 596.168945312 488.014648438 630.501953125 c 0
 535.681640625 664.834960938 577.514648438 692.001953125 613.514648438 712.001953125 c 0
 628.181640625 720.668945312 641.514648438 725.001953125 653.514648438 725.001953125 c 0
 662.84765625 725.001953125 670.514648438 722.668945312 676.514648438 718.001953125 c 0
 688.514648438 709.334960938 695.84765625 697.66796875 698.514648438 683.000976562 c 0
 699.84765625 676.333984375 699.680664062 669.000976562 698.013671875 661.000976562 c 0
 696.346679688 653.000976562 691.846679688 644.66796875 684.513671875 636.000976562 c 0
 673.846679688 622.66796875 655.513671875 607.66796875 629.513671875 591.000976562 c 0
 588.846679688 565.000976562 529.846679688 524.833984375 452.513671875 470.500976562 c 0
 375.180664062 416.16796875 322.513671875 379.334960938 294.513671875 360.001953125 c 1
 311.180664062 342.001953125 330.34765625 319.668945312 352.014648438 293.001953125 c 0
 373.681640625 266.334960938 393.014648438 241.66796875 410.014648438 219.000976562 c 0
 427.014648438 196.333984375 445.681640625 173.166992188 466.014648438 149.5 c 0
 486.34765625 125.833007812 505.180664062 106.833007812 522.513671875 92.5 c 0
 539.846679688 78.1669921875 550.846679688 65 555.513671875 53 c 0
 558.846679688 45 559.1796875 36.3330078125 556.512695312 27 c 0
 555.1796875 20.3330078125 552.512695312 14 548.512695312 8 c 0
 535.845703125 -10 517.512695312 -20.6669921875 493.512695312 -24 c 2
 484.512695312 -24 l 2
EndSplineSet
EndChar

StartChar: equal
Encoding: 61 61 36
Width: 620
GlyphClass: 2
Flags: HMW
HStem: 235 107<220.087 253.087> 435 106
LayerCount: 2
Fore
SplineSet
570.751953125 541 m 0
 588.751953125 541 600.419921875 536.33203125 605.752929688 526.999023438 c 0
 609.307617188 520.77734375 611.0859375 513.518554688 611.0859375 505.22265625 c 0
 611.0859375 501.07421875 610.640625 496.666015625 609.751953125 491.999023438 c 2
 609.751953125 490.999023438 l 2
 608.418945312 483.666015625 606.418945312 476.999023438 603.751953125 470.999023438 c 0
 601.084960938 464.999023438 597.084960938 458.83203125 591.751953125 452.499023438 c 0
 586.418945312 446.166015625 579.418945312 441.333007812 570.751953125 438 c 0
 564.751953125 436 558.751953125 435 552.751953125 435 c 2
 544.751953125 435 l 2
 522.751953125 435.666992188 499.751953125 436 475.751953125 436 c 2
 372.751953125 433 l 2
 329.418945312 431.666992188 297.418945312 431 276.751953125 431 c 0
 258.751953125 431 245.418945312 436 236.751953125 446 c 0
 230.4921875 453.22265625 227.362304688 461.8359375 227.362304688 471.840820312 c 0
 227.362304688 475.688476562 227.825195312 479.741210938 228.750976562 484 c 2
 228.750976562 487 l 2
 232.083984375 501 239.583984375 513.5 251.250976562 524.5 c 0
 262.91796875 535.5 277.41796875 541 294.750976562 541 c 2
 298.750976562 541 l 2
 335.150390625 539.799804688 375.149414062 539.200195312 418.749023438 539.200195312 c 0
 447.81640625 539.200195312 478.484375 539.466796875 510.751953125 540 c 0
 544.084960938 540.666992188 564.084960938 541 570.751953125 541 c 0
506.752929688 238.999023438 m 2
 499.75390625 239 l 2
 485.75390625 239.666992188 472.420898438 240 459.75390625 240 c 0
 433.75390625 240 393.75390625 239.166992188 339.75390625 237.5 c 0
 285.75390625 235.833007812 249.086914062 235 229.75390625 235 c 0
 210.420898438 235 197.087890625 240.333007812 189.754882812 251 c 0
 184.712890625 258.333984375 182.192382812 266.770507812 182.192382812 276.309570312 c 0
 182.192382812 280.645507812 182.712890625 285.208984375 183.754882812 290 c 2
 183.754882812 292 l 2
 187.087890625 306 194.920898438 317.833007812 207.25390625 327.5 c 0
 219.586914062 337.166992188 234.75390625 342 252.75390625 342 c 0
 253.420898438 342 258.75390625 341.666992188 268.75390625 341 c 0
 281.87109375 340.77734375 296.434570312 340.666015625 312.443359375 340.666015625 c 0
 344.438476562 340.666015625 382.208007812 341.110351562 425.752929688 341.999023438 c 2
 524.752929688 344.999023438 l 2
 542.752929688 344.999023438 554.5859375 340.33203125 560.252929688 330.999023438 c 0
 564.106445312 324.65234375 566.033203125 317.227539062 566.033203125 308.72265625 c 0
 566.033203125 304.720703125 565.606445312 300.479492188 564.752929688 295.999023438 c 2
 564.752929688 294.999023438 l 2
 563.419921875 287.666015625 561.252929688 281.166015625 558.252929688 275.499023438 c 0
 555.252929688 269.83203125 551.419921875 263.999023438 546.752929688 257.999023438 c 0
 541.419921875 251.33203125 534.419921875 245.999023438 525.752929688 241.999023438 c 0
 519.752929688 239.999023438 513.419921875 238.999023438 506.752929688 238.999023438 c 2
EndSplineSet
EndChar

StartChar: greater
Encoding: 62 62 37
Width: 620
GlyphClass: 2
Flags: HMW
HStem: -18 21G<117.89 128.558>
LayerCount: 2
Fore
SplineSet
122.224609375 -18 m 0
 113.557617188 -18 106.221679688 -15.6689453125 100.221679688 -11.001953125 c 0
 94.2216796875 -6.3349609375 89.388671875 -1.001953125 85.7216796875 4.998046875 c 0
 82.0546875 10.998046875 79.5546875 17.3310546875 78.2216796875 23.998046875 c 0
 76.888671875 30.6650390625 77.0556640625 37.998046875 78.72265625 45.998046875 c 0
 80.3896484375 53.998046875 84.556640625 62.3310546875 91.2236328125 70.998046875 c 0
 101.890625 84.3310546875 120.557617188 99.3310546875 147.224609375 115.998046875 c 0
 187.891601562 141.998046875 246.891601562 182.165039062 324.224609375 236.498046875 c 0
 401.557617188 290.831054688 453.890625 327.6640625 481.223632812 346.997070312 c 1
 463.890625 364.997070312 444.723632812 387.330078125 423.723632812 413.997070312 c 0
 402.723632812 440.6640625 383.556640625 465.331054688 366.223632812 487.998046875 c 0
 348.890625 510.665039062 330.057617188 533.83203125 309.724609375 557.499023438 c 0
 289.391601562 581.166015625 270.724609375 600.166015625 253.724609375 614.499023438 c 0
 236.724609375 628.83203125 225.891601562 641.999023438 221.224609375 653.999023438 c 0
 217.891601562 661.999023438 217.55859375 670.666015625 220.225585938 679.999023438 c 0
 221.55859375 686.666015625 224.225585938 692.999023438 228.225585938 698.999023438 c 0
 240.892578125 716.999023438 259.225585938 727.666015625 283.225585938 730.999023438 c 2
 292.225585938 730.999023438 l 2
 302.225585938 730.999023438 312.892578125 728.999023438 324.225585938 724.999023438 c 0
 339.55859375 719.666015625 357.05859375 707.833007812 376.725585938 689.5 c 0
 396.392578125 671.166992188 416.392578125 649 436.725585938 623 c 0
 457.05859375 597 477.225585938 571.166992188 497.225585938 545.5 c 0
 517.225585938 519.833007812 538.392578125 493.333007812 560.725585938 466 c 0
 583.05859375 438.666992188 602.55859375 417 619.225585938 401 c 0
 627.225585938 393 631.225585938 382 631.225585938 368 c 0
 631.225585938 362 630.392578125 355.5 628.725585938 348.5 c 0
 627.05859375 341.5 624.55859375 334.333007812 621.225585938 327 c 0
 614.55859375 313 605.225585938 303 593.225585938 297 c 0
 551.892578125 269.666992188 502.725585938 234.666992188 445.725585938 192 c 0
 388.725585938 149.333007812 336.392578125 110.833007812 288.725585938 76.5 c 0
 241.05859375 42.1669921875 199.225585938 15 163.225585938 -5 c 0
 148.55859375 -13.6669921875 134.891601562 -18 122.224609375 -18 c 0
EndSplineSet
EndChar

StartChar: question
Encoding: 63 63 38
Width: 620
GlyphClass: 2
Flags: HMW
HStem: -25.999 178.002<259.876 336.208 270.876 336.208> 508.998 21G<274.208 275.875 275.875 283.875> 625.003 108.995<451.542 457.874>
VStem: 289.876 116
LayerCount: 2
Fore
SplineSet
338.875 201 m 0
 333.541992188 201 327.875976562 201.66796875 321.875976562 203.000976562 c 0
 298.828125 209.810546875 287.3046875 224.028320312 287.3046875 245.655273438 c 0
 287.3046875 251.552734375 288.162109375 258.001953125 289.875976562 265.001953125 c 0
 291.875976562 274.334960938 295.54296875 284.334960938 300.875976562 295.001953125 c 0
 310.208984375 314.334960938 321.041992188 332.334960938 333.375 349.001953125 c 0
 345.708007812 365.668945312 358.375 380.001953125 371.375 392.001953125 c 0
 384.375 404.001953125 397.541992188 415.168945312 410.875 425.501953125 c 0
 424.208007812 435.834960938 436.875 445.501953125 448.875 454.501953125 c 0
 460.875 463.501953125 471.541992188 472.334960938 480.875 481.001953125 c 0
 500.875 499.668945312 513.208007812 519.001953125 517.875 539.001953125 c 0
 520.563476562 550.24609375 521.908203125 560.280273438 521.908203125 569.104492188 c 0
 521.908203125 584.34765625 517.896484375 595.98046875 509.874023438 604.002929688 c 0
 496.541015625 618.002929688 473.874023438 625.002929688 441.874023438 625.002929688 c 0
 434.541015625 625.002929688 426.708007812 623.169921875 418.375 619.502929688 c 0
 410.041992188 615.8359375 402.375 611.668945312 395.375 607.001953125 c 0
 388.375 602.334960938 380.541992188 595.66796875 371.875 587.000976562 c 0
 363.208007812 578.333984375 356.208007812 571.166992188 350.875 565.5 c 0
 345.541992188 559.833007812 338.875 552.166015625 330.875 542.499023438 c 0
 322.875 532.83203125 315.041992188 525.165039062 307.375 519.498046875 c 0
 299.708007812 513.831054688 291.875 510.331054688 283.875 508.998046875 c 2
 275.875 508.998046875 l 2
 272.541992188 508.998046875 268.875 509.665039062 264.875 510.998046875 c 0
 260.875 512.331054688 255.208007812 514.6640625 247.875 517.997070312 c 0
 235.875 525.997070312 229.875 537.330078125 229.875 551.997070312 c 0
 229.875 555.330078125 230.208007812 559.330078125 230.875 563.997070312 c 0
 233.541992188 575.997070312 239.875 589.330078125 249.875 603.997070312 c 0
 260.541992188 618.6640625 272.541992188 632.831054688 285.875 646.498046875 c 0
 299.208007812 660.165039062 315.041015625 673.998046875 333.374023438 687.998046875 c 0
 351.70703125 701.998046875 372.20703125 713.165039062 394.874023438 721.498046875 c 0
 417.541015625 729.831054688 440.208007812 733.998046875 462.875 733.998046875 c 0
 532.208007812 733.998046875 581.375 716.165039062 610.375 680.498046875 c 0
 629.063476562 657.512695312 638.408203125 627.3984375 638.408203125 590.154296875 c 0
 638.408203125 569.60546875 635.563476562 546.88671875 629.875 521.998046875 c 0
 625.208007812 502.665039062 618.208007812 484.83203125 608.875 468.499023438 c 0
 599.541992188 452.166015625 588.708984375 438.333007812 576.375976562 427 c 0
 564.04296875 415.666992188 551.375976562 405.166992188 538.375976562 395.5 c 0
 525.375976562 385.833007812 512.208984375 376.5 498.875976562 367.5 c 0
 485.54296875 358.5 473.04296875 349.166992188 461.375976562 339.5 c 0
 449.708984375 329.833007812 438.875976562 318.333007812 428.875976562 305 c 0
 418.875976562 291.666992188 411.208984375 276.666992188 405.875976562 260 c 0
 398.54296875 240 387.875976562 224.333007812 373.875976562 213 c 0
 363.208984375 205 351.541992188 201 338.875 201 c 0
270.875976562 -25.9990234375 m 2
 248.875976562 -25.9990234375 232.541992188 -17.9990234375 221.875 -1.9990234375 c 0
 213.279296875 10.66796875 208.982421875 24.7158203125 208.982421875 40.1455078125 c 0
 208.982421875 47.4541015625 209.946289062 55.0732421875 211.875 63.001953125 c 0
 217.875 87.6689453125 231.875 108.3359375 253.875 125.002929688 c 0
 277.208007812 143.002929688 300.875 152.002929688 324.875 152.002929688 c 0
 347.541992188 152.002929688 364.875 144.002929688 376.875 128.002929688 c 0
 385.026367188 116.681640625 389.1015625 103.515625 389.1015625 88.50390625 c 0
 389.1015625 81.4140625 388.192382812 73.9140625 386.375 66.001953125 c 0
 380.708007812 41.3349609375 368.208007812 20.66796875 348.875 4.0009765625 c 0
 329.541992188 -12.666015625 307.208984375 -22.666015625 281.875976562 -25.9990234375 c 2
 270.875976562 -25.9990234375 l 2
EndSplineSet
EndChar

StartChar: at
Encoding: 64 64 39
Width: 620
GlyphClass: 2
Flags: HMW
HStem: -141.997 110.002<250.792 307.46 268.126 307.46> 105 105.001<339.13 339.797> 369.5 100.5 601.002 113.999<455.127 496.791>
VStem: 93.625 109.002 560.63 98.4951
LayerCount: 2
Fore
SplineSet
410.124023438 148 m 1
 385.45703125 119.333007812 356.463867188 105 323.130859375 105 c 0
 283.130859375 105 254.963867188 118.833007812 238.630859375 146.5 c 0
 229.431640625 162.08203125 224.833007812 181.735351562 224.833007812 205.458984375 c 0
 224.833007812 223.857421875 227.598632812 244.704101562 233.131835938 268 c 0
 239.131835938 294.666992188 247.46484375 319.166992188 258.131835938 341.5 c 0
 268.798828125 363.833007812 280.798828125 383 294.131835938 399 c 0
 307.46484375 415 322.131835938 428.666992188 338.131835938 440 c 0
 366.131835938 460 396.131835938 470 428.131835938 470 c 0
 446.798828125 470 464.465820312 466 481.1328125 458 c 0
 495.799804688 451.333007812 506.799804688 442.333007812 514.1328125 431 c 0
 519.465820312 421.666992188 521.1328125 412.666992188 519.1328125 404 c 0
 518.465820312 399.333007812 516.1328125 394.333007812 512.1328125 389 c 0
 508.1328125 383.666992188 503.465820312 378.666992188 498.1328125 374 c 0
 492.799804688 369.333007812 487.1328125 366 481.1328125 364 c 0
 472.465820312 361.333007812 465.798828125 360 461.131835938 360 c 0
 453.131835938 360 444.46484375 361.333007812 435.131835938 364 c 0
 432.46484375 364.666992188 428.131835938 366 422.131835938 368 c 0
 415.46484375 369.333007812 408.96484375 369.833007812 402.631835938 369.5 c 0
 396.298828125 369.166992188 389.631835938 366.833984375 382.631835938 362.500976562 c 0
 375.631835938 358.16796875 368.798828125 352.66796875 362.131835938 346.000976562 c 0
 355.46484375 339.333984375 349.297851562 330.333984375 343.630859375 319.000976562 c 0
 337.963867188 307.66796875 333.796875 294.66796875 331.129882812 280.000976562 c 0
 329.129882812 272.000976562 327.629882812 264.333984375 326.629882812 257.000976562 c 0
 325.629882812 249.66796875 325.462890625 242.000976562 326.129882812 234.000976562 c 0
 326.796875 218.000976562 333.129882812 210.000976562 345.129882812 210.000976562 c 0
 352.462890625 210.000976562 358.462890625 211.333984375 363.129882812 214.000976562 c 0
 369.796875 216.66796875 375.463867188 221.334960938 380.130859375 228.001953125 c 0
 390.797851562 242.668945312 400.797851562 268.001953125 410.130859375 304.001953125 c 0
 414.130859375 319.334960938 427.463867188 331.66796875 450.130859375 341.000976562 c 0
 462.797851562 345.66796875 474.130859375 348.334960938 484.130859375 349.001953125 c 0
 491.463867188 349.001953125 497.463867188 347.668945312 502.130859375 345.001953125 c 0
 511.3046875 340.684570312 515.891601562 333.52734375 515.891601562 323.53125 c 0
 515.891601562 321.178710938 515.637695312 318.668945312 515.129882812 316.001953125 c 0
 515.129882812 314.668945312 514.462890625 313.3359375 513.129882812 312.002929688 c 0
 505.129882812 288.669921875 499.462890625 269.002929688 496.129882812 253.002929688 c 0
 492.129882812 235.002929688 490.129882812 219.669921875 490.129882812 207.002929688 c 0
 490.129882812 202.3359375 490.796875 199.002929688 492.129882812 197.002929688 c 0
 493.462890625 193.669921875 495.462890625 192.002929688 498.129882812 192.002929688 c 0
 499.462890625 193.3359375 501.129882812 195.3359375 503.129882812 198.002929688 c 0
 507.796875 206.002929688 512.796875 216.3359375 518.129882812 229.002929688 c 0
 526.129882812 253.002929688 532.462890625 275.002929688 537.129882812 295.002929688 c 0
 545.129882812 328.3359375 550.962890625 359.168945312 554.629882812 387.501953125 c 0
 558.296875 415.834960938 560.296875 439.834960938 560.629882812 459.501953125 c 0
 560.666992188 461.684570312 560.685546875 463.845703125 560.685546875 465.983398438 c 0
 560.685546875 483.10546875 559.5 498.778320312 557.12890625 513.001953125 c 0
 554.461914062 529.001953125 551.294921875 541.668945312 547.627929688 551.001953125 c 0
 543.9609375 560.334960938 538.9609375 568.334960938 532.627929688 575.001953125 c 0
 526.294921875 581.668945312 520.627929688 586.501953125 515.627929688 589.501953125 c 0
 510.627929688 592.501953125 504.627929688 595.001953125 497.627929688 597.001953125 c 0
 490.627929688 599.001953125 485.294921875 600.168945312 481.627929688 600.501953125 c 0
 477.9609375 600.834960938 472.793945312 601.001953125 466.126953125 601.001953125 c 0
 444.126953125 601.001953125 421.293945312 593.334960938 397.626953125 578.001953125 c 0
 373.959960938 562.668945312 351.126953125 540.668945312 329.126953125 512.001953125 c 0
 307.126953125 483.334960938 286.459960938 447.501953125 267.126953125 404.501953125 c 0
 247.793945312 361.501953125 232.4609375 314.668945312 221.127929688 264.001953125 c 0
 210.4609375 219.334960938 204.293945312 179.334960938 202.626953125 144.001953125 c 0
 202.188476562 134.703125 201.96875 125.888671875 201.96875 117.559570312 c 0
 201.96875 94.240234375 203.688476562 74.7216796875 207.126953125 59.0029296875 c 0
 211.793945312 37.669921875 219.126953125 19.8369140625 229.126953125 5.50390625 c 0
 239.126953125 -8.8291015625 249.793945312 -18.662109375 261.126953125 -23.9951171875 c 0
 272.459960938 -29.328125 285.459960938 -31.9951171875 300.126953125 -31.9951171875 c 0
 314.793945312 -31.9951171875 328.626953125 -30.328125 341.626953125 -26.9951171875 c 0
 354.626953125 -23.662109375 365.626953125 -19.9951171875 374.626953125 -15.9951171875 c 0
 383.626953125 -11.9951171875 392.626953125 -6.328125 401.626953125 1.0048828125 c 0
 410.626953125 8.337890625 417.959960938 15.1708984375 423.626953125 21.50390625 c 0
 429.293945312 27.8369140625 436.126953125 35.669921875 444.126953125 45.0029296875 c 0
 448.126953125 50.3359375 451.293945312 54.5029296875 453.626953125 57.5029296875 c 0
 455.959960938 60.5029296875 459.126953125 64.169921875 463.126953125 68.5029296875 c 0
 467.126953125 72.8359375 470.626953125 76.0029296875 473.626953125 78.0029296875 c 0
 476.626953125 80.0029296875 480.126953125 82.0029296875 484.126953125 84.0029296875 c 0
 488.126953125 86.0029296875 492.459960938 87.0029296875 497.126953125 87.0029296875 c 0
 501.793945312 87.0029296875 506.126953125 86.0029296875 510.126953125 84.0029296875 c 0
 516.126953125 81.3359375 520.793945312 78.0029296875 524.126953125 74.0029296875 c 0
 527.459960938 70.0029296875 529.626953125 65.169921875 530.626953125 59.5029296875 c 0
 531.626953125 53.8359375 531.459960938 48.0029296875 530.126953125 42.0029296875 c 0
 527.459960938 30.669921875 521.459960938 17.0029296875 512.126953125 1.0029296875 c 0
 506.126953125 -8.9970703125 500.459960938 -17.6640625 495.126953125 -24.9970703125 c 0
 489.793945312 -32.330078125 482.793945312 -41.330078125 474.126953125 -51.9970703125 c 0
 465.459960938 -62.6640625 456.79296875 -71.9970703125 448.125976562 -79.9970703125 c 0
 439.458984375 -87.9970703125 428.458984375 -96.1640625 415.125976562 -104.497070312 c 0
 401.79296875 -112.830078125 388.125976562 -119.497070312 374.125976562 -124.497070312 c 0
 360.125976562 -129.497070312 344.458984375 -133.6640625 327.125976562 -136.997070312 c 0
 309.79296875 -140.330078125 292.125976562 -141.997070312 274.125976562 -141.997070312 c 2
 268.125976562 -141.997070312 l 2
 233.458984375 -141.997070312 203.291992188 -132.6640625 177.625 -113.997070312 c 0
 151.958007812 -95.330078125 131.958007812 -69.9970703125 117.625 -37.9970703125 c 0
 103.291992188 -5.9970703125 95.2919921875 32.8359375 93.625 78.5029296875 c 0
 93.421875 84.072265625 93.3203125 89.7041015625 93.3203125 95.3984375 c 0
 93.3203125 136.387695312 98.5888671875 180.588867188 109.125 228.002929688 c 0
 123.125 287.3359375 140.291992188 342.8359375 160.625 394.502929688 c 0
 180.958007812 446.169921875 203.625 491.169921875 228.625 529.502929688 c 0
 253.625 567.8359375 280.291992188 601.168945312 308.625 629.501953125 c 0
 336.958007812 657.834960938 366.125 679.16796875 396.125 693.500976562 c 0
 426.125 707.833984375 456.125 715.000976562 486.125 715.000976562 c 0
 507.458007812 715.000976562 526.625 713.16796875 543.625 709.500976562 c 0
 560.625 705.833984375 576.625 699.500976562 591.625 690.500976562 c 0
 606.625 681.500976562 618.791992188 669.66796875 628.125 655.000976562 c 0
 637.458007812 640.333984375 644.958007812 622.000976562 650.625 600.000976562 c 0
 656.291992188 578.000976562 659.125 552.333984375 659.125 523.000976562 c 0
 659.125 461.66796875 648.125 385.000976562 626.125 293.000976562 c 0
 614.125 242.333984375 597.125 198.000976562 575.125 160.000976562 c 0
 562.458007812 138.66796875 547.625 121.500976562 530.625 108.500976562 c 0
 513.625 95.5009765625 495.458007812 89.0009765625 476.125 89.0009765625 c 0
 447.458007812 89.0009765625 427.791015625 99.333984375 417.124023438 120.000976562 c 0
 413.124023438 127.333984375 410.791015625 136.666992188 410.124023438 148 c 1
EndSplineSet
EndChar

StartChar: A
Encoding: 65 65 40
Width: 620
GlyphClass: 2
Flags: HMW
HStem: -6.00195 21G<85.8337 93.5007> 251 91.998<476.162 476.162>
VStem: 476.163 109.502 481.168 115.998
LayerCount: 2
Fore
SplineSet
156.162109375 49 m 0xe0
 143.495117188 25 129.500976562 8.998046875 114.16796875 0.998046875 c 0
 105.500976562 -3.6689453125 97.333984375 -6.001953125 89.6669921875 -6.001953125 c 0
 82 -6.001953125 75.1669921875 -4.3349609375 69.1669921875 -1.001953125 c 0
 59.1669921875 4.3310546875 52.833984375 12.6640625 50.1669921875 23.9970703125 c 0
 48.1669921875 32.6640625 48.333984375 42.1640625 50.6669921875 52.4970703125 c 0
 53 62.830078125 56.8330078125 73.6630859375 62.166015625 84.99609375 c 0
 70.8330078125 105.663085938 99.166015625 153.99609375 147.166015625 229.99609375 c 1
 141.610351562 237.21875 138.83203125 245.831054688 138.83203125 255.83203125 c 0
 138.83203125 257.831054688 138.943359375 259.88671875 139.165039062 261.997070312 c 0
 139.165039062 262.6640625 139.498046875 263.331054688 140.165039062 263.998046875 c 0
 142.83203125 275.998046875 150.499023438 286.665039062 163.166015625 295.998046875 c 0
 173.833007812 304.665039062 186.166015625 311.33203125 200.166015625 315.999023438 c 1
 322.166015625 497.999023438 412.499023438 620.33203125 471.166015625 682.999023438 c 0
 485.166015625 696.999023438 497.499023438 707.33203125 508.166015625 713.999023438 c 0
 518.833007812 721.33203125 530.166015625 724.999023438 542.166015625 724.999023438 c 0
 545.499023438 724.999023438 548.166015625 725.33203125 550.166015625 725.999023438 c 0
 562.833007812 725.999023438 573.166015625 722.666015625 581.166015625 715.999023438 c 0
 591.965820312 708.798828125 597.366210938 697.818359375 597.366210938 683.05859375 c 0
 597.366210938 681.41796875 597.298828125 679.732421875 597.166015625 677.999023438 c 0xd0
 592.499023438 597.999023438 588.83203125 484.999023438 586.165039062 338.999023438 c 0
 585.403320312 292.51953125 585.022460938 253.061523438 585.022460938 220.625 c 0
 585.022460938 196.301757812 585.236328125 175.926757812 585.665039062 159.5 c 0
 586.665039062 121.166992188 588.498046875 97.6669921875 591.165039062 89 c 0
 593.248046875 81.5 594.290039062 74.259765625 594.290039062 67.2802734375 c 0
 594.290039062 63.09375 593.915039062 59 593.165039062 55 c 0
 592.498046875 53 591.831054688 50.6669921875 591.1640625 48 c 0
 587.1640625 36 580.997070312 25.8330078125 572.6640625 17.5 c 0
 564.331054688 9.1669921875 555.1640625 3 545.1640625 -1 c 0
 533.831054688 -4.3330078125 526.831054688 -6 524.1640625 -6 c 0
 516.1640625 -6 508.497070312 -3.6669921875 501.1640625 1 c 0
 488.497070312 9 480.830078125 24.6669921875 478.163085938 48 c 0
 476.080078125 61.333984375 475.038085938 92.767578125 475.038085938 142.301757812 c 0
 475.038085938 172.01953125 475.413085938 208.251953125 476.163085938 251 c 1
 397.49609375 247.666992188 325.829101562 241 261.162109375 231 c 1
 227.829101562 179 192.829101562 118.333007812 156.162109375 49 c 0xe0
325.16796875 331.998046875 m 1
 380.500976562 337.998046875 430.834960938 341.665039062 476.16796875 342.998046875 c 1
 481.16796875 567.998046875 l 1
 443.834960938 519.998046875 391.834960938 441.331054688 325.16796875 331.998046875 c 1
EndSplineSet
EndChar

StartChar: B
Encoding: 66 66 41
Width: 620
GlyphClass: 2
Flags: HMW
HStem: -23 21G<127.009 134.341> 285.002 97.998 605.004 103.999<404.677 409.676>
LayerCount: 2
Fore
SplineSet
70.6748046875 42 m 0
 76.6748046875 61.3330078125 85.0087890625 94.00390625 95.67578125 140.00390625 c 0
 115.67578125 227.336914062 136.342773438 324.00390625 157.67578125 430.00390625 c 0
 166.342773438 473.336914062 172.342773438 502.50390625 175.67578125 517.50390625 c 0
 179.008789062 532.50390625 184.008789062 552.50390625 190.67578125 577.50390625 c 0
 197.342773438 602.50390625 202.009765625 619.670898438 204.676757812 629.00390625 c 0
 210.009765625 649.670898438 219.509765625 665.670898438 233.176757812 677.00390625 c 0
 246.84375 688.336914062 261.34375 694.00390625 276.676757812 694.00390625 c 2
 279.676757812 694.00390625 l 1
 297.676757812 699.336914062 319.34375 703.336914062 344.676757812 706.00390625 c 0
 355.34375 707.336914062 366.34375 708.169921875 377.676757812 708.502929688 c 0
 389.009765625 708.8359375 398.009765625 709.002929688 404.676757812 709.002929688 c 2
 424.676757812 709.002929688 l 1
 436.676757812 709.002929688 l 2
 484.009765625 709.002929688 524.676757812 700.669921875 558.676757812 684.002929688 c 0
 592.009765625 667.3359375 614.676757812 642.3359375 626.676757812 609.002929688 c 0
 634.295898438 589.955078125 638.10546875 569.166015625 638.10546875 546.634765625 c 0
 638.10546875 529.737304688 635.962890625 511.860351562 631.676757812 493.002929688 c 0
 623.009765625 455.002929688 606.342773438 422.002929688 581.67578125 394.002929688 c 0
 563.67578125 372.669921875 543.008789062 355.669921875 519.67578125 343.002929688 c 1
 532.342773438 336.3359375 544.009765625 328.668945312 554.676757812 320.001953125 c 0
 572.009765625 305.334960938 586.009765625 288.66796875 596.676757812 270.000976562 c 0
 604.434570312 256.424804688 608.313476562 243.026367188 608.313476562 229.802734375 c 0
 608.313476562 224.84375 607.767578125 219.91015625 606.676757812 215.000976562 c 0
 606.676757812 214.333984375 606.34375 214.000976562 605.676757812 214.000976562 c 0
 599.676757812 188.000976562 587.34375 162.333984375 568.676757812 137.000976562 c 0
 550.009765625 111.66796875 526.342773438 88.5009765625 497.67578125 67.5009765625 c 0
 469.008789062 46.5009765625 433.341796875 28.66796875 390.674804688 14.0009765625 c 0
 347.341796875 -0.666015625 301.674804688 -9.9990234375 253.674804688 -13.9990234375 c 1
 248.688476562 -10.7724609375 243.37890625 -9.1591796875 237.747070312 -9.1591796875 c 0
 230.579101562 -9.1591796875 222.888671875 -11.7724609375 214.674804688 -16.9990234375 c 1
 182.0078125 -19.666015625 161.674804688 -21.3330078125 153.674804688 -22 c 0
 145.674804688 -22.6669921875 138.0078125 -23 130.674804688 -23 c 0
 123.341796875 -23 116.674804688 -22.3330078125 110.674804688 -21 c 2
 108.674804688 -21 l 2
 93.341796875 -21 81.6748046875 -15.3330078125 73.6748046875 -4 c 0
 69.5078125 2.25 67.4248046875 9.671875 67.4248046875 18.265625 c 0
 67.4248046875 23.421875 68.1748046875 29 69.6748046875 35 c 0
 69.6748046875 37.6669921875 70.0078125 40 70.6748046875 42 c 0
263.67578125 402.00390625 m 0
 262.342773438 395.336914062 261.006835938 389 259.673828125 383 c 1
 287.006835938 382.333007812 311.673828125 381.833007812 333.673828125 381.5 c 0
 335.872070312 381.466796875 338.04296875 381.450195312 340.184570312 381.450195312 c 0
 359.4765625 381.450195312 376.47265625 382.799804688 391.173828125 385.5 c 0
 407.506835938 388.5 421.506835938 392.333007812 433.173828125 397 c 0
 444.840820312 401.666992188 455.5078125 407.333984375 465.174804688 414.000976562 c 0
 474.841796875 420.66796875 482.508789062 427.334960938 488.17578125 434.001953125 c 0
 493.842773438 440.668945312 499.17578125 448.168945312 504.17578125 456.501953125 c 0
 509.17578125 464.834960938 513.008789062 472.334960938 515.67578125 479.001953125 c 0
 518.342773438 485.668945312 520.342773438 492.668945312 521.67578125 500.001953125 c 0
 523.4296875 507.721679688 524.307617188 515.1640625 524.307617188 522.330078125 c 0
 524.307617188 528.778320312 523.596679688 535.002929688 522.17578125 541.002929688 c 0
 519.17578125 553.669921875 513.67578125 563.836914062 505.67578125 571.50390625 c 0
 497.67578125 579.170898438 488.342773438 585.670898438 477.67578125 591.00390625 c 0
 458.92578125 600.37890625 437.833007812 605.06640625 414.396484375 605.06640625 c 0
 412.833007812 605.06640625 411.259765625 605.045898438 409.67578125 605.00390625 c 0
 377.67578125 605.00390625 345.67578125 602.00390625 313.67578125 596.00390625 c 1
 310.342773438 584.00390625 305.67578125 566.00390625 299.67578125 542.00390625 c 0
 285.67578125 492.670898438 273.67578125 446.00390625 263.67578125 402.00390625 c 0
466.172851562 165.5 m 0
 477.83984375 178.5 484.674804688 189.670898438 486.674804688 199.00390625 c 0
 488.0078125 204.336914062 486.5078125 210.669921875 482.174804688 218.002929688 c 0
 477.841796875 225.3359375 469.841796875 233.168945312 458.174804688 241.501953125 c 0
 446.5078125 249.834960938 428.840820312 258.001953125 405.173828125 266.001953125 c 0
 381.506835938 274.001953125 354.006835938 280.334960938 322.673828125 285.001953125 c 1
 239.673828125 285.001953125 l 1
 221.006835938 193.001953125 207.33984375 124.668945312 198.672851562 80.001953125 c 1
 205.33984375 80.001953125 215.33984375 80.1689453125 228.672851562 80.501953125 c 0
 242.005859375 80.8349609375 253.005859375 81.3349609375 261.672851562 82.001953125 c 0
 291.672851562 83.3349609375 320.672851562 88.16796875 348.672851562 96.5009765625 c 0
 376.672851562 104.833984375 400.33984375 115.166992188 419.672851562 127.5 c 0
 439.005859375 139.833007812 454.505859375 152.5 466.172851562 165.5 c 0
EndSplineSet
EndChar

StartChar: C
Encoding: 67 67 42
Width: 620
GlyphClass: 2
Flags: HMW
HStem: -30.9971 114.001<250.598 312.598 264.931 312.598> 608.005 104.996<543.598 544.598>
LayerCount: 2
Fore
SplineSet
719.930664062 692 m 0
 719.930664062 666 716.264648438 638.336914062 708.931640625 609.00390625 c 0
 704.264648438 589.00390625 701.264648438 577.00390625 699.931640625 573.00390625 c 0
 695.931640625 556.336914062 686.431640625 539.50390625 671.431640625 522.50390625 c 0
 656.431640625 505.50390625 642.264648438 496.336914062 628.931640625 495.00390625 c 0
 626.264648438 495.00390625 623.264648438 494.670898438 619.931640625 494.00390625 c 0
 608.598632812 494.00390625 598.598632812 498.00390625 589.931640625 506.00390625 c 0
 579.67578125 514.208984375 574.546875 524.583984375 574.546875 537.12890625 c 0
 574.546875 540.891601562 575.008789062 544.850585938 575.931640625 549.00390625 c 0
 577.264648438 553.670898438 580.59765625 565.670898438 585.930664062 585.00390625 c 1
 578.59765625 590.336914062 573.930664062 593.836914062 571.930664062 595.50390625 c 0
 569.930664062 597.170898438 566.930664062 599.337890625 562.930664062 602.004882812 c 0
 555.59765625 606.004882812 548.264648438 608.004882812 540.931640625 608.004882812 c 0
 522.264648438 608.004882812 500.264648438 602.004882812 474.931640625 590.004882812 c 0
 449.598632812 578.004882812 423.931640625 560.504882812 397.931640625 537.504882812 c 0
 371.931640625 514.504882812 346.764648438 488.171875 322.431640625 458.504882812 c 0
 298.098632812 428.837890625 276.431640625 395.170898438 257.431640625 357.50390625 c 0
 238.431640625 319.836914062 224.598632812 282.336914062 215.931640625 245.00390625 c 0
 212.754882812 230.88671875 211.166992188 217.001953125 211.166992188 203.3515625 c 0
 211.166992188 191.217773438 212.421875 179.268554688 214.931640625 167.50390625 c 0
 220.264648438 142.50390625 230.764648438 122.170898438 246.431640625 106.50390625 c 0
 262.098632812 90.8369140625 280.598632812 83.00390625 301.931640625 83.00390625 c 0
 323.264648438 83.00390625 344.264648438 85.1708984375 364.931640625 89.50390625 c 0
 385.598632812 93.8369140625 404.598632812 99.3369140625 421.931640625 106.00390625 c 0
 439.264648438 112.670898438 454.431640625 119.50390625 467.431640625 126.50390625 c 0
 480.431640625 133.50390625 492.598632812 140.670898438 503.931640625 148.00390625 c 0
 513.931640625 154.670898438 522.931640625 160.00390625 530.931640625 164.00390625 c 0
 538.931640625 168.00390625 547.431640625 169.836914062 556.431640625 169.50390625 c 0
 565.431640625 169.170898438 572.931640625 166.00390625 578.931640625 160.00390625 c 0
 587.494140625 151.44140625 591.775390625 141.641601562 591.775390625 130.60546875 c 0
 591.775390625 127.034179688 591.327148438 123.333984375 590.430664062 119.50390625 c 0
 586.763671875 103.836914062 575.263671875 86.669921875 555.930664062 68.0029296875 c 0
 487.284179688 1.99609375 394.45703125 -31.0068359375 277.450195312 -31.0068359375 c 0
 276.279296875 -31.0068359375 275.106445312 -31.00390625 273.930664062 -30.9970703125 c 2
 264.930664062 -30.9970703125 l 2
 236.263671875 -30.9970703125 209.930664062 -26.330078125 185.930664062 -16.9970703125 c 0
 162.59765625 -7.6640625 144.264648438 5.0029296875 130.931640625 21.0029296875 c 0
 117.598632812 37.0029296875 106.931640625 55.3359375 98.931640625 76.0029296875 c 0
 90.931640625 96.669921875 86.5986328125 118.669921875 85.931640625 142.002929688 c 0
 85.857421875 144.596679688 85.8203125 147.190429688 85.8203125 149.784179688 c 0
 85.8203125 170.5234375 88.1904296875 191.262695312 92.9306640625 212.001953125 c 0
 104.263671875 260.001953125 119.763671875 306.501953125 139.430664062 351.501953125 c 0
 159.09765625 396.501953125 181.09765625 437.001953125 205.430664062 473.001953125 c 0
 229.763671875 509.001953125 256.596679688 542.334960938 285.9296875 573.001953125 c 0
 315.9296875 603.001953125 346.596679688 628.168945312 377.9296875 648.501953125 c 0
 409.262695312 668.834960938 440.262695312 684.66796875 470.9296875 696.000976562 c 0
 501.596679688 707.333984375 530.263671875 713.000976562 556.930664062 713.000976562 c 0
 578.263671875 713.000976562 597.930664062 711.333984375 615.930664062 708.000976562 c 1
 621.263671875 715.333984375 627.596679688 721.666992188 634.9296875 727 c 0
 645.596679688 735 656.263671875 739.333007812 666.930664062 740 c 0
 670.930664062 740.666992188 673.430664062 741 674.430664062 741 c 2
 675.930664062 741 l 2
 685.930664062 741 694.930664062 737.666992188 702.930664062 731 c 0
 714.263671875 721.666992188 719.930664062 708.666992188 719.930664062 692 c 0
EndSplineSet
EndChar

StartChar: D
Encoding: 68 68 43
Width: 620
GlyphClass: 2
Flags: HMW
HStem: -31 110.001<310.803 368.138 326.136 368.138> 694 20G<259.139 277.805>
LayerCount: 2
Fore
SplineSet
263.638671875 86 m 0
 290.638671875 81.3330078125 322.805664062 79.0009765625 360.138671875 79.0009765625 c 0
 376.138671875 79.0009765625 392.805664062 84.66796875 410.138671875 96.0009765625 c 0
 427.471679688 107.333984375 443.3046875 122.166992188 457.637695312 140.5 c 0
 471.970703125 158.833007812 484.970703125 179.333007812 496.637695312 202 c 0
 508.3046875 224.666992188 516.471679688 246.666992188 521.138671875 268 c 0
 528.09765625 297.98828125 531.576171875 326.2265625 531.576171875 352.71484375 c 0
 531.576171875 432.810546875 499.763671875 496.905273438 436.138671875 545 c 0
 406.138671875 567.666992188 360.138671875 591 298.138671875 615 c 1
 277.471679688 533.666992188 258.471679688 448.666992188 241.138671875 360 c 0
 235.138671875 331.333007812 226.638671875 289.5 215.638671875 234.5 c 0
 204.638671875 179.5 196.138671875 137.333007812 190.138671875 108 c 1
 212.138671875 98 236.638671875 90.6669921875 263.638671875 86 c 0
61.1376953125 62 m 0
 67.8046875 84.6669921875 76.8056640625 120 88.138671875 168 c 0
 108.138671875 256 130.471679688 360.666992188 155.138671875 482 c 0
 162.471679688 518 167.471679688 541.833007812 170.138671875 553.5 c 0
 172.805664062 565.166992188 177.47265625 583 184.139648438 607 c 0
 189.24609375 625.380859375 192.591796875 637.896484375 194.178710938 644.545898438 c 0
 194.283203125 645.229492188 194.603515625 647.046875 195.140625 649.999023438 c 0
 200.473632812 670.666015625 209.806640625 686.333007812 223.139648438 697 c 0
 236.47265625 708.333007812 251.139648438 714 267.139648438 714 c 0
 288.47265625 714 315.47265625 710.666992188 348.139648438 704 c 0
 368.806640625 700 389.806640625 694.5 411.139648438 687.5 c 0
 432.47265625 680.5 454.805664062 670.666992188 478.138671875 658 c 0
 501.471679688 645.333007812 523.138671875 630.833007812 543.138671875 614.5 c 0
 563.138671875 598.166992188 581.138671875 577.333984375 597.138671875 552.000976562 c 0
 611.805664062 527.333984375 623.138671875 500.166992188 631.138671875 470.5 c 0
 638.5234375 443.116210938 642.215820312 411.1875 642.215820312 374.715820312 c 0
 642.215820312 371.67578125 642.190429688 368.603515625 642.138671875 365.5 c 0
 641.471679688 325.166992188 635.8046875 281.666992188 625.137695312 235 c 0
 619.8046875 211.666992188 611.3046875 187.666992188 599.637695312 163 c 0
 587.970703125 138.333007812 573.303710938 114.666015625 555.63671875 91.9990234375 c 0
 537.969726562 69.33203125 518.469726562 48.83203125 497.13671875 30.4990234375 c 0
 475.803710938 12.166015625 451.13671875 -2.6669921875 423.13671875 -14 c 0
 395.979492188 -25.3681640625 368.522460938 -31.052734375 340.767578125 -31.052734375 c 0
 339.224609375 -31.052734375 337.681640625 -31.03515625 336.13671875 -31 c 2
 326.13671875 -31 l 2
 295.469726562 -31 265.13671875 -29.5 235.13671875 -26.5 c 0
 205.13671875 -23.5 181.13671875 -20 163.13671875 -16 c 0
 145.803710938 -12 131.470703125 -8.3330078125 120.137695312 -5 c 0
 108.8046875 -1.6669921875 101.8046875 0 99.1376953125 0 c 0
 83.8046875 0 72.1376953125 5.6669921875 64.1376953125 17 c 0
 59.6923828125 23.6669921875 57.470703125 31.51953125 57.470703125 40.556640625 c 0
 57.470703125 45.0751953125 58.025390625 49.8896484375 59.13671875 55 c 0
 59.8037109375 57.6669921875 60.470703125 60 61.1376953125 62 c 0
194.6796875 646.7109375 m 1
 194.892578125 647.672851562 195.046875 648.435546875 195.140625 649 c 1
 194.962890625 648.11328125 194.809570312 647.349609375 194.6796875 646.7109375 c 1
EndSplineSet
EndChar

StartChar: E
Encoding: 69 69 44
Width: 620
GlyphClass: 2
Flags: HMW
HStem: -20 115 -6 115<480.208 539.873 487.208 539.873> 301 108.999 319 106<562.541 601.206> 589.998 107.998<478.538 509.206 459.206 530.872>
VStem: 201.207 1<640 640>
LayerCount: 2
Fore
SplineSet
277.205078125 704 m 2x8c
 292.538085938 704 304.206054688 698.663085938 312.206054688 687.99609375 c 1
 367.5390625 694.663085938 436.872070312 697.99609375 520.205078125 697.99609375 c 0
 541.538085938 697.99609375 561.87109375 697.663085938 581.204101562 696.99609375 c 0
 619.87109375 695.663085938 649.538085938 693.663085938 670.205078125 690.99609375 c 0
 686.872070312 688.99609375 698.0390625 683.829101562 703.706054688 675.49609375 c 0
 707.559570312 669.830078125 709.486328125 662.853515625 709.486328125 654.56640625 c 0
 709.486328125 650.666015625 709.059570312 646.4765625 708.206054688 641.99609375 c 0
 706.873046875 634.663085938 704.706054688 627.830078125 701.706054688 621.497070312 c 0
 698.706054688 615.1640625 694.873046875 609.331054688 690.206054688 603.998046875 c 0
 684.873046875 597.331054688 677.873046875 591.998046875 669.206054688 587.998046875 c 0
 663.206054688 585.998046875 656.873046875 584.998046875 650.206054688 584.998046875 c 2
 643.206054688 584.998046875 l 2
 601.206054688 588.331054688 556.5390625 589.998046875 509.206054688 589.998046875 c 2
 459.206054688 589.998046875 l 2
 399.873046875 588.665039062 347.873046875 585.33203125 303.206054688 579.999023438 c 1
 287.206054688 522.666015625 272.873046875 465.999023438 260.206054688 409.999023438 c 1
 308.206054688 410.666015625 373.5390625 413.333007812 456.206054688 418 c 0
 536.873046875 422.666992188 582.206054688 425 592.206054688 425 c 0
 610.206054688 425 622.0390625 420.333007812 627.706054688 411 c 0
 631.274414062 405.123046875 633.05859375 398.321289062 633.05859375 390.59375 c 0
 633.05859375 386.049804688 632.44140625 381.184570312 631.20703125 376 c 2
 631.20703125 375 l 2
 627.874023438 359 621.541015625 346.666992188 612.208007812 338 c 0
 600.208007812 325.333007812 585.541015625 319 568.208007812 319 c 0x9c
 556.875 319 508.208007812 316.333007812 422.208007812 311 c 0
 334.208007812 305 272.208007812 301.666992188 236.208007812 301 c 1
 232.875 285 229.375 269 225.708007812 253 c 0
 222.041015625 237 218.541015625 220.333007812 215.208007812 203 c 0
 205.208007812 158.333007812 199.208007812 127.333007812 197.208007812 110 c 0
 196.541015625 104 195.874023438 99 195.20703125 95 c 1xac
 207.20703125 93.6669921875 225.540039062 92.833984375 250.20703125 92.5009765625 c 0
 255.137695312 92.4345703125 260.321289062 92.4013671875 265.7578125 92.4013671875 c 0
 287.51953125 92.4013671875 313.3359375 92.9345703125 343.20703125 94.0009765625 c 0
 430.540039062 97.333984375 486.20703125 101.666992188 510.20703125 107 c 0
 520.20703125 108.333007812 528.874023438 109 536.20703125 109 c 0
 543.540039062 109 549.70703125 107.333007812 554.70703125 104 c 0
 559.70703125 100.666992188 563.70703125 97.1669921875 566.70703125 93.5 c 0
 569.70703125 89.8330078125 571.540039062 85.3330078125 572.20703125 80 c 0
 572.874023438 74.6669921875 573.20703125 70 573.20703125 66 c 0
 573.20703125 62 572.874023438 57.6669921875 572.20703125 53 c 0
 568.874023438 37.6669921875 560.541015625 23.6669921875 547.208007812 11 c 0
 535.208007812 -0.3330078125 521.208007812 -6.3330078125 505.208007812 -7 c 1
 502.541015625 1.6669921875 497.541015625 2 490.208007812 -6 c 1
 487.208007812 -6 l 2x4c
 473.208007812 -6 446.208007812 -7.3330078125 406.208007812 -10 c 0
 364.875 -12.6669921875 322.541992188 -15 279.208984375 -17 c 0
 235.875976562 -19 203.208984375 -20 181.208984375 -20 c 0
 159.875976562 -20 142.875976562 -19.3330078125 130.208984375 -18 c 0
 113.541992188 -16.6669921875 98.875 -8 86.2080078125 8 c 0
 75.744140625 20.666015625 70.5126953125 35.8349609375 70.5126953125 53.505859375 c 0
 70.5126953125 57.2265625 70.744140625 61.0576171875 71.2080078125 65 c 0
 72.541015625 81 77.8740234375 109 87.20703125 149 c 0
 95.8740234375 185.666992188 104.70703125 222.5 113.70703125 259.5 c 0
 122.70703125 296.5 130.20703125 328 136.20703125 354 c 0
 142.20703125 380 149.540039062 415.666992188 158.20703125 461 c 0
 166.20703125 499.666992188 171.70703125 525.5 174.70703125 538.5 c 0
 177.70703125 551.5 182.540039062 570 189.20703125 594 c 0
 195.201171875 615.578125 199.0390625 630.150390625 200.721679688 637.716796875 c 1
 200.010742188 634.133789062 200.504882812 634.89453125 202.20703125 640 c 0
 207.540039062 660.666992188 216.873046875 676.5 230.206054688 687.5 c 0
 243.5390625 698.5 257.872070312 704 273.205078125 704 c 2
 277.205078125 704 l 2x8c
200.721679688 637.716796875 m 1
 200.846679688 638.344726562 201.008789062 639.10546875 201.20703125 640 c 1
 201.072265625 639.327148438 200.911132812 638.56640625 200.721679688 637.716796875 c 1
EndSplineSet
EndChar

StartChar: F
Encoding: 70 70 45
Width: 620
GlyphClass: 2
Flags: HMW
HStem: -21.002 21G<94.6162 102.283 102.283 105.283> 313.498 106.502 597 110<512.615 552.615> 694 20G<275.282 280.282 280.282 288.282>
LayerCount: 2
Fore
SplineSet
280.282226562 714 m 2xd0
 296.282226562 714 307.94921875 708.666992188 315.282226562 698 c 1
 396.615234375 704 474.948242188 707 550.28125 707 c 0
 599.614257812 707 639.947265625 705.333007812 671.280273438 702 c 0
 687.947265625 700.666992188 699.114257812 695.666992188 704.78125 687 c 0
 708.969726562 680.59375 711.063476562 672.548828125 711.063476562 662.865234375 c 0
 711.063476562 659.447265625 710.802734375 655.825195312 710.28125 651.999023438 c 0
 708.28125 643.33203125 707.948242188 643.33203125 709.28125 651.999023438 c 1
 705.948242188 636.666015625 698.615234375 623.333007812 687.282226562 612 c 0
 675.94921875 600.666992188 661.282226562 595 643.282226562 595 c 2
 641.282226562 595 l 2
 607.94921875 596.333007812 571.94921875 597 533.282226562 597 c 0xe0
 461.282226562 597 385.282226562 594.333007812 305.282226562 589 c 1
 302.615234375 579 298.282226562 563.666992188 292.282226562 543 c 0
 281.615234375 503.666992188 272.615234375 467 265.282226562 433 c 0
 263.94921875 427 262.616210938 421.333007812 261.283203125 416 c 1
 287.283203125 418.666992188 315.283203125 420 345.283203125 420 c 0
 353.283203125 420 361.283203125 419.666992188 369.283203125 419 c 0
 413.283203125 418.333007812 452.950195312 416.666015625 488.283203125 413.999023438 c 0
 524.283203125 411.33203125 551.116210938 408.165039062 568.783203125 404.498046875 c 0
 586.450195312 400.831054688 597.950195312 395.1640625 603.283203125 387.497070312 c 0
 607.162109375 381.920898438 609.1015625 374.846679688 609.1015625 366.2734375 c 0
 609.1015625 363.05859375 608.829101562 359.6328125 608.283203125 355.997070312 c 1
 608.283203125 356.6640625 607.950195312 356.6640625 607.283203125 355.997070312 c 0
 603.950195312 341.997070312 598.283203125 329.6640625 590.283203125 318.997070312 c 0
 584.950195312 312.330078125 577.6171875 307.330078125 568.284179688 303.997070312 c 0
 562.284179688 301.997070312 555.951171875 300.997070312 549.284179688 300.997070312 c 2
 542.284179688 300.997070312 l 2
 524.284179688 304.330078125 497.284179688 307.330078125 461.284179688 309.997070312 c 0
 426.909179688 312.368164062 391.348632812 313.553710938 354.603515625 313.553710938 c 0
 350.014648438 313.553710938 345.408203125 313.53515625 340.783203125 313.498046875 c 0
 299.116210938 313.165039062 264.616210938 311.665039062 237.283203125 308.998046875 c 1
 219.950195312 222.331054688 201.950195312 130.998046875 183.283203125 34.998046875 c 0
 177.283203125 16.998046875 165.616210938 2.998046875 148.283203125 -7.001953125 c 0
 134.283203125 -16.3349609375 119.950195312 -21.001953125 105.283203125 -21.001953125 c 2
 102.283203125 -21.001953125 l 2
 86.9501953125 -21.001953125 75.283203125 -15.3349609375 67.283203125 -4.001953125 c 0
 63.1162109375 2.248046875 61.033203125 9.669921875 61.033203125 18.263671875 c 0
 61.033203125 23.419921875 61.783203125 28.998046875 63.283203125 34.998046875 c 0
 63.9501953125 36.998046875 64.283203125 39.3310546875 64.283203125 41.998046875 c 0
 70.283203125 62.6650390625 79.283203125 97.33203125 91.283203125 145.999023438 c 0
 112.616210938 237.999023438 133.94921875 339.666015625 155.282226562 450.999023438 c 0
 163.94921875 494.33203125 170.116210938 523.499023438 173.783203125 538.499023438 c 0
 177.450195312 553.499023438 182.783203125 573.499023438 189.783203125 598.499023438 c 0
 196.783203125 623.499023438 201.283203125 640.666015625 203.283203125 649.999023438 c 0
 208.616210938 670.666015625 217.94921875 686.333007812 231.282226562 697 c 0
 244.615234375 708.333007812 259.282226562 714 275.282226562 714 c 2
 280.282226562 714 l 2xd0
EndSplineSet
EndChar

StartChar: G
Encoding: 71 71 46
Width: 620
GlyphClass: 2
Flags: HMW
HStem: -31 114<250.857 308.188> 619 105<545.523 546.52>
LayerCount: 2
Fore
SplineSet
84.1845703125 142 m 2
 84.1845703125 150 l 2
 84.1845703125 171 86.1845703125 191 91.1845703125 212 c 0
 102.184570312 261 118.184570312 308 138.184570312 354 c 0
 158.184570312 400 180.184570312 442 205.184570312 479 c 0
 230.184570312 516 257.184570312 549 286.184570312 580 c 0
 317.184570312 611 348.184570312 637 379.184570312 658 c 0
 410.184570312 679 440.184570312 695 471.184570312 706 c 0
 502.184570312 718 532.184570312 724 560.184570312 724 c 0
 588.184570312 724 618.184570312 717 649.184570312 704 c 0
 680.184570312 690 699.184570312 678 707.184570312 667 c 0
 713.184570312 658 716.184570312 649 716.184570312 639 c 0
 716.184570312 634 715.184570312 629 714.184570312 624 c 0
 712.184570312 616 709.184570312 607 704.184570312 598 c 0
 698.184570312 586 688.184570312 577 674.184570312 572 c 0
 667.184570312 569 661.184570312 568 654.184570312 568 c 0
 647.184570312 568 642.184570312 569 638.184570312 571 c 0
 634.184570312 573 625.184570312 578 613.184570312 587 c 0
 601.184570312 596 589.184570312 604 576.184570312 610 c 0
 563.184570312 616 552.184570312 619 541.184570312 619 c 0
 522.184570312 619 501.184570312 613 476.184570312 601 c 0
 451.184570312 589 425.184570312 571 398.184570312 547 c 0
 371.184570312 523 346.184570312 496 322.184570312 465 c 0
 298.184570312 434 276.184570312 400 257.184570312 361 c 0
 238.184570312 322 223.184570312 284 214.184570312 245 c 0
 211.184570312 231 209.184570312 217 209.184570312 203 c 0
 209.184570312 191 210.184570312 180 213.184570312 168 c 0
 218.184570312 143 229.184570312 123 245.184570312 107 c 0
 261.184570312 91 280.184570312 83 301.184570312 83 c 0
 315.184570312 83 331.184570312 88 348.184570312 97 c 0
 365.184570312 106 383.184570312 117 399.184570312 132 c 0
 415.184570312 147 431.184570312 163 447.184570312 182 c 0
 472.184570312 211 493.184570312 240 510.184570312 270 c 1
 474.184570312 268 437.184570312 265 399.184570312 260 c 0
 361.184570312 255 334.184570312 248 318.184570312 241 c 0
 310.184570312 237 303.184570312 235 295.184570312 235 c 0
 287.184570312 235 280.184570312 237 273.184570312 242 c 0
 263.184570312 249 258.184570312 259 258.184570312 270 c 2
 258.184570312 276 l 2
 258.184570312 279 258.184570312 283 259.184570312 286 c 0
 262.184570312 300 270.184570312 313 283.184570312 324 c 0
 292.184570312 332 304.184570312 339 319.184570312 345 c 0
 342.184570312 355 386.184570312 362 451.184570312 367 c 0
 498.184570312 370 536.184570312 372 567.184570312 373 c 0
 578.184570312 373 589.184570312 373 598.184570312 372 c 0
 615.184570312 371 627.184570312 367 634.184570312 360 c 0
 640.184570312 354 643.184570312 346 643.184570312 335 c 0
 643.184570312 330 642.184570312 325 641.184570312 319 c 0
 636.184570312 299 626.184570312 285 609.184570312 276 c 1
 605.184570312 264 l 2
 604.184570312 261 602.184570312 255 600.184570312 247 c 0
 590.184570312 218 569.184570312 182 537.184570312 138 c 0
 522.184570312 117 504.184570312 97 484.184570312 76 c 0
 463.184570312 56 441.184570312 38 418.184570312 22 c 0
 395.184570312 6 371.184570312 -6 344.184570312 -16 c 0
 317.184570312 -26 291.184570312 -31 266.184570312 -31 c 0
 235.184570312 -31 208.184570312 -26 185.184570312 -17 c 0
 162.184570312 -8 144.184570312 5 130.184570312 21 c 0
 116.184570312 37 105.184570312 55 97.1845703125 76 c 0
 89.1845703125 97 85.1845703125 119 84.1845703125 142 c 2
EndSplineSet
EndChar

StartChar: H
Encoding: 72 72 47
Width: 620
GlyphClass: 2
Flags: HMW
HStem: -21 21G<101.867 109.534 109.534 112.534> 312 86.0049 694.005 20G<291.534 295.534 295.534 302.867>
LayerCount: 2
Fore
SplineSet
69.533203125 34 m 0
 70.2001953125 36.6669921875 71.2021484375 39.3369140625 72.53515625 42.00390625 c 0
 77.8681640625 60.00390625 88.53515625 104.336914062 104.53515625 175.00390625 c 0
 113.868164062 215.670898438 126.03515625 265.170898438 141.03515625 323.50390625 c 2
 168.03515625 428.50390625 l 2
 171.03515625 440.170898438 173.868164062 451.837890625 176.53515625 463.504882812 c 0
 179.202148438 475.171875 183.369140625 494.671875 189.036132812 522.004882812 c 0
 194.703125 549.337890625 198.703125 567.504882812 201.036132812 576.504882812 c 0
 203.369140625 585.504882812 205.702148438 594.671875 208.03515625 604.004882812 c 0
 210.368164062 613.337890625 211.868164062 619.170898438 212.53515625 621.50390625 c 0
 213.202148438 623.836914062 213.869140625 626.50390625 214.536132812 629.50390625 c 0
 215.203125 632.50390625 216.036132812 635.50390625 217.036132812 638.50390625 c 0
 218.036132812 641.50390625 218.869140625 644.170898438 219.536132812 646.50390625 c 2
 220.536132812 650.00390625 l 2
 225.869140625 670.670898438 235.202148438 686.337890625 248.53515625 697.004882812 c 0
 261.868164062 708.337890625 276.201171875 714.004882812 291.534179688 714.004882812 c 2
 295.534179688 714.004882812 l 2
 310.201171875 714.004882812 321.868164062 709.337890625 330.53515625 700.004882812 c 0
 337.056640625 693.047851562 340.317382812 683.681640625 340.317382812 671.904296875 c 0
 340.317382812 665.624023438 339.389648438 658.657226562 337.53515625 651.004882812 c 0
 336.202148438 643.671875 332.03515625 629.004882812 325.03515625 607.004882812 c 0
 318.03515625 585.004882812 312.53515625 565.171875 308.53515625 547.504882812 c 0
 304.53515625 529.837890625 299.202148438 505.004882812 292.53515625 473.004882812 c 0
 285.868164062 441.004882812 280.53515625 416.004882812 276.53515625 398.004882812 c 1
 331.202148438 398.671875 397.869140625 404.671875 476.536132812 416.004882812 c 0
 499.869140625 419.337890625 518.202148438 421.670898438 531.53515625 423.00390625 c 0
 532.202148438 425.670898438 533.03515625 430.170898438 534.03515625 436.50390625 c 0
 535.03515625 442.836914062 538.03515625 457.669921875 543.03515625 481.002929688 c 0
 548.03515625 504.3359375 552.03515625 522.502929688 555.03515625 535.502929688 c 0
 558.03515625 548.502929688 563.202148438 569.002929688 570.53515625 597.002929688 c 0
 577.868164062 625.002929688 582.53515625 642.002929688 584.53515625 648.002929688 c 0
 589.868164062 669.3359375 599.53515625 685.668945312 613.53515625 697.001953125 c 0
 627.53515625 708.334960938 641.868164062 714.001953125 656.53515625 714.001953125 c 2
 660.53515625 714.001953125 l 2
 675.868164062 714.001953125 687.53515625 709.334960938 695.53515625 700.001953125 c 0
 701.756835938 692.890625 704.868164062 683.41015625 704.868164062 671.55859375 c 0
 704.868164062 665.631835938 704.08984375 659.11328125 702.534179688 652.001953125 c 0
 699.8671875 639.334960938 693.534179688 614.334960938 683.534179688 577.001953125 c 0
 671.534179688 530.334960938 661.3671875 488.501953125 653.034179688 451.501953125 c 0
 644.701171875 414.501953125 638.201171875 385.168945312 633.534179688 363.501953125 c 0
 628.8671875 341.834960938 624.8671875 321.66796875 621.534179688 303.000976562 c 0
 612.8671875 266.333984375 600.8671875 219.500976562 585.534179688 162.500976562 c 0
 570.201171875 105.500976562 560.201171875 65.66796875 555.534179688 43.0009765625 c 2
 553.534179688 35.0009765625 l 2
 548.201171875 17.0009765625 537.201171875 3.0009765625 520.534179688 -6.9990234375 c 0
 506.534179688 -16.33203125 492.201171875 -20.9990234375 477.534179688 -20.9990234375 c 2
 474.534179688 -20.9990234375 l 2
 459.201171875 -20.9990234375 447.534179688 -15.33203125 439.534179688 -3.9990234375 c 0
 434.7890625 2.9033203125 432.416992188 10.921875 432.416992188 20.056640625 c 0
 432.416992188 25.0390625 433.122070312 30.3544921875 434.534179688 36.0009765625 c 0
 435.201171875 38.0009765625 435.534179688 40.333984375 435.534179688 43.0009765625 c 0
 460.8671875 126.333984375 485.534179688 219.666992188 509.534179688 323 c 2
 513.534179688 341 l 1
 492.201171875 339 451.534179688 333.833007812 391.534179688 325.5 c 0
 331.534179688 317.166992188 285.534179688 312.666992188 253.534179688 312 c 1
 252.201171875 307.333007812 251.534179688 304.333007812 251.534179688 303 c 0
 241.534179688 269.666992188 231.3671875 231 221.034179688 187 c 0
 210.701171875 143 200.201171875 92.6669921875 189.534179688 36 c 0
 182.8671875 17.3330078125 171.534179688 3 155.534179688 -7 c 0
 141.534179688 -16.3330078125 127.201171875 -21 112.534179688 -21 c 2
 109.534179688 -21 l 2
 94.201171875 -21 82.5341796875 -15.3330078125 74.5341796875 -4 c 0
 70.0888671875 2.6669921875 67.8671875 10.51953125 67.8671875 19.556640625 c 0
 67.8671875 24.0751953125 68.421875 28.8896484375 69.533203125 34 c 0
EndSplineSet
EndChar

StartChar: I
Encoding: 73 73 48
Width: 620
GlyphClass: 2
Flags: HMW
HStem: -11.002 103<508.82 520.32 508.82 508.82> -6.00098 97.999<405.487 529.824> 600.997 108.999<298.824 482.49 306.824 482.49>
LayerCount: 2
Fore
SplineSet
192.8203125 -12 m 1x60
 151.487304688 -13.3330078125 123.16015625 -14.001953125 107.827148438 -14.001953125 c 0
 89.16015625 -14.001953125 75.8271484375 -9.6689453125 67.8271484375 -1.001953125 c 0
 61.5673828125 5.2578125 58.4375 12.908203125 58.4375 21.9501953125 c 0
 58.4375 25.4267578125 58.900390625 29.109375 59.826171875 32.998046875 c 2
 59.826171875 35.998046875 l 2
 62.4931640625 49.3310546875 69.826171875 60.8310546875 81.826171875 70.498046875 c 0
 93.826171875 80.1650390625 109.159179688 85.6650390625 127.826171875 86.998046875 c 1
 129.159179688 92.3310546875 129.4921875 92.3310546875 128.825195312 86.998046875 c 1
 154.158203125 88.3310546875 198.825195312 89.6640625 262.825195312 90.9970703125 c 1
 283.4921875 160.330078125 302.4921875 232.663085938 319.825195312 307.99609375 c 0
 329.158203125 347.329101562 337.825195312 386.99609375 345.825195312 426.99609375 c 0
 351.158203125 455.663085938 357.491210938 486.663085938 364.82421875 519.99609375 c 0
 366.157226562 527.329101562 367.657226562 534.329101562 369.32421875 540.99609375 c 0
 370.991210938 547.663085938 373.82421875 557.830078125 377.82421875 571.497070312 c 0
 381.82421875 585.1640625 384.82421875 594.997070312 386.82421875 600.997070312 c 1
 306.82421875 600.997070312 l 2
 290.82421875 600.997070312 274.157226562 600.6640625 256.82421875 599.997070312 c 2
 254.82421875 599.997070312 l 2
 237.491210938 599.997070312 224.82421875 604.6640625 216.82421875 613.997070312 c 0
 210.82421875 620.997070312 207.82421875 629.68359375 207.82421875 640.05859375 c 0
 207.82421875 643.516601562 208.157226562 647.163085938 208.82421875 650.99609375 c 0
 208.82421875 651.663085938 209.157226562 652.663085938 209.82421875 653.99609375 c 0
 213.157226562 667.99609375 220.82421875 680.49609375 232.82421875 691.49609375 c 0
 244.82421875 702.49609375 260.491210938 707.99609375 279.82421875 707.99609375 c 0
 333.82421875 709.329101562 385.157226562 709.99609375 433.82421875 709.99609375 c 0
 531.157226562 709.99609375 610.157226562 706.99609375 670.82421875 700.99609375 c 0
 684.82421875 699.663085938 695.491210938 695.330078125 702.82421875 687.997070312 c 0
 709.701171875 681.120117188 713.139648438 672.071289062 713.139648438 660.850585938 c 0
 713.139648438 656.84375 712.701171875 652.559570312 711.82421875 647.998046875 c 0
 708.491210938 633.331054688 701.158203125 619.6640625 689.825195312 606.997070312 c 0
 683.825195312 599.6640625 676.158203125 593.997070312 666.825195312 589.997070312 c 0
 660.825195312 587.997070312 655.158203125 586.6640625 649.825195312 585.997070312 c 0
 646.4921875 585.997070312 643.159179688 586.330078125 639.826171875 586.997070312 c 0
 623.826171875 589.6640625 581.493164062 593.331054688 512.826171875 597.998046875 c 1
 510.826171875 590.665039062 507.493164062 577.33203125 502.826171875 557.999023438 c 0
 498.159179688 539.33203125 494.4921875 524.999023438 491.825195312 514.999023438 c 0
 489.158203125 504.999023438 486.491210938 494.666015625 483.82421875 483.999023438 c 0
 474.491210938 443.999023438 467.32421875 411.33203125 462.32421875 385.999023438 c 0
 457.32421875 360.666015625 451.657226562 334.666015625 445.32421875 307.999023438 c 0
 438.991210938 281.33203125 429.32421875 243.665039062 416.32421875 194.998046875 c 0
 403.32421875 146.331054688 394.491210938 112.331054688 389.82421875 92.998046875 c 1
 416.491210938 92.998046875 437.82421875 92.6650390625 453.82421875 91.998046875 c 2
 529.82421875 91.998046875 l 1
 531.157226562 97.3310546875 531.490234375 97.3310546875 530.823242188 91.998046875 c 1xa0
 532.15625 97.3310546875 532.489257812 97.3310546875 531.822265625 91.998046875 c 1
 533.155273438 97.3310546875 533.48828125 97.3310546875 532.821289062 91.998046875 c 1x60
 534.154296875 97.3310546875 534.487304688 97.3310546875 533.8203125 91.998046875 c 1
 551.8203125 91.998046875 563.653320312 87.498046875 569.3203125 78.498046875 c 0
 573.173828125 72.3779296875 575.100585938 65.1025390625 575.100585938 56.6708984375 c 0
 575.100585938 52.7021484375 574.673828125 48.478515625 573.8203125 43.998046875 c 0
 572.487304688 37.3310546875 570.487304688 30.998046875 567.8203125 24.998046875 c 0
 565.153320312 18.998046875 561.486328125 12.998046875 556.819335938 6.998046875 c 0
 550.819335938 -0.3349609375 543.486328125 -5.3349609375 534.819335938 -8.001953125 c 0
 529.486328125 -10.001953125 524.653320312 -11.001953125 520.3203125 -11.001953125 c 2
 508.8203125 -11.001953125 l 2xa0
 492.8203125 -8.3349609375 465.153320312 -6.66796875 425.8203125 -6.0009765625 c 0
 385.153320312 -6.0009765625 347.8203125 -6.66796875 313.8203125 -8.0009765625 c 1
 297.708007812 -5.22265625 281.306640625 -3.833984375 264.616210938 -3.833984375 c 0
 241.250976562 -3.833984375 217.319335938 -6.5556640625 192.8203125 -12 c 1x60
EndSplineSet
EndChar

StartChar: J
Encoding: 74 74 49
Width: 620
GlyphClass: 2
Flags: HMW
HStem: -34.998 125.999<288.813 294.482> 600.001 109.999<412.147 442.148>
LayerCount: 2
Fore
SplineSet
470.1484375 217 m 0
 432.815429688 101 393.48046875 26.3349609375 352.147460938 -6.998046875 c 0
 330.147460938 -25.6650390625 306.814453125 -34.998046875 282.147460938 -34.998046875 c 0
 257.48046875 -34.998046875 234.48046875 -30.6650390625 213.147460938 -21.998046875 c 0
 191.814453125 -13.3310546875 174.147460938 -2.3310546875 160.147460938 11.001953125 c 0
 147.48046875 25.001953125 136.313476562 40.1689453125 126.646484375 56.501953125 c 0
 116.979492188 72.8349609375 109.479492188 89.001953125 104.146484375 105.001953125 c 0
 98.8134765625 121.001953125 95.146484375 135.501953125 93.146484375 148.501953125 c 0
 91.646484375 158.251953125 90.896484375 166.782226562 90.896484375 174.094726562 c 0
 90.896484375 176.532226562 90.9794921875 178.834960938 91.146484375 181.001953125 c 0
 91.146484375 188.334960938 92.646484375 196.501953125 95.646484375 205.501953125 c 0
 98.646484375 214.501953125 102.146484375 223.001953125 106.146484375 231.001953125 c 0
 110.813476562 241.001953125 117.646484375 249.501953125 126.646484375 256.501953125 c 0
 135.646484375 263.501953125 146.146484375 268.334960938 158.146484375 271.001953125 c 0
 162.146484375 271.668945312 166.146484375 271.668945312 170.146484375 271.001953125 c 0
 182.813476562 271.001953125 192.146484375 267.001953125 198.146484375 259.001953125 c 0
 203.479492188 251.890625 206.146484375 243.446289062 206.146484375 233.66796875 c 0
 206.146484375 228.779296875 205.479492188 223.556640625 204.146484375 218.000976562 c 0
 202.864257812 212.103515625 202.223632812 205.6640625 202.223632812 198.682617188 c 0
 202.223632812 187.510742188 203.864257812 174.950195312 207.146484375 161.000976562 c 0
 209.813476562 148.333984375 214.313476562 136.833984375 220.646484375 126.500976562 c 0
 226.979492188 116.16796875 236.8125 107.66796875 250.145507812 101.000976562 c 0
 263.478515625 94.333984375 279.478515625 91.0009765625 298.145507812 91.0009765625 c 0
 298.8125 91.0009765625 299.8125 91.333984375 301.145507812 92.0009765625 c 0
 305.8125 95.333984375 311.479492188 103.000976562 318.146484375 115.000976562 c 0
 333.479492188 143.000976562 348.479492188 186.333984375 363.146484375 245.000976562 c 2
 363.646484375 247.000976562 l 2
 363.979492188 248.333984375 365.479492188 255.166992188 368.146484375 267.5 c 0
 370.813476562 279.833007812 377.813476562 313 389.146484375 367 c 0
 405.813476562 447.666992188 423.48046875 525.333984375 442.147460938 600.000976562 c 1
 407.48046875 601.000976562 374.897460938 601.500976562 344.397460938 601.500976562 c 0
 313.897460938 601.500976562 285.48046875 601.000976562 259.147460938 600.000976562 c 2
 257.147460938 600.000976562 l 2
 239.814453125 600.000976562 227.147460938 604.66796875 219.147460938 614.000976562 c 0
 213.5 620.588867188 210.676757812 628.671875 210.676757812 638.25 c 0
 210.676757812 642.240234375 211.166992188 646.490234375 212.147460938 651 c 2
 212.147460938 654 l 2
 215.48046875 668 223.313476562 680.5 235.646484375 691.5 c 0
 247.979492188 702.5 263.479492188 708 282.146484375 708 c 0
 336.813476562 709.333007812 388.146484375 710 436.146484375 710 c 0
 533.479492188 710 612.479492188 707 673.146484375 701 c 0
 687.146484375 699.666992188 697.479492188 695.333984375 704.146484375 688.000976562 c 0
 711.405273438 680.7421875 715.034179688 671.063476562 715.034179688 658.965820312 c 0
 715.034179688 655.508789062 714.73828125 651.854492188 714.145507812 648.001953125 c 0
 710.8125 633.334960938 703.479492188 619.66796875 692.146484375 607.000976562 c 0
 686.146484375 599.66796875 678.479492188 594.000976562 669.146484375 590.000976562 c 0
 663.146484375 588.000976562 657.479492188 586.66796875 652.146484375 586.000976562 c 0
 648.813476562 586.000976562 645.146484375 586.333984375 641.146484375 587.000976562 c 0
 622.479492188 590.333984375 593.146484375 593.333984375 553.146484375 596.000976562 c 1
 549.813476562 579.333984375 538.48046875 521.000976562 519.147460938 421.000976562 c 0
 513.814453125 393.66796875 508.981445312 370.66796875 504.6484375 352.000976562 c 0
 500.315429688 333.333984375 497.815429688 321.666992188 497.1484375 317 c 0
 487.1484375 275 478.1484375 241.666992188 470.1484375 217 c 0
EndSplineSet
EndChar

StartChar: K
Encoding: 75 75 50
Width: 620
GlyphClass: 2
Flags: HMW
HStem: -21 21G<99.1857 106.852 106.852 109.851> 693.998 21G
LayerCount: 2
Fore
SplineSet
109.850585938 -21 m 2
 106.8515625 -21 l 2
 91.5185546875 -21 79.5185546875 -16.6669921875 70.8515625 -8 c 0
 65.8095703125 -2.5 63.2890625 4.2607421875 63.2890625 12.2822265625 c 0
 63.2890625 15.927734375 63.8095703125 19.833984375 64.8515625 24 c 0
 65.5185546875 26.6669921875 66.5185546875 29.333984375 67.8515625 32.0009765625 c 0
 74.5185546875 53.333984375 83.185546875 88.6669921875 93.8525390625 138 c 0
 115.852539062 233.333007812 138.185546875 338.666015625 160.852539062 453.999023438 c 0
 169.51953125 495.999023438 175.51953125 524.999023438 178.852539062 540.999023438 c 0
 182.185546875 556.33203125 187.852539062 577.999023438 195.852539062 605.999023438 c 0
 203.852539062 634.666015625 208.852539062 652.666015625 210.852539062 659.999023438 c 0
 215.51953125 677.33203125 224.186523438 690.999023438 236.853515625 700.999023438 c 0
 249.296875 709.709960938 262.612304688 714.064453125 276.797851562 714.064453125 c 0
 277.811523438 714.064453125 278.830078125 714.04296875 279.852539062 713.998046875 c 2
 282.852539062 713.998046875 l 2
 297.51953125 713.998046875 309.51953125 710.331054688 318.852539062 702.998046875 c 0
 325.995117188 696.807617188 329.56640625 688.236328125 329.56640625 677.284179688 c 0
 329.56640625 672.90234375 328.995117188 668.140625 327.852539062 662.998046875 c 0
 324.51953125 646.998046875 316.51953125 615.331054688 303.852539062 567.998046875 c 0
 291.185546875 521.331054688 281.518554688 482.998046875 274.8515625 452.998046875 c 1
 302.184570312 472.998046875 341.517578125 501.665039062 392.850585938 538.998046875 c 0
 504.850585938 627.665039062 571.18359375 679.33203125 591.850585938 693.999023438 c 0
 604.517578125 702.666015625 615.850585938 708.666015625 625.850585938 711.999023438 c 0
 632.517578125 713.999023438 638.184570312 714.999023438 642.8515625 714.999023438 c 0
 647.518554688 714.999023438 651.185546875 714.666015625 653.852539062 713.999023438 c 0
 661.185546875 711.999023438 667.518554688 708.33203125 672.8515625 702.999023438 c 0
 680.184570312 694.999023438 682.8515625 685.999023438 680.8515625 675.999023438 c 0
 676.8515625 657.999023438 665.518554688 638.666015625 646.8515625 617.999023438 c 0
 634.184570312 605.33203125 592.184570312 568.999023438 520.8515625 508.999023438 c 0
 448.184570312 452.999023438 384.517578125 404.33203125 329.850585938 362.999023438 c 1
 347.850585938 338.999023438 377.18359375 303.33203125 417.850585938 255.999023438 c 0
 459.18359375 211.33203125 494.850585938 170.999023438 524.850585938 134.999023438 c 0
 540.18359375 112.999023438 551.18359375 95.666015625 557.850585938 82.9990234375 c 0
 565.18359375 67.666015625 568.850585938 56.9990234375 568.850585938 50.9990234375 c 0
 568.850585938 42.33203125 568.18359375 33.9990234375 566.850585938 25.9990234375 c 0
 565.517578125 20.666015625 563.184570312 15.3330078125 559.8515625 10 c 0
 553.184570312 0.6669921875 544.184570312 -6.666015625 532.8515625 -11.9990234375 c 0
 518.306640625 -18.0595703125 508.719726562 -21.08984375 504.091796875 -21.08984375 c 0
 503.62890625 -21.08984375 503.215820312 -21.0595703125 502.8515625 -20.9990234375 c 2
 501.8515625 -20.9990234375 l 2
 485.184570312 -20.9990234375 471.517578125 -12.666015625 460.850585938 4.0009765625 c 0
 456.850585938 12.0009765625 438.517578125 35.0009765625 405.850585938 73.0009765625 c 0
 373.18359375 110.333984375 338.18359375 151.333984375 300.850585938 196.000976562 c 0
 272.850585938 225.333984375 250.517578125 250.333984375 233.850585938 271.000976562 c 1
 185.850585938 25.0009765625 l 2
 180.517578125 10.333984375 169.517578125 -1.3330078125 152.850585938 -10 c 0
 138.850585938 -17.3330078125 124.517578125 -21 109.850585938 -21 c 2
EndSplineSet
EndChar

StartChar: L
Encoding: 76 76 51
Width: 620
GlyphClass: 2
Flags: HMW
HStem: -9 105 686 20G<301.855 304.855 304.855 312.522>
LayerCount: 2
Fore
SplineSet
63.8564453125 26 m 0
 63.8564453125 31 64.8564453125 36 65.8564453125 41 c 0
 66.8564453125 43 66.8564453125 46 67.8564453125 50 c 0
 68.8564453125 54 80.8564453125 90 103.856445312 159 c 0
 126.856445312 228 147.856445312 294 164.856445312 357 c 0
 169.856445312 376 175.856445312 400 182.856445312 428 c 0
 188.822265625 452.856445312 204.673828125 523.188476562 229.427734375 638.994140625 c 0
 229.541015625 639.791015625 229.68359375 640.791015625 229.856445312 642 c 0
 234.856445312 663 243.856445312 679 257.856445312 690 c 0
 271.856445312 701 286.856445312 706 301.856445312 706 c 2
 304.856445312 706 l 2
 319.856445312 706 331.856445312 701 340.856445312 692 c 0
 347.856445312 685 351.856445312 676 351.856445312 664 c 0
 351.856445312 658 350.856445312 652 348.856445312 645 c 0
 344.856445312 626 338.856445312 601 329.856445312 569 c 0
 318.856445312 526 307.856445312 485 297.856445312 447 c 0
 286.856445312 406 274.856445312 364 263.856445312 321 c 0
 256.856445312 294 244.856445312 256 229.856445312 208 c 0
 214.856445312 160 204.856445312 123 197.856445312 96 c 1
 200.856445312 104 200.856445312 104 199.856445312 96 c 1
 252.856445312 96 315.856445312 99 388.856445312 106 c 0
 459.856445312 113 507.856445312 119 531.856445312 125 c 0
 535.856445312 126 539.856445312 127 544.856445312 127 c 0
 549.856445312 127 553.856445312 126 557.856445312 125 c 0
 564.856445312 122 570.856445312 116 574.856445312 108 c 0
 577.856445312 101 578.856445312 94 578.856445312 87 c 0
 579.856445312 79 578.856445312 72 577.856445312 66 c 0
 574.856445312 51 567.856445312 40 557.856445312 30 c 0
 547.856445312 20 534.856445312 13 515.856445312 10 c 0
 470.856445312 1 400.856445312 -5 306.856445312 -9 c 0
 212.856445312 -13 145.856445312 -15 104.856445312 -15 c 0
 89.8564453125 -15 77.8564453125 -9 70.8564453125 2 c 0
 66.8564453125 9 63.8564453125 17 63.8564453125 26 c 0
EndSplineSet
EndChar

StartChar: M
Encoding: 77 77 52
Width: 620
GlyphClass: 2
Flags: HMW
HStem: -10.002 21G<78.0696 81.4031 81.4031 83.4031>
LayerCount: 2
Fore
SplineSet
154.407226562 63 m 2
 152.40234375 52.998046875 l 2
 148.40234375 34.998046875 140.069335938 19.998046875 127.40234375 7.998046875 c 0
 113.40234375 -4.001953125 98.7353515625 -10.001953125 83.40234375 -10.001953125 c 2
 81.40234375 -10.001953125 l 2
 74.7353515625 -10.001953125 68.7353515625 -8.6689453125 63.40234375 -6.001953125 c 0
 56.0693359375 -2.001953125 51.40234375 5.3310546875 49.40234375 15.998046875 c 0
 49.1064453125 18.6640625 48.9580078125 21.52734375 48.9580078125 24.5888671875 c 0
 48.9580078125 35.3046875 50.7734375 48.44140625 54.4033203125 63.998046875 c 0
 56.4033203125 72.6650390625 60.4033203125 86.998046875 66.4033203125 106.998046875 c 0
 72.4033203125 126.331054688 80.736328125 151.998046875 91.4033203125 183.998046875 c 0
 102.736328125 217.998046875 115.403320312 258.331054688 129.403320312 304.998046875 c 0
 143.403320312 351.665039062 155.0703125 388.998046875 164.403320312 416.998046875 c 0
 194.403320312 512.998046875 216.736328125 579.665039062 231.403320312 616.998046875 c 0
 240.736328125 640.331054688 249.069335938 656.6640625 256.40234375 665.997070312 c 0
 267.069335938 679.997070312 280.736328125 689.997070312 297.403320312 695.997070312 c 0
 311.403320312 701.330078125 325.0703125 703.997070312 338.403320312 703.997070312 c 2
 344.403320312 703.997070312 l 2
 359.736328125 703.997070312 371.736328125 701.6640625 380.403320312 696.997070312 c 0
 393.0703125 690.997070312 400.0703125 680.997070312 401.403320312 666.997070312 c 0
 401.645507812 661.6640625 401.766601562 655.703125 401.766601562 649.114257812 c 0
 401.766601562 619.461914062 399.3125 577.08984375 394.403320312 521.998046875 c 0
 388.403320312 454.665039062 380.403320312 377.998046875 370.403320312 291.998046875 c 0
 368.403320312 272.665039062 366.403320312 254.665039062 364.403320312 237.998046875 c 1
 379.736328125 285.998046875 394.403320312 331.331054688 408.403320312 373.998046875 c 0
 427.0703125 429.331054688 448.0703125 484.331054688 471.403320312 538.998046875 c 0
 494.736328125 594.331054688 513.736328125 636.998046875 528.403320312 666.998046875 c 0
 533.736328125 676.998046875 542.736328125 685.331054688 555.403320312 691.998046875 c 0
 566.736328125 697.998046875 578.069335938 701.665039062 589.40234375 702.998046875 c 0
 596.735351562 703.665039062 602.735351562 704.165039062 607.40234375 704.498046875 c 0
 612.069335938 704.831054688 615.736328125 704.6640625 618.403320312 703.997070312 c 2
 622.403320312 703.997070312 l 1
 636.903320312 703.997070312 l 2
 640.5703125 703.997070312 645.403320312 702.997070312 651.403320312 700.997070312 c 0
 658.0703125 699.6640625 663.403320312 697.6640625 667.403320312 694.997070312 c 0
 671.403320312 692.330078125 674.736328125 688.330078125 677.403320312 682.997070312 c 0
 680.0703125 676.997070312 681.403320312 669.997070312 681.403320312 661.997070312 c 0
 679.403320312 641.997070312 664.0703125 544.997070312 635.403320312 370.997070312 c 0
 607.403320312 197.6640625 593.403320312 99.6640625 593.403320312 76.9970703125 c 0
 593.403320312 63.6640625 591.736328125 51.3310546875 588.403320312 39.998046875 c 0
 586.403320312 30.6650390625 582.736328125 22.6650390625 577.403320312 15.998046875 c 0
 570.0703125 6.6650390625 560.0703125 -0.001953125 547.403320312 -4.001953125 c 0
 540.0703125 -6.001953125 532.737304688 -7.1689453125 525.404296875 -7.501953125 c 0
 518.071289062 -7.8349609375 510.73828125 -6.001953125 503.405273438 -2.001953125 c 0
 490.73828125 4.6650390625 483.405273438 18.33203125 481.405273438 38.9990234375 c 0
 481.20703125 41.3798828125 481.107421875 44.16796875 481.107421875 47.36328125 c 0
 481.107421875 97.857421875 505.874023438 250.069335938 555.40625 503.999023438 c 1
 535.40625 452.666015625 518.40625 403.999023438 504.40625 357.999023438 c 0
 480.40625 281.999023438 455.739257812 209.999023438 430.40625 141.999023438 c 0
 404.40625 73.9990234375 386.073242188 32.33203125 375.40625 16.9990234375 c 0
 362.073242188 0.9990234375 338.073242188 -7.0009765625 303.40625 -7.0009765625 c 2
 298.40625 -7.0009765625 l 2
 285.073242188 -7.0009765625 274.073242188 -5.0009765625 265.40625 -1.0009765625 c 0
 254.739257812 3.666015625 248.739257812 10.3330078125 247.40625 19 c 0
 247.354492188 21.4619140625 247.329101562 24.16796875 247.329101562 27.115234375 c 0
 247.329101562 62.4775390625 251.021484375 132.772460938 258.40625 238 c 0
 263.739257812 316 269.40625 391.666992188 275.40625 465 c 1
 271.40625 451.666992188 264.073242188 427.666992188 253.40625 393 c 2
 238.40625 340 l 1
 211.40625 252 l 2
 203.40625 224.666992188 194.739257812 196.333984375 185.40625 167.000976562 c 0
 178.073242188 144.333984375 170.740234375 120.666992188 163.407226562 96 c 0
 158.740234375 81.3330078125 155.740234375 70.3330078125 154.407226562 63 c 2
EndSplineSet
EndChar

StartChar: N
Encoding: 78 78 53
Width: 620
GlyphClass: 2
Flags: HMW
HStem: -11.999 21G<91.3917 108.059> 685.001 20G<283.06 292.394 655.727 671.06>
VStem: 65.7242 100.002
LayerCount: 2
Fore
SplineSet
272.727539062 486 m 1
 266.727539062 456 261.39453125 431.000976562 256.727539062 411.000976562 c 0
 252.060546875 389.66796875 245.060546875 359.66796875 235.727539062 321.000976562 c 0
 226.39453125 283.000976562 214.727539062 237.000976562 200.727539062 183.000976562 c 0
 186.727539062 127.66796875 177.727539062 93.0009765625 173.727539062 79.0009765625 c 0
 170.39453125 65.0009765625 168.39453125 56.0009765625 167.727539062 52.0009765625 c 0
 167.060546875 48.66796875 166.393554688 45.66796875 165.7265625 43.0009765625 c 0
 161.7265625 25.0009765625 153.7265625 11.333984375 141.7265625 2.0009765625 c 0
 129.059570312 -7.33203125 115.392578125 -11.9990234375 100.725585938 -11.9990234375 c 0
 82.05859375 -11.9990234375 70.3916015625 -5.9990234375 65.724609375 6.0009765625 c 0
 64.7548828125 10.365234375 64.26953125 15.3017578125 64.26953125 20.8115234375 c 0
 64.26953125 30.453125 65.7548828125 41.849609375 68.724609375 55.0009765625 c 0
 71.3916015625 68.333984375 84.05859375 120.000976562 106.725585938 210.000976562 c 0
 141.392578125 348.66796875 165.059570312 444.000976562 177.7265625 496.000976562 c 0
 189.7265625 548.000976562 199.7265625 595.333984375 207.7265625 638.000976562 c 0
 208.393554688 640.66796875 209.060546875 643.66796875 209.727539062 647.000976562 c 0
 211.727539062 657.000976562 215.727539062 665.66796875 221.727539062 673.000976562 c 0
 228.39453125 682.333984375 236.727539062 689.333984375 246.727539062 694.000976562 c 0
 260.727539062 701.333984375 275.39453125 705.000976562 290.727539062 705.000976562 c 0
 294.060546875 705.000976562 297.393554688 704.66796875 300.7265625 704.000976562 c 0
 314.7265625 704.000976562 326.059570312 701.66796875 334.7265625 697.000976562 c 0
 347.393554688 691.000976562 354.393554688 681.000976562 355.7265625 667.000976562 c 0
 359.7265625 624.333984375 380.393554688 545.333984375 417.7265625 430.000976562 c 0
 449.059570312 332.66796875 477.059570312 251.66796875 501.7265625 187.000976562 c 1
 516.393554688 244.333984375 533.7265625 319.333984375 553.7265625 412.000976562 c 0
 579.7265625 530.000976562 595.059570312 608.000976562 599.7265625 646.000976562 c 0
 600.393554688 650.000976562 601.060546875 653.66796875 601.727539062 657.000976562 c 0
 604.39453125 669.000976562 610.727539062 679.333984375 620.727539062 688.000976562 c 0
 633.39453125 699.333984375 647.727539062 705.000976562 663.727539062 705.000976562 c 0
 678.39453125 705.000976562 689.727539062 702.333984375 697.727539062 697.000976562 c 0
 701.727539062 694.333984375 704.727539062 690.333984375 706.727539062 685.000976562 c 0
 707.39453125 679.66796875 707.727539062 675.000976562 707.727539062 671.000976562 c 0
 707.727539062 666.333984375 707.060546875 659.333984375 705.727539062 650.000976562 c 0
 705.060546875 638.66796875 693.727539062 585.334960938 671.727539062 490.001953125 c 0
 668.39453125 476.001953125 665.39453125 462.001953125 662.727539062 448.001953125 c 0
 643.39453125 364.668945312 622.39453125 278.668945312 599.727539062 190.001953125 c 0
 585.060546875 132.668945312 573.060546875 90.001953125 563.727539062 62.001953125 c 0
 555.060546875 35.3349609375 548.060546875 18.3349609375 542.727539062 11.001953125 c 0
 530.060546875 -4.998046875 507.727539062 -13.3310546875 475.727539062 -13.998046875 c 2
 471.727539062 -13.998046875 l 2
 459.727539062 -13.998046875 449.727539062 -11.6650390625 441.727539062 -6.998046875 c 0
 431.727539062 -1.6650390625 425.727539062 5.001953125 423.727539062 13.001953125 c 0
 420.39453125 26.3349609375 411.061523438 55.66796875 395.728515625 101.000976562 c 0
 379.728515625 148.333984375 363.061523438 193.666992188 345.728515625 237 c 0
 329.061523438 286.333007812 312.39453125 341 295.727539062 401 c 0
 286.39453125 431.666992188 278.727539062 460 272.727539062 486 c 1
EndSplineSet
EndChar

StartChar: O
Encoding: 79 79 54
Width: 620
GlyphClass: 2
Flags: HMW
HStem: -24 108<267.169 309.838> 612.001 105.999<470.171 477.504>
VStem: 113.169 111.999<161.501 244.667>
LayerCount: 2
Fore
SplineSet
664.170898438 480 m 0
 663.50390625 477.333007812 663.501953125 477.333984375 664.168945312 480.000976562 c 1
 652.8359375 406.000976562 636.502929688 333.333984375 615.169921875 262.000976562 c 0
 603.169921875 222.66796875 592.169921875 192.334960938 582.169921875 171.001953125 c 0
 566.836914062 139.668945312 550.336914062 112.668945312 532.669921875 90.001953125 c 0
 515.002929688 67.3349609375 496.8359375 48.66796875 478.168945312 34.0009765625 c 0
 459.501953125 19.333984375 438.501953125 7.6669921875 415.168945312 -1 c 0
 391.168945312 -9.6669921875 367.668945312 -15.6669921875 344.668945312 -19 c 0
 321.668945312 -22.3330078125 295.8359375 -24 267.168945312 -24 c 0
 223.168945312 -23.3330078125 187.168945312 -10.666015625 159.168945312 14.0009765625 c 0
 132.501953125 39.333984375 115.501953125 72.6669921875 108.168945312 114 c 0
 105.181640625 130.295898438 103.6875 147.14453125 103.6875 164.545898438 c 0
 103.6875 189.860351562 106.848632812 216.344726562 113.169921875 244 c 0
 113.169921875 245.333007812 113.502929688 247.333007812 114.169921875 250 c 0
 115.502929688 257.333007812 116.8359375 262.666015625 118.168945312 265.999023438 c 0
 124.8359375 294.666015625 130.502929688 317.833007812 135.169921875 335.5 c 0
 139.836914062 353.166992188 146.50390625 376.666992188 155.170898438 406 c 0
 172.50390625 463.333007812 195.50390625 516.666015625 224.170898438 565.999023438 c 0
 251.50390625 610.666015625 289.170898438 647.333007812 337.170898438 676 c 0
 388.50390625 704 442.170898438 718 498.170898438 718 c 0
 526.837890625 718 553.170898438 712.666992188 577.170898438 702 c 0
 600.50390625 691.333007812 619.50390625 676 634.170898438 656 c 0
 648.837890625 636 658.837890625 611 664.170898438 581 c 0
 666.836914062 566 668.170898438 550.083007812 668.170898438 533.25 c 0
 668.170898438 516.416015625 666.836914062 498.666015625 664.170898438 480 c 0
256.668945312 94.0009765625 m 0
 266.3359375 87.333984375 278.170898438 84 292.170898438 84 c 0
 327.50390625 84 360.836914062 92.3330078125 392.169921875 109 c 0
 408.169921875 117 423.502929688 128.166992188 438.169921875 142.5 c 0
 452.836914062 156.833007812 465.50390625 173.333007812 476.170898438 192 c 0
 480.170898438 199.333007812 487.00390625 217.833007812 496.670898438 247.5 c 0
 506.337890625 277.166992188 516.504882812 312.666992188 527.171875 354 c 0
 530.504882812 366 533.504882812 378 536.171875 390 c 0
 542.838867188 418.666992188 548.171875 447.333984375 552.171875 476.000976562 c 0
 553.46484375 485.697265625 554.111328125 494.962890625 554.111328125 503.797851562 c 0
 554.111328125 531.407226562 547.797851562 554.80859375 535.170898438 574.000976562 c 0
 518.50390625 599.333984375 493.836914062 612.000976562 461.169921875 612.000976562 c 0
 428.502929688 612.000976562 398.8359375 600.66796875 372.168945312 578.000976562 c 0
 344.168945312 554.000976562 319.501953125 520.66796875 298.168945312 478.000976562 c 0
 274.8359375 430.000976562 256.168945312 374.66796875 242.168945312 312.000976562 c 0
 232.8359375 272.66796875 227.168945312 239.000976562 225.168945312 211.000976562 c 0
 224.502929688 202.66796875 224.168945312 194.375976562 224.168945312 186.125976562 c 0
 224.168945312 177.875976562 224.502929688 169.66796875 225.168945312 161.500976562 c 0
 226.501953125 145.16796875 229.668945312 131.500976562 234.668945312 120.500976562 c 0
 239.668945312 109.500976562 247.001953125 100.66796875 256.668945312 94.0009765625 c 0
EndSplineSet
EndChar

StartChar: P
Encoding: 80 80 55
Width: 620
GlyphClass: 2
Flags: HMW
HStem: -18.998 21G<121.756 137.757> 218 106.003<339.423 348.757 339.423 364.761> 605.003 105.999<431.424 490.425>
VStem: 85.4226 120 214.423 0.999023
LayerCount: 2
Fore
SplineSet
257.423828125 334.002929688 m 1
 278.201171875 327.28125 302.8984375 323.919921875 331.517578125 323.919921875 c 0
 334.120117188 323.919921875 336.755859375 323.947265625 339.422851562 324.002929688 c 0
 358.08984375 324.002929688 375.58984375 325.3359375 391.922851562 328.002929688 c 0
 408.255859375 330.669921875 422.422851562 334.002929688 434.422851562 338.002929688 c 0
 446.422851562 342.002929688 457.422851562 347.3359375 467.422851562 354.002929688 c 0
 477.422851562 360.669921875 486.08984375 367.336914062 493.422851562 374.00390625 c 0
 500.755859375 380.670898438 507.422851562 388.50390625 513.422851562 397.50390625 c 0
 519.422851562 406.50390625 524.422851562 414.670898438 528.422851562 422.00390625 c 0
 532.422851562 429.336914062 536.08984375 438.169921875 539.422851562 448.502929688 c 0
 542.755859375 458.8359375 545.422851562 467.168945312 547.422851562 473.501953125 c 0
 549.422851562 479.834960938 551.422851562 488.001953125 553.422851562 498.001953125 c 0
 555.604492188 506.729492188 556.6953125 514.959960938 556.6953125 522.6953125 c 0
 556.6953125 529.141601562 555.9375 535.244140625 554.422851562 541.001953125 c 0
 551.08984375 553.668945312 545.756835938 563.8359375 538.423828125 571.502929688 c 0
 531.090820312 579.169921875 521.590820312 585.669921875 509.923828125 591.002929688 c 0
 498.256835938 596.3359375 486.756835938 600.002929688 475.423828125 602.002929688 c 0
 464.090820312 604.002929688 453.090820312 605.002929688 442.423828125 605.002929688 c 0
 420.423828125 605.002929688 380.756835938 603.002929688 323.423828125 599.002929688 c 1
 302.756835938 519.669921875 289.08984375 466.002929688 282.422851562 438.002929688 c 0
 273.08984375 400.669921875 264.756835938 366.002929688 257.423828125 334.002929688 c 1
216.427734375 109 m 0
 209.760742188 61 206.08984375 35.3359375 205.422851562 32.0029296875 c 0
 201.422851562 15.3359375 190.755859375 2.6689453125 173.422851562 -5.998046875 c 0
 159.422851562 -14.6650390625 145.08984375 -18.998046875 130.422851562 -18.998046875 c 0
 113.08984375 -18.998046875 100.08984375 -13.6650390625 91.4228515625 -2.998046875 c 0
 86.380859375 3.4189453125 83.8603515625 11.2529296875 83.8603515625 20.505859375 c 0
 83.8603515625 24.7109375 84.380859375 29.2099609375 85.4228515625 34.0009765625 c 0
 86.08984375 36.66796875 87.08984375 41.0009765625 88.4228515625 47.0009765625 c 0
 91.08984375 56.333984375 95.08984375 72.333984375 100.422851562 95.0009765625 c 0
 109.08984375 132.333984375 120.422851562 183.666992188 134.422851562 249 c 0
 157.755859375 359.666992188 171.422851562 425 175.422851562 445 c 0
 186.728515625 497.540039062 200.024414062 554.059570312 215.310546875 614.560546875 c 1
 214.0703125 609.7109375 213.774414062 610.524414062 214.422851562 617.001953125 c 1
 213.08984375 611.668945312 212.756835938 612.001953125 213.423828125 618.001953125 c 0
 210.090820312 626.668945312 209.423828125 635.3359375 211.423828125 644.002929688 c 0
 212.090820312 646.669921875 212.756835938 649.002929688 213.423828125 651.002929688 c 0
 217.423828125 661.002929688 223.7578125 670.002929688 232.424804688 678.002929688 c 0
 241.091796875 686.002929688 250.091796875 691.002929688 259.424804688 693.002929688 c 0
 283.424804688 698.3359375 318.424804688 703.002929688 364.424804688 707.002929688 c 0
 404.9765625 709.780273438 435.344726562 711.168945312 455.530273438 711.168945312 c 0
 459.569335938 711.168945312 463.201171875 711.11328125 466.424804688 711.001953125 c 0
 514.424804688 711.001953125 555.7578125 703.001953125 590.424804688 687.001953125 c 0
 621.091796875 670.334960938 642.924804688 645.16796875 655.924804688 611.500976562 c 0
 663.272460938 592.471679688 666.946289062 571.47265625 666.946289062 548.50390625 c 0
 666.946289062 530.834960938 664.772460938 512.000976562 660.424804688 492.000976562 c 0
 651.7578125 454.000976562 637.7578125 418.333984375 618.424804688 385.000976562 c 0
 599.091796875 351.66796875 576.258789062 322.66796875 549.92578125 298.000976562 c 0
 523.592773438 273.333984375 492.759765625 253.666992188 457.426757812 239 c 0
 421.426757812 225 384.09375 218 345.426757812 218 c 0
 300.09375 218 263.426757812 220.666992188 235.426757812 226 c 1
 228.09375 188 221.760742188 149 216.427734375 109 c 0
EndSplineSet
EndChar

StartChar: Q
Encoding: 81 81 56
Width: 620
GlyphClass: 2
Flags: HMW
HStem: -24.002 21G<276.287 301.287> 612.496 105.504
VStem: 288.952 104.002
LayerCount: 2
Fore
SplineSet
488.951171875 -204 m 0
 479.618164062 -209.333007812 470.2890625 -212.002929688 460.956054688 -212.002929688 c 0
 456.2890625 -212.002929688 451.622070312 -211.3359375 446.955078125 -210.002929688 c 0
 433.622070312 -206.002929688 423.955078125 -197.669921875 417.955078125 -185.002929688 c 0
 411.288085938 -171.669921875 400.62109375 -149.169921875 385.954101562 -117.502929688 c 0
 371.287109375 -85.8359375 357.287109375 -53.6689453125 343.954101562 -21.001953125 c 1
 327.954101562 -23.001953125 310.62109375 -24.001953125 291.954101562 -24.001953125 c 0
 260.62109375 -24.001953125 232.62109375 -19.001953125 207.954101562 -9.001953125 c 0
 183.287109375 0.998046875 163.954101562 14.3310546875 149.954101562 30.998046875 c 0
 135.954101562 48.3310546875 124.954101562 68.3310546875 116.954101562 90.998046875 c 0
 109.217773438 115.313476562 105.348632812 142.276367188 105.348632812 171.885742188 c 0
 105.348632812 195.85546875 107.883789062 221.559570312 112.954101562 248.998046875 c 0
 116.287109375 265.665039062 119.954101562 282.33203125 123.954101562 298.999023438 c 0
 147.954101562 403.666015625 180.954101562 491.333007812 222.954101562 562 c 0
 250.287109375 606.666992188 287.954101562 644 335.954101562 674 c 0
 387.287109375 703.333007812 440.620117188 718 495.953125 718 c 0
 554.620117188 718 599.953125 699.333007812 631.953125 662 c 0
 646.620117188 643.333007812 656.620117188 618.333007812 661.953125 587 c 0
 664.796875 570.290039062 666.219726562 552.252929688 666.219726562 532.888671875 c 0
 666.219726562 515.942382812 665.129882812 497.979492188 662.952148438 479 c 0
 658.28515625 443 650.28515625 401.333007812 638.952148438 354 c 0
 619.619140625 270 600.952148438 207 582.952148438 165 c 0
 554.28515625 97 513.618164062 47 460.951171875 15 c 1
 474.284179688 -14.3330078125 490.951171875 -48 510.951171875 -86 c 0
 522.319335938 -108.104492188 528.00390625 -120.038085938 528.00390625 -121.80078125 c 0
 528.00390625 -121.8984375 527.986328125 -121.96484375 527.951171875 -122 c 0
 530.034179688 -127 531.076171875 -132.130859375 531.076171875 -137.390625 c 0
 531.076171875 -140.546875 530.701171875 -143.75 529.951171875 -147 c 0
 529.284179688 -149 528.6171875 -151.333007812 527.950195312 -154 c 0
 523.950195312 -164 518.283203125 -173.666992188 510.950195312 -183 c 0
 503.6171875 -192.333007812 496.284179688 -199.333007812 488.951171875 -204 c 0
287.955078125 113.997070312 m 0
 286.76953125 121.704101562 286.17578125 129.08203125 286.17578125 136.130859375 c 0
 286.17578125 144.93359375 287.1015625 153.22265625 288.952148438 160.997070312 c 0
 293.619140625 182.330078125 305.286132812 198.997070312 323.953125 210.997070312 c 0
 335.286132812 218.330078125 346.286132812 222.330078125 356.953125 222.997070312 c 0
 365.620117188 222.997070312 373.287109375 219.997070312 379.954101562 213.997070312 c 0
 386.62109375 207.997070312 390.954101562 198.6640625 392.954101562 185.997070312 c 0
 396.954101562 157.330078125 404.62109375 125.663085938 415.954101562 90.99609375 c 1
 440.62109375 108.329101562 460.288085938 133.99609375 474.955078125 167.99609375 c 0
 478.955078125 177.329101562 485.622070312 196.99609375 494.955078125 226.99609375 c 0
 504.288085938 256.99609375 514.288085938 294.663085938 524.955078125 339.99609375 c 2
 528.955078125 355.99609375 l 2
 538.288085938 395.329101562 544.955078125 432.99609375 548.955078125 468.99609375 c 0
 550.008789062 479.08203125 550.536132812 488.692382812 550.536132812 497.827148438 c 0
 550.536132812 529.14453125 544.341796875 554.8671875 531.955078125 574.99609375 c 0
 516.821289062 600 493.081054688 612.502929688 460.735351562 612.502929688 c 0
 460.309570312 612.502929688 459.8828125 612.5 459.455078125 612.49609375 c 0
 426.455078125 612.163085938 396.288085938 600.330078125 368.955078125 576.997070312 c 0
 340.288085938 552.330078125 315.288085938 517.997070312 293.955078125 473.997070312 c 0
 269.955078125 421.997070312 251.622070312 367.997070312 238.955078125 311.997070312 c 0
 234.288085938 291.997070312 230.288085938 271.6640625 226.955078125 250.997070312 c 0
 223.682617188 230.997070312 222.045898438 212.137695312 222.045898438 194.41796875 c 0
 222.045898438 179.65234375 223.182617188 165.678710938 225.455078125 152.497070312 c 0
 230.455078125 123.497070312 240.622070312 100.6640625 255.955078125 83.9970703125 c 0
 268.622070312 70.6640625 283.622070312 62.9970703125 300.955078125 60.9970703125 c 1
 294.288085938 82.330078125 289.955078125 99.9970703125 287.955078125 113.997070312 c 0
EndSplineSet
EndChar

